<?xml version="1.0" encoding="utf-8"?>
<!-- Generator: Adobe Illustrator 27.5.0, SVG Export Plug-In . SVG Version: 6.00 Build 0)  -->
<svg version="1.1" xmlns="http://www.w3.org/2000/svg" xmlns:xlink="http://www.w3.org/1999/xlink" x="0px" y="0px"
	 viewBox="0 0 500 500" style="enable-background:new 0 0 500 500;" xml:space="preserve">
<g id="Background_Simple">
	<g>
		<path style="fill:#92E3A9;" d="M468.076,197.808c-11.686-24.133-25.001-48.08-38.817-70.477
			c-21.401-34.692-49.42-67.213-86.089-87.727C258.104-7.982,160.117,10.639,95.511,65.467S83.666,190.64,71.822,243.398
			c-11.844,52.759-49.532,50.69-59.223,127.242c-9.691,76.552,100.14,122.069,185.205,102.414
			c85.065-19.655,86.142-54.828,158.286-56.897s115.215-23.793,130.29-104.485c5.297-28.352,5.856-59.17-5.71-86.254
			C476.75,216.238,472.531,207.01,468.076,197.808z"/>
		<path style="opacity:0.8;fill:#FFFFFF;" d="M468.076,197.808c-11.686-24.133-25.001-48.08-38.817-70.477
			c-21.401-34.692-49.42-67.213-86.089-87.727C258.104-7.982,160.117,10.639,95.511,65.467S83.666,190.64,71.822,243.398
			c-11.844,52.759-49.532,50.69-59.223,127.242c-9.691,76.552,100.14,122.069,185.205,102.414
			c85.065-19.655,86.142-54.828,158.286-56.897s115.215-23.793,130.29-104.485c5.297-28.352,5.856-59.17-5.71-86.254
			C476.75,216.238,472.531,207.01,468.076,197.808z"/>
	</g>
	<g>
		
			<line style="fill:none;stroke:#263238;stroke-linecap:round;stroke-linejoin:round;stroke-miterlimit:10;" x1="468.076" y1="451.212" x2="478.914" y2="451.212"/>
		
			<line style="fill:none;stroke:#263238;stroke-linecap:round;stroke-linejoin:round;stroke-miterlimit:10;" x1="33.157" y1="451.212" x2="458.141" y2="451.212"/>
	</g>
</g>
<g id="Clouds">
	<g style="opacity:0.3;">
		<path style="fill:none;stroke:#000000;stroke-linecap:round;stroke-linejoin:round;stroke-miterlimit:10;" d="M102.593,121.924
			c-1.937-2.01-5.3-3.859-11.128-4.001c-13.104-0.319-9.588,8.949-13.104,11.187c-3.516,2.237-4.475-1.279-7.99,0.959
			c-3.516,2.237-1.918,6.712-4.794,7.351c-2.877,0.639-6.712-2.877-10.228-0.639c-3.516,2.237-3.516,4.155-5.114,4.155
			c-1.598,0-4.794-1.279-6.712,0c-1.918,1.279-4.155,2.876-4.155,2.876h34.317"/>
		<path style="fill:none;stroke:#000000;stroke-linecap:round;stroke-linejoin:round;stroke-miterlimit:10;" d="M106.201,127.646
			c-0.313-0.151-0.643-0.303-0.993-0.455c0,0-0.11-1.543-1.177-3.37"/>
		<path style="fill:none;stroke:#000000;stroke-linecap:round;stroke-linejoin:round;stroke-miterlimit:10;" d="M78.081,143.811
			h42.149c0,0,0.959-2.876-2.557-4.794c-3.516-1.918-5.114-0.32-6.392-1.918c-1.138-1.423,2.539-4.874-3.413-8.547"/>
	</g>
	<g style="opacity:0.3;">
		<path style="fill:none;stroke:#000000;stroke-linecap:round;stroke-linejoin:round;stroke-miterlimit:10;" d="M401.19,333.297
			c-1.937-2.01-5.3-3.859-11.128-4.001c-13.104-0.319-9.588,8.949-13.104,11.187c-3.516,2.237-4.475-1.279-7.99,0.959
			c-3.516,2.237-1.918,6.712-4.794,7.351c-2.877,0.639-6.712-2.876-10.228-0.639c-3.516,2.237-3.516,4.155-5.114,4.155
			c-1.598,0-4.794-1.279-6.712,0c-1.918,1.279-4.155,2.876-4.155,2.876h34.317"/>
		<path style="fill:none;stroke:#000000;stroke-linecap:round;stroke-linejoin:round;stroke-miterlimit:10;" d="M404.799,339.02
			c-0.313-0.151-0.643-0.303-0.993-0.455c0,0-0.11-1.543-1.177-3.37"/>
		<path style="fill:none;stroke:#000000;stroke-linecap:round;stroke-linejoin:round;stroke-miterlimit:10;" d="M376.678,355.185
			h42.149c0,0,0.959-2.876-2.557-4.794c-3.516-1.917-5.114-0.319-6.392-1.917c-1.138-1.423,2.539-4.874-3.413-8.547"/>
	</g>
	<g style="opacity:0.3;">
		<path style="fill:none;stroke:#000000;stroke-linecap:round;stroke-linejoin:round;stroke-miterlimit:10;" d="M178.502,81.831
			h44.874c0,0,1.529-4.587-4.078-7.645c-5.607-3.058-8.155-0.509-10.194-3.058c-2.039-2.549,5.607-9.175-9.684-15.801
			c0,0-1.019-14.271-21.916-14.781c-9.018-0.22-13.1,2.408-15.278,5.753"/>
		
			<line style="fill:none;stroke:#000000;stroke-linecap:round;stroke-linejoin:round;stroke-miterlimit:10;" x1="164.809" y1="81.831" x2="172.278" y2="81.831"/>
		<path style="fill:none;stroke:#000000;stroke-linecap:round;stroke-linejoin:round;stroke-miterlimit:10;" d="M159.506,53.339
			c-0.639,2.173-1.33,4.049-2.899,5.047c-5.607,3.568-7.135-2.039-12.742,1.529c-5.607,3.568-3.058,10.703-7.645,11.723
			c-4.587,1.019-10.703-4.587-16.31-1.019c-5.606,3.568-5.606,6.626-8.155,6.626c-2.548,0-7.646-2.039-10.703,0
			c-3.058,2.039-6.626,4.587-6.626,4.587h57.311"/>
	</g>
</g>
<g id="Grass">
	<polygon style="fill:#92E3A9;" points="478.362,451.057 478.362,443.74 472.274,439.997 465.889,443.922 459.504,439.997 
		453.122,443.922 446.74,439.997 440.358,443.922 433.975,439.997 427.592,443.922 421.207,439.997 414.822,443.922 
		408.439,439.997 402.056,443.922 395.673,439.997 389.29,443.922 382.904,439.997 376.519,443.922 370.136,439.997 
		363.753,443.922 357.369,439.997 350.984,443.922 344.598,439.997 338.214,443.922 331.83,439.997 325.446,443.922 
		319.059,439.997 312.674,443.922 306.29,439.997 299.905,443.922 293.519,439.997 287.133,443.922 280.749,439.997 
		274.363,443.922 267.977,439.997 261.592,443.922 255.207,439.997 248.82,443.922 242.435,439.997 236.049,443.922 
		229.663,439.997 223.277,443.922 216.897,439.997 210.514,443.922 204.127,439.997 197.744,443.922 191.362,439.997 
		184.978,443.922 178.591,439.997 172.208,443.922 165.824,439.997 159.436,443.922 153.052,439.997 146.665,443.922 
		140.279,439.997 133.892,443.922 127.506,439.997 121.117,443.922 114.731,439.997 108.342,443.922 101.953,439.997 
		95.564,443.922 89.175,439.997 82.786,443.922 76.402,439.997 70.016,443.922 63.626,439.997 57.236,443.922 50.847,439.997 
		44.455,443.922 38.067,439.997 32.732,443.272 32.732,451.057 	"/>
</g>
<g id="Trees">
	<g>
		<g>
			<path style="fill:#92E3A9;" d="M34.743,317.298c0,0,33.643,3.329,50.695,24.185c0,0,18.015-24.161,50.373-23.666
				c9.389-11.317,15.038-25.851,15.043-41.705c0.012-36.116-29.255-65.404-65.371-65.416c-36.116-0.013-65.404,29.255-65.416,65.371
				c-0.005,15.655,5.494,30.026,14.666,41.287L34.743,317.298z"/>
			<path style="fill:#92E3A9;" d="M34.743,317.298c0,0,33.643,3.329,50.695,24.185c0,0,18.015-24.161,50.373-23.666
				c9.389-11.317,15.038-25.851,15.043-41.705c0.012-36.116-29.255-65.404-65.371-65.416c-36.116-0.013-65.404,29.255-65.416,65.371
				c-0.005,15.655,5.494,30.026,14.666,41.287L34.743,317.298z"/>
			<path style="opacity:0.5;fill:#FFFFFF;" d="M34.743,317.298c0,0,33.643,3.329,50.695,24.185c0,0,18.015-24.161,50.373-23.666
				c9.389-11.317,15.038-25.851,15.043-41.705c0.012-36.116-29.255-65.404-65.371-65.416c-36.116-0.013-65.404,29.255-65.416,65.371
				c-0.005,15.655,5.494,30.026,14.666,41.287L34.743,317.298z"/>
			<g>
				<polygon style="fill:#828282;" points="87.469,451.513 84.325,215.306 83.539,451.513 				"/>
				<path style="fill:#828282;" d="M86.029,335.126c0,0,11.357-20.443,31.8-26.69c0,0-21.579,5.111-32.368,22.714L86.029,335.126z"
					/>
				<path style="fill:#828282;" d="M84.791,277.757c0,0,12.595-20.996,33.039-27.243c0,0-22.249,6.403-33.039,24.007V277.757z"/>
				<path style="fill:#828282;" d="M85.232,307.621c0,0,12.154-21.899,32.597-28.146c0,0-22.102,6.128-32.892,23.732L85.232,307.621
					z"/>
				<path style="fill:#828282;" d="M84.345,291.968c0,0-10.959-20.443-30.685-26.69c0,0,20.822,5.111,31.233,22.715L84.345,291.968z
					"/>
				<path style="fill:#828282;" d="M84.345,320.361c0,0-10.959-20.443-30.685-26.69c0,0,20.822,5.111,31.233,22.714L84.345,320.361z
					"/>
			</g>
		</g>
		<g>
			<path style="fill:#92E3A9;" d="M362.666,317.298c0,0,33.643,3.329,50.696,24.185c0,0,18.015-24.161,50.373-23.666
				c9.389-11.317,15.038-25.851,15.044-41.705c0.012-36.116-29.255-65.404-65.371-65.416c-36.116-0.013-65.404,29.255-65.416,65.371
				c-0.005,15.655,5.494,30.026,14.666,41.287L362.666,317.298z"/>
			<path style="opacity:0.5;fill:#FFFFFF;" d="M362.666,317.298c0,0,33.643,3.329,50.696,24.185c0,0,18.015-24.161,50.373-23.666
				c9.389-11.317,15.038-25.851,15.044-41.705c0.012-36.116-29.255-65.404-65.371-65.416c-36.116-0.013-65.404,29.255-65.416,65.371
				c-0.005,15.655,5.494,30.026,14.666,41.287L362.666,317.298z"/>
			<g>
				<polygon style="fill:#828282;" points="415.392,451.513 412.248,215.306 411.462,451.513 				"/>
				<path style="fill:#828282;" d="M413.952,335.126c0,0,11.357-20.443,31.8-26.69c0,0-21.579,5.111-32.368,22.714L413.952,335.126z
					"/>
				<path style="fill:#828282;" d="M412.714,277.757c0,0,12.595-20.996,33.039-27.243c0,0-22.249,6.403-33.039,24.007V277.757z"/>
				<path style="fill:#828282;" d="M413.155,307.621c0,0,12.154-21.899,32.597-28.146c0,0-22.102,6.128-32.892,23.732
					L413.155,307.621z"/>
				<path style="fill:#828282;" d="M412.268,291.968c0,0-10.959-20.443-30.685-26.69c0,0,20.822,5.111,31.233,22.715
					L412.268,291.968z"/>
				<path style="fill:#828282;" d="M412.268,320.361c0,0-10.959-20.443-30.685-26.69c0,0,20.822,5.111,31.233,22.714
					L412.268,320.361z"/>
			</g>
		</g>
		<g>
			<path style="fill:#92E3A9;" d="M286.055,200.232c0,0,57.147,5.654,86.112,41.08c0,0,30.601-41.04,85.563-40.199
				c15.949-19.223,25.543-43.91,25.553-70.841c0.021-61.346-49.693-111.095-111.04-111.116
				c-61.346-0.021-111.095,49.693-111.116,111.04c-0.009,26.592,9.332,51.003,24.911,70.131L286.055,200.232z"/>
			<path style="opacity:0.5;fill:#FFFFFF;" d="M286.055,200.232c0,0,57.147,5.654,86.112,41.08c0,0,30.601-41.04,85.563-40.199
				c15.949-19.223,25.543-43.91,25.553-70.841c0.021-61.346-49.693-111.095-111.04-111.116
				c-61.346-0.021-111.095,49.693-111.116,111.04c-0.009,26.592,9.332,51.003,24.911,70.131L286.055,200.232z"/>
			<g>
				<polygon style="fill:#828282;" points="375.926,451.513 370.276,26.988 368.863,451.513 				"/>
				<path style="fill:#828282;" d="M373.17,230.514c0,0,19.291-34.725,54.016-45.335c0,0-36.654,8.681-54.981,38.583L373.17,230.514
					z"/>
				<path style="fill:#828282;" d="M371.066,133.067c0,0,21.395-35.664,56.12-46.275c0,0-37.792,10.876-56.12,40.777V133.067z"/>
				<path style="fill:#828282;" d="M371.816,183.794c0,0,20.645-37.197,55.37-47.808c0,0-37.543,10.409-55.87,40.312
					L371.816,183.794z"/>
				<path style="fill:#828282;" d="M370.31,157.207c0,0-18.615-34.725-52.121-45.336c0,0,35.367,8.681,53.052,38.583L370.31,157.207
					z"/>
				<path style="fill:#828282;" d="M370.31,205.435c0,0-18.615-34.725-52.121-45.335c0,0,35.367,8.681,53.052,38.583L370.31,205.435
					z"/>
			</g>
		</g>
	</g>
</g>
<g id="Plants">
	<g>
		<path style="fill:#828282;" d="M357.202,406.87c1.379,0.602,4.753,0.526,4.755,0.526c0.035-0.001-0.725-2.208-0.789-2.342
			c-0.74-1.548-3.081-4.105-4.985-3.848c-1.372,0.186-2.135,1.559-1.825,2.85C354.674,405.377,356.027,406.357,357.202,406.87z"/>
		<path style="fill:#828282;" d="M358.366,416.641c1.431,0.209,4.441-0.664,4.681-0.735c0.475,1.685,1.1,3.376,1.826,5.052
			c0.414,0.959,0.861,1.912,1.321,2.861c-0.275-0.402-0.523-0.76-0.563-0.806c-1.123-1.298-4.056-3.145-5.824-2.394
			c-1.275,0.541-1.648,2.067-1.008,3.231c0.653,1.189,2.218,1.777,3.486,1.962c1.287,0.188,3.869-0.505,4.55-0.698
			c0.18,0.363,0.356,0.726,0.538,1.088c0.872,1.736,1.749,3.464,2.558,5.186c0.285,0.606,0.544,1.214,0.805,1.822
			c-0.244-0.357-0.453-0.656-0.49-0.698c-1.123-1.297-4.055-3.145-5.824-2.394c-1.275,0.541-1.648,2.067-1.008,3.231
			c0.654,1.189,2.218,1.777,3.487,1.962c1.228,0.179,3.617-0.439,4.427-0.664c0.249,0.63,0.499,1.26,0.711,1.882
			c0.135,0.428,0.296,0.83,0.408,1.267c0.12,0.431,0.239,0.857,0.357,1.279c0.197,0.821,0.405,1.667,0.577,2.473
			c0.124,0.56,0.232,1.095,0.342,1.634c-0.277-0.607-0.844-1.784-0.903-1.877c-0.913-1.453-3.532-3.723-5.394-3.249
			c-1.342,0.342-1.942,1.794-1.485,3.041c0.466,1.274,1.923,2.092,3.149,2.467c1.35,0.412,4.338,0.035,4.711-0.014
			c0.179,0.893,0.345,1.763,0.488,2.587c0.32,1.817,0.562,3.447,0.746,4.825h1.26c-0.22-1.427-0.507-3.126-0.887-5.035
			c-0.178-0.907-0.387-1.873-0.61-2.863c0.225-0.089,1.499-0.605,2.628-1.236c0.983,1.065,3.504,2.312,3.83,2.47
			c-0.343,0.844-0.685,1.661-1.02,2.427c-0.697,1.604-1.359,3.027-1.943,4.237h1.362c0.503-1.115,1.055-2.386,1.63-3.793
			c0.352-0.855,0.711-1.776,1.071-2.725c0.362,0.076,3.319,0.676,4.698,0.365c1.25-0.283,2.764-0.99,3.324-2.226
			c0.548-1.21,0.057-2.702-1.255-3.143c-1.822-0.612-4.602,1.457-5.621,2.838c-0.06,0.081-0.614,1.038-0.953,1.647
			c0.145-0.388,0.29-0.764,0.434-1.166c0.291-0.792,0.558-1.592,0.848-2.451c0.126-0.42,0.252-0.844,0.381-1.272
			c0.136-0.422,0.226-0.885,0.342-1.331c0.248-1.04,0.448-2.107,0.626-3.185c0.695,0.253,3.174,1.115,4.459,1.025
			c1.279-0.09,2.882-0.559,3.623-1.696c0.725-1.113,0.466-2.663-0.764-3.297c-1.708-0.881-4.771,0.743-5.987,1.954
			c-0.076,0.075-0.851,1.042-1.266,1.581c0.102-0.649,0.207-1.297,0.289-1.957c0.237-1.906,0.417-3.842,0.605-5.772
			c0.057-0.592,0.122-1.18,0.184-1.77c0.246,0.093,3.171,1.182,4.61,1.081c1.279-0.089,2.883-0.559,3.623-1.697
			c0.725-1.113,0.466-2.663-0.764-3.297c-1.708-0.881-4.77,0.743-5.986,1.954c-0.091,0.091-1.205,1.484-1.471,1.852
			c0.137-1.298,0.286-2.591,0.484-3.859c0.271-1.75,0.634-3.452,1.108-5.075c0.114,0.043,3.162,1.194,4.636,1.09
			c1.279-0.09,2.883-0.56,3.623-1.697c0.725-1.113,0.466-2.662-0.764-3.297c-1.708-0.881-4.77,0.743-5.987,1.954
			c-0.095,0.095-1.293,1.594-1.49,1.881c0.029-0.096,0.047-0.199,0.077-0.295c0.527-1.726,1.255-3.332,2.01-4.803
			c0.437-0.855,0.903-1.648,1.373-2.41c0.546,0.273,3.053,1.49,4.39,1.544c1.281,0.051,2.927-0.24,3.787-1.288
			c0.843-1.027,0.756-2.595-0.397-3.361c-1.601-1.063-4.823,0.215-6.165,1.284c-0.073,0.058-0.749,0.732-1.235,1.229
			c0.217-0.34,0.435-0.696,0.65-1.018c0.804-1.211,1.615-2.27,2.34-3.202c0.417-0.527,0.804-0.995,1.172-1.429
			c0.675-0.012,3.394-0.094,4.583-0.652c1.16-0.545,2.487-1.561,2.768-2.889c0.275-1.3-0.525-2.652-1.902-2.8
			c-1.911-0.206-4.182,2.413-4.88,3.981c-0.06,0.136-0.76,2.363-0.725,2.363c0,0,0.033,0,0.041,0
			c-0.362,0.41-0.745,0.855-1.153,1.349c-0.748,0.918-1.584,1.962-2.417,3.161c-0.836,1.195-1.711,2.517-2.506,3.992
			c-0.799,1.478-1.565,3.073-2.141,4.819c-0.007,0.02-0.011,0.041-0.017,0.061c0.01-0.563-0.015-2.138-0.031-2.259
			c-0.221-1.702-1.647-4.861-3.537-5.21c-1.362-0.251-2.514,0.815-2.623,2.139c-0.11,1.352,0.87,2.706,1.826,3.56
			c1.078,0.963,4.071,1.896,4.309,1.969c-0.534,1.668-0.945,3.422-1.264,5.221c-0.183,1.028-0.336,2.07-0.476,3.116
			c-0.007-0.487-0.017-0.923-0.025-0.983c-0.221-1.702-1.647-4.861-3.537-5.21c-1.362-0.252-2.515,0.815-2.623,2.139
			c-0.111,1.352,0.87,2.706,1.825,3.559c0.97,0.866,3.506,1.713,4.179,1.928c-0.049,0.402-0.103,0.803-0.151,1.205
			c-0.231,1.929-0.452,3.854-0.727,5.737c-0.096,0.663-0.216,1.313-0.334,1.963c-0.007-0.432-0.016-0.797-0.023-0.852
			c-0.221-1.702-1.647-4.861-3.537-5.21c-1.362-0.251-2.515,0.815-2.624,2.139c-0.111,1.352,0.87,2.706,1.826,3.559
			c0.925,0.827,3.259,1.629,4.059,1.888c-0.14,0.663-0.28,1.326-0.445,1.962c-0.123,0.432-0.212,0.855-0.359,1.282
			c-0.137,0.425-0.273,0.846-0.408,1.263c-0.289,0.794-0.582,1.614-0.883,2.381c-0.206,0.535-0.411,1.041-0.617,1.551
			c0.104-0.659,0.28-1.954,0.283-2.064c0.026-1.14-0.378-2.993-1.184-4.296c0.005-0.168-0.005-0.336-0.031-0.503
			c-0.211-1.312-1.443-2.286-2.781-1.929c-1.857,0.494-3.035,3.754-3.123,5.468c-0.005,0.101,0.061,1.204,0.114,1.9
			c-0.094-0.404-0.18-0.797-0.281-1.212c-0.195-0.821-0.413-1.635-0.645-2.512c-0.127-0.419-0.255-0.843-0.385-1.271
			c-0.119-0.427-0.299-0.863-0.449-1.299c-0.367-1.004-0.788-2.004-1.235-3.002c0.719-0.172,3.263-0.821,4.284-1.605
			c1.017-0.78,2.095-2.057,2.086-3.413c-0.01-1.329-1.079-2.478-2.456-2.329c-1.911,0.207-3.569,3.251-3.916,4.932
			c-0.022,0.105-0.135,1.339-0.184,2.018c-0.273-0.598-0.543-1.196-0.839-1.792c-0.854-1.72-1.771-3.434-2.68-5.148
			c-0.279-0.525-0.55-1.051-0.823-1.577c0.257-0.059,3.297-0.764,4.441-1.642c1.017-0.78,2.095-2.057,2.086-3.414
			c-0.01-1.328-1.08-2.478-2.456-2.328c-1.911,0.207-3.569,3.251-3.916,4.932c-0.026,0.127-0.186,1.902-0.205,2.356
			c-0.602-1.158-1.191-2.318-1.725-3.486c-0.739-1.609-1.375-3.229-1.876-4.844c0.12-0.027,3.296-0.749,4.468-1.648
			c1.017-0.78,2.096-2.057,2.086-3.414c-0.009-1.328-1.08-2.478-2.456-2.328c-1.911,0.207-3.569,3.251-3.915,4.932
			c-0.027,0.132-0.199,2.043-0.205,2.391c-0.03-0.096-0.071-0.192-0.099-0.288c-0.512-1.731-0.791-3.472-0.972-5.115
			c-0.107-0.954-0.156-1.872-0.184-2.767c0.605-0.074,3.369-0.442,4.513-1.134c1.097-0.664,2.309-1.814,2.448-3.164
			c0.136-1.322-0.801-2.582-2.186-2.584c-1.922-0.004-3.904,2.84-4.434,4.472c-0.029,0.089-0.222,1.024-0.352,1.707
			c-0.006-0.404-0.021-0.821-0.019-1.208c0.003-1.453,0.095-2.784,0.186-3.962c0.057-0.67,0.122-1.274,0.189-1.838
			c0.556-0.383,2.779-1.952,3.463-3.073c0.667-1.095,1.213-2.674,0.715-3.936c-0.488-1.236-1.901-1.922-3.131-1.286
			c-1.707,0.883-2.156,4.319-1.874,6.012c0.025,0.146,0.67,2.39,0.699,2.371c0,0,0.027-0.019,0.033-0.023
			c-0.075,0.542-0.149,1.124-0.217,1.761c-0.117,1.178-0.238,2.51-0.272,3.97c-0.038,1.458-0.038,3.043,0.112,4.712
			c0.149,1.673,0.39,3.427,0.873,5.2c0.005,0.02,0.014,0.04,0.019,0.06c-0.302-0.475-1.192-1.775-1.272-1.867
			c-1.123-1.298-4.055-3.146-5.824-2.395c-1.274,0.542-1.648,2.067-1.008,3.231C355.534,415.869,357.098,416.456,358.366,416.641z"
			/>
		<path style="fill:#828282;" d="M391.323,407.612c0.03,0.019,0.613-2.242,0.634-2.389c0.236-1.7-0.305-5.123-2.036-5.959
			c-1.246-0.602-2.64,0.122-3.094,1.371c-0.464,1.275,0.124,2.839,0.821,3.915C388.465,405.813,391.32,407.611,391.323,407.612z"/>
	</g>
	<g>
		<path style="fill:#828282;" d="M414.344,422.977c0.875,0.382,3.016,0.334,3.018,0.334c0.022,0-0.46-1.402-0.501-1.487
			c-0.47-0.983-1.955-2.605-3.164-2.442c-0.871,0.118-1.355,0.989-1.159,1.809C412.74,422.029,413.599,422.651,414.344,422.977z"/>
		<path style="fill:#828282;" d="M415.083,429.179c0.908,0.132,2.819-0.422,2.971-0.466c0.302,1.07,0.698,2.143,1.159,3.207
			c0.263,0.609,0.547,1.213,0.839,1.816c-0.174-0.255-0.332-0.482-0.358-0.512c-0.713-0.824-2.574-1.996-3.697-1.52
			c-0.809,0.343-1.046,1.312-0.64,2.051c0.414,0.755,1.408,1.128,2.213,1.245c0.817,0.119,2.455-0.321,2.888-0.443
			c0.114,0.23,0.226,0.461,0.341,0.69c0.553,1.102,1.11,2.199,1.624,3.292c0.181,0.385,0.345,0.771,0.511,1.156
			c-0.155-0.227-0.288-0.416-0.311-0.443c-0.713-0.824-2.574-1.996-3.697-1.52c-0.809,0.344-1.046,1.312-0.64,2.051
			c0.415,0.755,1.408,1.128,2.213,1.245c0.78,0.114,2.296-0.279,2.81-0.421c0.158,0.4,0.316,0.8,0.451,1.194
			c0.086,0.272,0.188,0.527,0.259,0.804c0.076,0.273,0.152,0.544,0.226,0.812c0.125,0.521,0.257,1.058,0.366,1.57
			c0.079,0.355,0.147,0.695,0.217,1.037c-0.176-0.385-0.536-1.133-0.573-1.191c-0.579-0.922-2.242-2.363-3.424-2.062
			c-0.852,0.217-1.232,1.138-0.943,1.93c0.296,0.809,1.22,1.328,1.998,1.566c0.857,0.262,2.753,0.022,2.99-0.009
			c0.114,0.566,0.219,1.119,0.31,1.642c0.203,1.154,0.357,2.188,0.473,3.063h0.8c-0.139-0.905-0.322-1.984-0.563-3.195
			c-0.113-0.576-0.245-1.189-0.387-1.817c0.142-0.057,0.951-0.384,1.668-0.784c0.624,0.676,2.224,1.467,2.431,1.568
			c-0.218,0.535-0.435,1.054-0.647,1.54c-0.442,1.018-0.862,1.921-1.233,2.689h0.865c0.319-0.708,0.669-1.514,1.035-2.408
			c0.223-0.543,0.451-1.127,0.68-1.729c0.229,0.048,2.107,0.429,2.982,0.232c0.793-0.179,1.755-0.628,2.11-1.413
			c0.348-0.768,0.036-1.715-0.797-1.995c-1.156-0.389-2.921,0.925-3.568,1.801c-0.038,0.052-0.389,0.659-0.605,1.046
			c0.092-0.247,0.184-0.485,0.276-0.74c0.185-0.503,0.354-1.01,0.538-1.556c0.08-0.267,0.16-0.536,0.242-0.807
			c0.086-0.268,0.143-0.562,0.217-0.845c0.157-0.66,0.284-1.337,0.398-2.021c0.441,0.16,2.014,0.708,2.83,0.651
			c0.812-0.057,1.829-0.355,2.299-1.077c0.46-0.706,0.296-1.69-0.485-2.093c-1.084-0.559-3.028,0.472-3.8,1.24
			c-0.048,0.048-0.54,0.661-0.804,1.004c0.065-0.412,0.131-0.823,0.183-1.242c0.15-1.209,0.264-2.438,0.384-3.664
			c0.036-0.375,0.077-0.749,0.116-1.123c0.156,0.059,2.013,0.75,2.926,0.686c0.811-0.057,1.829-0.355,2.299-1.077
			c0.46-0.706,0.296-1.69-0.485-2.093c-1.084-0.559-3.027,0.472-3.799,1.24c-0.058,0.058-0.765,0.942-0.934,1.176
			c0.087-0.824,0.181-1.644,0.307-2.449c0.172-1.111,0.403-2.191,0.703-3.221c0.073,0.028,2.007,0.758,2.942,0.692
			c0.812-0.057,1.83-0.355,2.3-1.077c0.46-0.706,0.296-1.69-0.485-2.093c-1.084-0.559-3.027,0.472-3.8,1.24
			c-0.06,0.06-0.82,1.012-0.946,1.194c0.018-0.061,0.03-0.127,0.049-0.187c0.335-1.096,0.797-2.115,1.276-3.048
			c0.277-0.543,0.573-1.046,0.871-1.529c0.346,0.173,1.938,0.946,2.786,0.98c0.813,0.033,1.858-0.152,2.404-0.818
			c0.535-0.652,0.48-1.647-0.252-2.133c-1.016-0.675-3.061,0.136-3.913,0.815c-0.046,0.037-0.475,0.464-0.784,0.78
			c0.138-0.216,0.276-0.442,0.413-0.646c0.51-0.768,1.025-1.441,1.486-2.032c0.265-0.334,0.51-0.632,0.743-0.907
			c0.428-0.008,2.154-0.06,2.909-0.414c0.736-0.346,1.579-0.991,1.757-1.833c0.174-0.825-0.333-1.683-1.207-1.777
			c-1.213-0.131-2.654,1.531-3.097,2.526c-0.038,0.086-0.483,1.5-0.46,1.5c0,0,0.021,0,0.026,0c-0.23,0.261-0.473,0.543-0.732,0.856
			c-0.474,0.583-1.005,1.246-1.534,2.006c-0.531,0.759-1.086,1.598-1.591,2.534c-0.507,0.938-0.993,1.951-1.359,3.059
			c-0.004,0.012-0.007,0.026-0.011,0.039c0.006-0.357-0.009-1.357-0.02-1.434c-0.14-1.08-1.045-3.085-2.245-3.307
			c-0.864-0.16-1.596,0.517-1.665,1.358c-0.07,0.858,0.552,1.717,1.159,2.259c0.684,0.611,2.584,1.203,2.735,1.25
			c-0.339,1.058-0.6,2.172-0.802,3.314c-0.117,0.653-0.214,1.314-0.302,1.977c-0.004-0.309-0.011-0.586-0.016-0.624
			c-0.14-1.08-1.045-3.085-2.245-3.307c-0.864-0.16-1.596,0.517-1.665,1.358c-0.07,0.858,0.552,1.717,1.159,2.259
			c0.616,0.55,2.225,1.087,2.653,1.224c-0.031,0.255-0.066,0.509-0.096,0.765c-0.146,1.224-0.287,2.446-0.462,3.641
			c-0.061,0.421-0.137,0.833-0.212,1.246c-0.004-0.275-0.01-0.506-0.015-0.541c-0.14-1.08-1.045-3.085-2.245-3.307
			c-0.864-0.16-1.596,0.517-1.665,1.358c-0.07,0.858,0.552,1.717,1.159,2.259c0.587,0.525,2.068,1.034,2.576,1.199
			c-0.089,0.42-0.177,0.842-0.283,1.245c-0.078,0.274-0.134,0.543-0.228,0.814c-0.087,0.27-0.173,0.537-0.259,0.802
			c-0.183,0.504-0.369,1.025-0.56,1.511c-0.13,0.34-0.261,0.661-0.391,0.985c0.066-0.418,0.178-1.24,0.179-1.31
			c0.017-0.724-0.24-1.9-0.752-2.727c0.003-0.107-0.003-0.213-0.02-0.319c-0.134-0.833-0.916-1.451-1.765-1.225
			c-1.179,0.314-1.926,2.383-1.982,3.47c-0.003,0.064,0.039,0.764,0.073,1.206c-0.06-0.256-0.114-0.506-0.178-0.769
			c-0.124-0.521-0.262-1.038-0.409-1.594c-0.081-0.266-0.162-0.535-0.244-0.807c-0.076-0.271-0.19-0.547-0.285-0.824
			c-0.233-0.637-0.5-1.272-0.784-1.905c0.456-0.109,2.071-0.521,2.719-1.018c0.646-0.495,1.33-1.306,1.324-2.167
			c-0.006-0.843-0.685-1.573-1.559-1.478c-1.213,0.132-2.265,2.064-2.485,3.13c-0.014,0.067-0.086,0.85-0.117,1.281
			c-0.173-0.379-0.344-0.759-0.532-1.137c-0.542-1.092-1.124-2.18-1.701-3.268c-0.177-0.333-0.349-0.667-0.523-1.001
			c0.163-0.037,2.093-0.485,2.819-1.042c0.645-0.495,1.33-1.305,1.324-2.167c-0.006-0.843-0.685-1.573-1.559-1.478
			c-1.213,0.132-2.265,2.063-2.485,3.13c-0.017,0.08-0.118,1.207-0.13,1.495c-0.382-0.735-0.756-1.471-1.095-2.212
			c-0.469-1.021-0.873-2.05-1.191-3.075c0.076-0.017,2.092-0.475,2.836-1.046c0.646-0.495,1.33-1.305,1.324-2.167
			c-0.006-0.843-0.685-1.573-1.559-1.478c-1.213,0.132-2.265,2.063-2.485,3.13c-0.017,0.084-0.126,1.297-0.13,1.518
			c-0.019-0.061-0.045-0.122-0.063-0.183c-0.325-1.099-0.502-2.204-0.617-3.247c-0.068-0.606-0.099-1.189-0.117-1.756
			c0.384-0.047,2.138-0.28,2.864-0.72c0.696-0.422,1.466-1.152,1.554-2.008c0.087-0.839-0.509-1.639-1.387-1.64
			c-1.22-0.002-2.478,1.802-2.814,2.839c-0.018,0.056-0.141,0.65-0.223,1.083c-0.004-0.256-0.013-0.521-0.012-0.767
			c0.002-0.922,0.06-1.767,0.118-2.514c0.036-0.425,0.077-0.808,0.12-1.167c0.353-0.243,1.764-1.239,2.198-1.95
			c0.423-0.695,0.77-1.697,0.454-2.498c-0.31-0.784-1.206-1.22-1.987-0.816c-1.084,0.56-1.369,2.742-1.19,3.816
			c0.016,0.093,0.425,1.517,0.443,1.505c0,0,0.017-0.012,0.021-0.015c-0.048,0.344-0.095,0.714-0.138,1.118
			c-0.074,0.748-0.151,1.593-0.173,2.519c-0.024,0.925-0.024,1.931,0.071,2.991c0.094,1.062,0.248,2.175,0.554,3.301
			c0.003,0.013,0.009,0.026,0.012,0.038c-0.192-0.302-0.757-1.126-0.807-1.185c-0.713-0.824-2.574-1.996-3.697-1.52
			c-0.809,0.344-1.046,1.312-0.64,2.051C413.285,428.689,414.278,429.062,415.083,429.179z"/>
		<path style="fill:#828282;" d="M436,423.448c0.019,0.012,0.389-1.423,0.403-1.516c0.15-1.079-0.194-3.252-1.292-3.782
			c-0.791-0.382-1.676,0.077-1.964,0.87c-0.294,0.809,0.079,1.802,0.521,2.485C434.187,422.306,435.999,423.447,436,423.448z"/>
	</g>
	<g>
		<path style="fill:#828282;" d="M73.448,421.47c0.875,0.382,3.016,0.334,3.018,0.334c0.022-0.001-0.46-1.402-0.501-1.487
			c-0.47-0.983-1.955-2.605-3.164-2.442c-0.871,0.118-1.355,0.989-1.159,1.809C71.843,420.522,72.702,421.144,73.448,421.47z"/>
		<path style="fill:#828282;" d="M74.187,427.672c0.908,0.132,2.819-0.422,2.971-0.466c0.302,1.07,0.698,2.143,1.159,3.207
			c0.263,0.608,0.547,1.213,0.839,1.816c-0.174-0.255-0.332-0.482-0.357-0.512c-0.713-0.824-2.574-1.996-3.697-1.52
			c-0.809,0.343-1.046,1.312-0.64,2.051c0.415,0.755,1.408,1.128,2.213,1.245c0.817,0.119,2.455-0.32,2.888-0.443
			c0.114,0.23,0.226,0.461,0.341,0.691c0.553,1.102,1.11,2.199,1.623,3.292c0.181,0.385,0.345,0.771,0.511,1.156
			c-0.155-0.227-0.287-0.416-0.311-0.443c-0.713-0.824-2.574-1.996-3.697-1.52c-0.809,0.343-1.046,1.312-0.64,2.051
			c0.415,0.755,1.408,1.128,2.213,1.245c0.78,0.114,2.296-0.279,2.81-0.421c0.158,0.4,0.317,0.8,0.451,1.195
			c0.086,0.272,0.188,0.527,0.259,0.804c0.076,0.273,0.152,0.544,0.226,0.812c0.125,0.521,0.257,1.058,0.366,1.57
			c0.079,0.355,0.147,0.695,0.217,1.037c-0.176-0.385-0.536-1.133-0.573-1.192c-0.579-0.922-2.242-2.363-3.424-2.062
			c-0.852,0.217-1.232,1.138-0.943,1.93c0.296,0.809,1.22,1.328,1.998,1.566c0.857,0.262,2.753,0.023,2.99-0.009
			c0.114,0.567,0.219,1.119,0.31,1.642c0.203,1.153,0.357,2.188,0.473,3.063h0.8c-0.139-0.905-0.322-1.984-0.563-3.195
			c-0.113-0.576-0.245-1.189-0.387-1.817c0.143-0.057,0.951-0.384,1.668-0.784c0.624,0.676,2.224,1.467,2.431,1.568
			c-0.218,0.535-0.435,1.054-0.647,1.54c-0.442,1.018-0.863,1.921-1.233,2.689h0.864c0.319-0.708,0.67-1.514,1.035-2.408
			c0.223-0.543,0.451-1.127,0.68-1.729c0.229,0.048,2.107,0.429,2.982,0.232c0.793-0.179,1.755-0.628,2.11-1.413
			c0.348-0.768,0.036-1.715-0.797-1.995c-1.156-0.388-2.921,0.925-3.568,1.801c-0.038,0.052-0.39,0.659-0.605,1.046
			c0.092-0.246,0.184-0.485,0.276-0.74c0.185-0.503,0.354-1.01,0.538-1.556c0.08-0.266,0.16-0.536,0.242-0.807
			c0.086-0.268,0.143-0.562,0.217-0.845c0.157-0.66,0.285-1.337,0.398-2.021c0.441,0.16,2.015,0.708,2.83,0.65
			c0.812-0.057,1.829-0.355,2.299-1.077c0.46-0.706,0.296-1.69-0.485-2.093c-1.084-0.559-3.028,0.472-3.8,1.24
			c-0.048,0.048-0.54,0.661-0.804,1.004c0.065-0.412,0.131-0.823,0.183-1.242c0.15-1.209,0.264-2.438,0.384-3.664
			c0.036-0.375,0.077-0.749,0.117-1.123c0.156,0.059,2.013,0.75,2.926,0.686c0.812-0.057,1.829-0.355,2.299-1.077
			c0.46-0.706,0.296-1.69-0.485-2.093c-1.084-0.559-3.028,0.471-3.8,1.24c-0.058,0.058-0.765,0.942-0.934,1.176
			c0.087-0.824,0.181-1.644,0.307-2.449c0.172-1.111,0.403-2.191,0.703-3.221c0.073,0.028,2.007,0.758,2.942,0.692
			c0.812-0.057,1.83-0.355,2.299-1.077c0.46-0.707,0.296-1.69-0.485-2.093c-1.084-0.559-3.027,0.472-3.8,1.24
			c-0.06,0.06-0.82,1.012-0.946,1.194c0.018-0.061,0.03-0.127,0.049-0.188c0.335-1.096,0.797-2.115,1.276-3.048
			c0.278-0.543,0.573-1.046,0.871-1.529c0.346,0.173,1.938,0.946,2.786,0.98c0.813,0.033,1.857-0.152,2.404-0.818
			c0.535-0.652,0.48-1.647-0.252-2.133c-1.016-0.675-3.061,0.136-3.913,0.815c-0.046,0.037-0.476,0.464-0.784,0.78
			c0.138-0.216,0.276-0.442,0.413-0.646c0.51-0.768,1.025-1.441,1.485-2.033c0.265-0.334,0.51-0.631,0.744-0.907
			c0.428-0.008,2.154-0.06,2.909-0.414c0.736-0.346,1.578-0.991,1.757-1.833c0.174-0.825-0.334-1.683-1.207-1.777
			c-1.213-0.131-2.654,1.531-3.097,2.527c-0.038,0.086-0.482,1.5-0.46,1.499c0,0,0.021,0,0.026,0
			c-0.23,0.261-0.473,0.543-0.732,0.856c-0.475,0.583-1.005,1.246-1.534,2.006c-0.531,0.758-1.086,1.598-1.591,2.534
			c-0.507,0.938-0.993,1.951-1.359,3.059c-0.004,0.012-0.007,0.026-0.011,0.039c0.006-0.357-0.009-1.357-0.02-1.434
			c-0.14-1.08-1.045-3.085-2.245-3.307c-0.864-0.16-1.596,0.517-1.665,1.358c-0.07,0.858,0.552,1.717,1.159,2.259
			c0.684,0.611,2.584,1.203,2.735,1.25c-0.339,1.058-0.6,2.172-0.803,3.314c-0.116,0.653-0.213,1.313-0.302,1.977
			c-0.004-0.309-0.011-0.586-0.016-0.624c-0.14-1.08-1.045-3.085-2.245-3.307c-0.864-0.16-1.596,0.517-1.665,1.358
			c-0.07,0.858,0.552,1.717,1.159,2.259c0.616,0.55,2.225,1.087,2.653,1.224c-0.031,0.255-0.066,0.509-0.096,0.765
			c-0.146,1.224-0.287,2.446-0.462,3.641c-0.061,0.421-0.137,0.833-0.212,1.246c-0.004-0.274-0.01-0.506-0.015-0.541
			c-0.14-1.08-1.045-3.085-2.245-3.307c-0.864-0.16-1.596,0.517-1.665,1.358c-0.07,0.858,0.552,1.717,1.159,2.259
			c0.587,0.525,2.068,1.034,2.576,1.199c-0.089,0.421-0.177,0.842-0.283,1.245c-0.078,0.274-0.134,0.543-0.228,0.814
			c-0.087,0.27-0.173,0.537-0.259,0.802c-0.183,0.504-0.369,1.024-0.56,1.511c-0.13,0.34-0.261,0.661-0.391,0.985
			c0.066-0.418,0.178-1.24,0.179-1.31c0.017-0.724-0.24-1.9-0.752-2.727c0.003-0.107-0.003-0.213-0.02-0.319
			c-0.134-0.833-0.916-1.451-1.765-1.225c-1.179,0.314-1.926,2.383-1.982,3.471c-0.003,0.064,0.039,0.764,0.072,1.206
			c-0.059-0.257-0.114-0.506-0.178-0.769c-0.124-0.521-0.262-1.038-0.409-1.595c-0.08-0.266-0.162-0.535-0.244-0.806
			c-0.076-0.271-0.19-0.548-0.285-0.824c-0.233-0.637-0.5-1.272-0.784-1.905c0.456-0.109,2.071-0.521,2.719-1.019
			c0.646-0.495,1.33-1.305,1.324-2.166c-0.006-0.843-0.685-1.573-1.559-1.478c-1.213,0.132-2.265,2.063-2.485,3.13
			c-0.014,0.067-0.086,0.85-0.117,1.281c-0.173-0.379-0.345-0.759-0.532-1.137c-0.542-1.092-1.124-2.18-1.701-3.268
			c-0.177-0.333-0.349-0.667-0.522-1.001c0.163-0.037,2.093-0.485,2.819-1.042c0.645-0.495,1.33-1.306,1.324-2.167
			c-0.006-0.843-0.685-1.573-1.559-1.478c-1.213,0.132-2.265,2.063-2.485,3.13c-0.017,0.081-0.118,1.207-0.13,1.495
			c-0.382-0.735-0.756-1.471-1.095-2.212c-0.469-1.021-0.873-2.05-1.191-3.075c0.076-0.017,2.092-0.476,2.836-1.046
			c0.646-0.495,1.33-1.305,1.324-2.167c-0.006-0.843-0.685-1.573-1.559-1.478c-1.213,0.132-2.265,2.063-2.485,3.13
			c-0.017,0.084-0.126,1.297-0.13,1.517c-0.019-0.061-0.045-0.122-0.063-0.183c-0.325-1.099-0.502-2.204-0.617-3.247
			c-0.068-0.606-0.099-1.188-0.117-1.756c0.384-0.047,2.138-0.28,2.864-0.72c0.696-0.421,1.465-1.152,1.554-2.008
			c0.087-0.839-0.509-1.639-1.387-1.64c-1.22-0.002-2.478,1.802-2.814,2.838c-0.018,0.056-0.141,0.65-0.224,1.083
			c-0.004-0.256-0.013-0.521-0.012-0.767c0.002-0.922,0.06-1.767,0.118-2.515c0.036-0.425,0.078-0.808,0.12-1.167
			c0.353-0.243,1.764-1.239,2.198-1.95c0.424-0.695,0.77-1.697,0.454-2.498c-0.31-0.784-1.206-1.22-1.987-0.817
			c-1.084,0.56-1.369,2.742-1.19,3.816c0.016,0.093,0.425,1.517,0.443,1.505c0,0,0.017-0.012,0.021-0.015
			c-0.048,0.344-0.095,0.714-0.138,1.118c-0.074,0.748-0.151,1.593-0.173,2.519c-0.024,0.925-0.024,1.931,0.071,2.991
			c0.094,1.062,0.248,2.175,0.554,3.301c0.004,0.013,0.009,0.026,0.012,0.038c-0.192-0.302-0.757-1.126-0.807-1.185
			c-0.713-0.824-2.574-1.996-3.697-1.52c-0.809,0.344-1.046,1.312-0.64,2.051C72.389,427.182,73.382,427.555,74.187,427.672z"/>
		<path style="fill:#828282;" d="M95.104,421.941c0.019,0.012,0.389-1.423,0.403-1.516c0.15-1.079-0.194-3.252-1.292-3.782
			c-0.791-0.382-1.676,0.078-1.964,0.87c-0.294,0.809,0.079,1.802,0.521,2.485C93.29,420.799,95.103,421.94,95.104,421.941z"/>
	</g>
</g>
<g id="Characters">
	<g>
		<g>
			<g>
				<path style="fill:#FFFFFF;stroke:#263238;stroke-linecap:round;stroke-linejoin:round;stroke-miterlimit:10;" d="
					M296.173,439.286c-0.468-0.125-0.96,0.057-1.248,0.447c-1.416,1.919-5.619,7.39-8.92,9.407
					c-4.033,2.465-10.531,4.481-10.979,6.498c-0.448,2.017,1.12,3.585,2.689,3.585c1.568,0,7.618,1.12,15.461,0.448
					c7.842-0.672,11.652-2.913,16.357-2.017c4.706,0.896,8.515,1.12,10.307-2.017c1.46-2.556,0.839-11.655,0.558-14.94
					c-0.056-0.659-0.633-1.144-1.292-1.089C315.124,439.944,302.11,440.87,296.173,439.286z"/>
				<path style="fill:#FFFFFF;stroke:#263238;stroke-linecap:round;stroke-linejoin:round;stroke-miterlimit:10;" d="
					M309.533,457.655c4.706,0.896,8.515,1.12,10.307-2.017c0.173-0.303,0.317-0.698,0.436-1.165
					c0.225-0.885-0.619-1.681-1.495-1.422c-3.199,0.944-8.163,1.467-12.609,1.467c-5.826,0-6.722,0.672-17.254,2.465
					c-6.294,1.071-11.052,0.621-13.874,0.086c0.333,1.281,1.501,2.155,2.671,2.155c1.568,0,7.618,1.12,15.461,0.448
					C301.018,458.999,304.827,456.759,309.533,457.655z"/>
			</g>
			<g>
				<g>
					<path style="fill:#FFFFFF;stroke:#263238;stroke-linecap:round;stroke-linejoin:round;stroke-miterlimit:10;" d="
						M321.249,439.762c-0.554-0.154-1.134,0.102-1.392,0.616c-1.246,2.48-4.966,9.555-8.084,12.123
						c-3.809,3.137-10.755,4.706-10.98,7.843c-0.224,3.137,3.137,3.585,4.706,3.585c1.568,0,11.876,1.569,17.702,0
						c5.826-1.569,9.635-0.896,12.548-1.569c2.913-0.672,8.739-0.672,10.083-2.689c1.11-1.665,0.082-10.045-0.31-12.922
						c-0.077-0.563-0.536-0.99-1.103-1.028c-2.601-0.177-9.83-0.816-13.824-2.631C326.929,441.424,323.015,440.253,321.249,439.762z
						"/>
				</g>
				<path style="fill:#FFFFFF;stroke:#263238;stroke-linecap:round;stroke-linejoin:round;stroke-miterlimit:10;" d="
					M345.832,459.672c0.454-0.681,0.547-2.493,0.476-4.587c-1.193,0.172-2.613,0.523-4.32,1.168
					c-7.522,2.841-16.214,5.683-27.245,5.516c-7.379-0.112-11.754-1.194-13.85-1.899c-0.047,0.155-0.087,0.311-0.098,0.474
					c-0.224,3.137,3.137,3.585,4.706,3.585c1.569,0,11.876,1.568,17.702,0c5.826-1.569,9.635-0.896,12.548-1.569
					C338.662,461.688,344.488,461.688,345.832,459.672z"/>
			</g>
			<path style="fill:#263238;stroke:#263238;stroke-linecap:round;stroke-linejoin:round;stroke-miterlimit:10;" d="M284.66,290.622
				c0,0-1.568,52.209,1.12,67.446c2.689,15.237,5.602,50.963,6.498,55.22c0.708,3.363,2.255,10.501,2.874,13.352
				c0.134,0.619-0.241,1.215-0.846,1.404c-0.979,0.306-2.252,1.102-2.252,3.17c0,2.806,0.468,7.484,0.623,8.954
				c0.036,0.341,0.215,0.645,0.492,0.847c0.788,0.576,2.894,1.791,8.296,3.643c7.043,2.415,12.821,0.854,13.926,0.51
				c0.124-0.038,0.228-0.091,0.333-0.166c0.681-0.491,3.629-2.531,5.011-2.137c1.568,0.448,7.394,3.809,13.892,5.154
				c6.498,1.344,10.755,1.344,10.98,0.224c0.224-1.12,1.569-6.946,1.12-12.772c-0.448-5.826-0.672-4.481-1.12-9.411
				c-0.448-4.93,2.017-37.742,0.224-50.514c-1.793-12.772-4.257-14.789-4.706-23.752c-0.448-8.963,2.913-62.292,2.913-62.292
				s-22.183,3.809-30.922,1.793c-8.739-2.017-12.548-6.722-18.374-7.394S284.66,290.622,284.66,290.622z"/>
			<path style="fill:#92E3A9;stroke:#263238;stroke-linecap:round;stroke-linejoin:round;stroke-miterlimit:10;" d="M291.29,173.681
				c0,0-9.036,1.883-11.295,5.836c-2.259,3.953-6.212,22.967-6.212,22.967l-9.977,21.649l13.366,17.508l4.518-5.083l2.447,32.191
				l-3.012,22.402l6.777,4.518l4.706-8.471l1.883,9.413c0,0,12.237,5.459,27.862,3.389c15.625-2.071,25.414-9.601,25.414-9.601
				s0.376-25.602,0.565-26.167c0.188-0.565,1.883-28.803,1.883-28.803s-6.965-50.264-8.095-54.97
				c-1.13-4.706-0.377-5.459-4.142-6.965c-3.765-1.506-19.983-6.969-19.983-6.969s-12.02-0.75-15.032,0.192
				C299.95,167.657,291.29,173.681,291.29,173.681z"/>
			<path style="fill:#92E3A9;stroke:#263238;stroke-linecap:round;stroke-linejoin:round;stroke-miterlimit:10;" d="M258.74,228.57
				c0,0,0.861-1.968,2.214-2.706c1.353-0.738,1.107-6.273,6.15-4.797s12.423,15.744,12.669,18.081
				c0.246,2.337-1.353,3.567-2.091,4.551c-0.738,0.984-2.091,3.69-4.059,5.781c-1.968,2.091-2.46,4.305-4.92,3.075
				c-2.46-1.23-4.551-6.888-7.257-14.022C258.74,231.399,258.74,228.57,258.74,228.57z"/>
			<path style="fill:#92E3A9;stroke:#263238;stroke-linecap:round;stroke-linejoin:round;stroke-miterlimit:10;" d="M285.27,178.617
				c0,0-1.281,7.683-0.285,7.541c0.996-0.142,4.837-2.988,4.98-3.841S285.27,178.617,285.27,178.617z"/>
			<path style="fill:#92E3A9;stroke:#263238;stroke-linecap:round;stroke-linejoin:round;stroke-miterlimit:10;" d="
				M290.108,172.642c0,0-5.264,5.264-4.837,5.976c0.427,0.711,8.252,8.537,8.252,8.537s1.423-7.114,0.854-10.244
				C293.807,173.78,290.108,172.642,290.108,172.642z"/>
			<g>
				<path style="fill:#FFFFFF;stroke:#263238;stroke-linecap:round;stroke-linejoin:round;stroke-miterlimit:10;" d="
					M279.579,125.547c0,0-4.268,9.817-3.984,11.809c0.285,1.992,1.423,5.691,0.996,6.687c-0.427,0.996-5.691,5.122-5.549,6.118
					c0.142,0.996,3.13,3.984,3.13,3.984s2.276,12.663,3.272,14.512c0.996,1.85,7.968-0.285,7.968-0.285s4.695,5.264,4.837,6.545
					c0.142,1.28,3.557,18.069,4.126,16.362c0.569-1.707,6.687-14.086,6.687-14.086s12.236-12.094,11.952-12.805
					c-0.285-0.711-5.549-8.537-5.549-9.675c0-1.138,8.394-13.943,8.11-18.638c-0.285-4.695-3.699-13.09-8.964-16.078
					c-5.264-2.988-12.663-5.833-20.488-3.842C278.298,118.149,277.872,121.279,279.579,125.547z"/>
				<polygon style="fill:#263238;stroke:#263238;stroke-linecap:round;stroke-linejoin:round;stroke-miterlimit:10;" points="
					285.412,168.373 290.25,174.918 292.167,165.125 				"/>
				<path style="fill:#808080;stroke:#263238;stroke-linecap:round;stroke-linejoin:round;stroke-miterlimit:10;" d="
					M294.376,163.963c0.854-1.565,1.707-22.907,2.419-24.045c0.711-1.138,3.841-0.427,4.695,2.988
					c0.854,3.415-2.561,7.825-2.561,8.252c0,0.427,2.276,3.13,4.268,3.841c1.212,0.433,3.052,0.181,4.31-0.083
					c-0.019-0.074-0.041-0.152-0.041-0.202c0-0.946,5.797-9.952,7.591-15.662c-2.256-1.964-6.475-4.942-12.002-8.383
					c-7.541-4.695-11.24-2.988-11.24-2.988s-5.407,4.695-4.268,6.403c1.138,1.707,5.549,5.264,5.549,5.264s-1.28,14.512-1.85,15.366
					c-0.569,0.854-1.565,1.423-1.565,1.423s-2.561-4.98-4.553-4.98c-1.992,0-10.956,2.988-10.956,2.988s2.276,12.663,3.272,14.512
					c0.996,1.85,7.967-0.285,7.967-0.285S293.522,165.528,294.376,163.963z"/>
				<path style="fill:#263238;stroke:#263238;stroke-linecap:round;stroke-linejoin:round;stroke-miterlimit:10;" d="
					M306.612,119.998c-5.264-2.988-12.663-5.833-20.488-3.841c-7.825,1.992-8.252,5.122-6.545,9.39c0,0,2.134,1.565,5.691,2.276
					c3.557,0.711,10.671,1.565,19.492,7.968c3.394,2.464,6.487,4.712,9.016,6.552c1.107-2.483,1.887-4.781,1.797-6.267
					C315.291,131.381,311.876,122.986,306.612,119.998z"/>
				<path style="fill:#263238;" d="M281.002,143.901c0,0.864-0.382,1.565-0.854,1.565c-0.471,0-0.854-0.701-0.854-1.565
					c0-0.864,0.382-1.565,0.854-1.565C280.62,142.336,281.002,143.037,281.002,143.901z"/>
				<path style="fill:none;stroke:#263238;stroke-linecap:round;stroke-linejoin:round;stroke-miterlimit:10;" d="M278.014,140.06
					c0,0,1.85-2.846,4.98,0.285"/>
				<path style="fill:none;stroke:#263238;stroke-linecap:round;stroke-linejoin:round;stroke-miterlimit:10;" d="M278.298,156.706
					c0,0,5.122,0.142,6.972-3.272"/>
			</g>
			<path style="fill:#92E3A9;stroke:#263238;stroke-linecap:round;stroke-linejoin:round;stroke-miterlimit:10;" d="
				M296.083,177.764l4.411,8.537c0,0,8.679-8.11,11.24-11.098c2.561-2.988,6.26-8.679,6.26-8.679s-4.268-3.984-5.549-4.411
				c-1.281-0.427-1.565,0.569-2.276,1.423C309.458,164.389,296.083,177.764,296.083,177.764z"/>
			<path style="fill:#FFFFFF;stroke:#263238;stroke-linecap:round;stroke-linejoin:round;stroke-miterlimit:10;" d="
				M341.366,248.041c0,0-6.212,33.321-6.589,35.203c-0.376,1.883-0.565,3.2-1.318,3.577c-0.753,0.376-4.895,1.694-5.459,2.824
				c-0.565,1.13-3.388,9.601-4.33,11.295c-0.941,1.694,1.318,2.071,2.259,1.694c0.941-0.376,1.883-1.506,1.883-1.506
				s-0.941,7.53-0.188,7.718c0.753,0.188,2.071,0,3.2-0.753c1.13-0.753,1.318-1.318,1.883-1.694c0.565-0.376,3.2-0.565,4.33-1.318
				c1.129-0.753,2.447-2.071,3.012-2.259c0.565-0.188,1.882-0.376,2.259-2.636c0.376-2.259,1.129-12.236,1.506-13.178
				c0.377-0.941,15.437-35.203,15.437-35.203L341.366,248.041z"/>
			<path style="fill:#92E3A9;stroke:#263238;stroke-linecap:round;stroke-linejoin:round;stroke-miterlimit:10;" d="
				M336.848,178.199c0,0-10.542,12.425-9.413,20.52c1.13,8.095,12.801,29.744,12.801,29.744s-1.883,5.083-0.941,6.401
				c0.941,1.318,2.071,4.518,2.071,4.518l18.825,4.706c0,0,2.635-1.318,2.259-6.965c-0.377-5.648-2.071-10.542-2.447-11.483
				c-0.377-0.941-10.73-38.968-14.119-44.804c-3.389-5.836-6.212-6.024-6.965-6.024"/>
			<path style="fill:#92E3A9;stroke:#263238;stroke-linecap:round;stroke-linejoin:round;stroke-miterlimit:10;" d="M342.307,237.31
				c0,0,0.376-0.188-0.941,2.071c-1.318,2.259-1.694,9.789-1.129,10.542c0.565,0.753,17.319,5.648,18.825,5.083
				c1.506-0.565,2.447-4.518,3.577-8.471c1.129-3.953,2.259-4.142-1.883-6.589C356.614,237.499,343.625,236.934,342.307,237.31z"/>
			<path style="fill:none;stroke:#FFFFFF;stroke-linecap:round;stroke-linejoin:round;stroke-miterlimit:10;" d="M303.897,323.468
				c2.008,15.305,5.381,40.585,6.308,44.908c1.344,6.274,6.498,21.735,7.618,24.2c1.013,2.229,2.576,35.821,2.866,41.705
				c0.026,0.527-0.299,0.99-0.791,1.18c-0.636,0.244-1.402,0.756-1.402,1.804c0,1.793-0.224,5.602-0.224,5.602"/>
			<path style="fill:none;stroke:#FFFFFF;stroke-linecap:round;stroke-linejoin:round;stroke-miterlimit:10;" d="M302.362,311.685
				c0,0,0.381,2.954,0.977,7.52"/>
			<path style="fill:#FFFFFF;stroke:#263238;stroke-linecap:round;stroke-linejoin:round;stroke-miterlimit:10;" d="
				M239.306,216.762c0,0,6.519,5.166,11.07,7.257c4.551,2.091,7.134,2.583,12.669,8.118c5.535,5.535,9.225,15.498,7.872,17.958
				c-1.353,2.46-3.444,3.198-7.38,1.599c-3.936-1.599-9.225-0.492-15.375-8.61c-6.15-8.118-18.081-19.557-18.081-19.557
				L239.306,216.762z"/>
			<path style="fill:none;stroke:#263238;stroke-linecap:round;stroke-linejoin:round;stroke-miterlimit:10;" d="M279.422,215.047
				c1.327,6.179,2.674,14.503,2.268,21.511"/>
			<path style="fill:none;stroke:#263238;stroke-linecap:round;stroke-linejoin:round;stroke-miterlimit:10;" d="M277.171,206.06
				c0,0,0.462,1.534,1.092,4.029"/>
			<path style="fill:none;stroke:#263238;stroke-linecap:round;stroke-linejoin:round;stroke-miterlimit:10;" d="M293.18,277.081
				c-0.252,2.5-0.454,4.076-0.454,4.076"/>
			<path style="fill:none;stroke:#263238;stroke-linecap:round;stroke-linejoin:round;stroke-miterlimit:10;" d="M294.181,222.789
				c0.137,2.099,0.316,4.05,0.548,5.716c1.431,10.301-0.572,21.461-0.572,31.476c0,4.195-0.251,8.592-0.543,12.284"/>
			<path style="fill:none;stroke:#263238;stroke-linecap:round;stroke-linejoin:round;stroke-miterlimit:10;" d="M293.87,197.029
				c0,0-0.268,9.902,0.021,19.457"/>
		</g>
		<g>
			<g>
				<path style="fill:#FFFFFF;stroke:#263238;stroke-linecap:round;stroke-linejoin:round;stroke-miterlimit:10;" d="
					M190.134,437.799c0,0,11.663,8.694,15.268,10.391c3.605,1.696,10.391,2.969,10.178,5.725c-0.212,2.757-6.15,4.241-15.48,4.029
					c-9.33-0.212-13.359-1.06-19.721-1.696c-6.361-0.636-11.239,2.545-14.419,0c-3.181-2.545,0.424-17.176,0.424-17.176
					L190.134,437.799z"/>
				<path style="fill:#FFFFFF;stroke:#263238;stroke-linecap:round;stroke-linejoin:round;stroke-miterlimit:10;" d="
					M177.623,454.127c-5.979-0.166-11.033-1.37-12.949-1.885c0.089,1.842,0.454,3.34,1.287,4.005c3.181,2.545,8.058-0.636,14.419,0
					c6.362,0.636,10.391,1.484,19.721,1.696c9.33,0.212,15.268-1.272,15.48-4.029c0,0-6.15,1.06-16.116,1.06
					C189.498,454.975,185.257,454.339,177.623,454.127z"/>
			</g>
			<g>
				<path style="fill:#FFFFFF;stroke:#263238;stroke-linecap:round;stroke-linejoin:round;stroke-miterlimit:10;" d="
					M169.141,439.919c0,0,3.181,4.029,10.815,9.33c7.634,5.301,12.723,5.513,13.359,8.058c0.636,2.545,0,5.089-2.333,5.513
					c-2.333,0.424-28.627-0.212-36.261-0.848c-7.634-0.636-12.087-0.424-12.723-2.757c-0.636-2.333-0.212-9.542-0.212-9.542
					s4.241-2.12,11.451-6.998C160.447,437.799,169.141,439.919,169.141,439.919z"/>
				<path style="fill:#FFFFFF;stroke:#263238;stroke-linecap:round;stroke-linejoin:round;stroke-miterlimit:10;" d="
					M184.408,460.276c-7.591,0-33.992-1.763-42.623-2.354c0.052,0.507,0.12,0.956,0.212,1.294c0.636,2.333,5.089,2.121,12.723,2.757
					c7.634,0.636,33.928,1.272,36.261,0.848c1.524-0.277,2.313-1.466,2.506-2.962C191.322,460.081,188.317,460.276,184.408,460.276z
					"/>
			</g>
			<path style="fill:#263238;stroke:#263238;stroke-linecap:round;stroke-linejoin:round;stroke-miterlimit:10;" d="
				M139.029,289.363c0,0-0.848,19.509,2.12,40.926c2.969,21.417,2.12,40.078,2.333,43.683c0.212,3.605-3.605,18.236-4.241,33.928
				c-0.636,15.692,1.272,40.078,1.272,41.35c0,1.272,0.636,3.817,1.908,3.817c1.272,0,12.723-5.938,12.723-5.938l14.207-4.877
				c0,0,5.513,0,11.239-0.848s9.33-2.757,9.542-3.605c0.212-0.848,0.424-3.393-0.848-5.513c-1.272-2.121-2.969,0-1.272-5.938
				c1.696-5.937,9.966-44.531,9.542-59.587c-0.424-15.056,6.574-52.801,6.574-60.859c0-8.058,0.756-17.172,0.756-17.172
				l-0.756-6.366c0,0-16.54,7.846-34.14,7.21c-17.6-0.636-30.747-5.725-30.747-5.725L139.029,289.363z"/>
			<path style="fill:none;stroke:#FFFFFF;stroke-linecap:round;stroke-linejoin:round;stroke-miterlimit:10;" d="M170.068,428.438
				c0.314,5.752,0.769,8.301,0.769,8.301l1.484,4.877"/>
			<path style="fill:none;stroke:#FFFFFF;stroke-linecap:round;stroke-linejoin:round;stroke-miterlimit:10;" d="M188.862,310.144
				l-7.422,5.938c0,0-0.636,28.415-4.665,43.683c-4.029,15.268-6.998,42.622-6.998,56.83c0,1.319,0.009,2.567,0.026,3.745"/>
			<path style="fill:#92E3A9;stroke:#263238;stroke-linecap:round;stroke-linejoin:round;stroke-miterlimit:10;" d="
				M162.561,164.336c0,0-17.572,9.07-21.729,13.037c-4.157,3.968-7.369,16.695-7.18,31.622c0.189,14.927,2.834,32.688,2.834,32.688
				l1.701,49.315c0,0,21.54,6.613,37.034,6.235c15.494-0.378,27.019-5.479,27.019-5.479s2.645-1.134,2.645-3.023
				s-0.567-21.162,0.189-28.342c0.756-7.18-1.512-54.106-4.913-65.632c-3.401-11.526-5.669-14.927-6.991-17.95
				c-1.323-3.023,0.378-2.456-8.88-7.936C175.032,163.391,168.23,162.068,162.561,164.336z"/>
			<path style="fill:#FFFFFF;stroke:#263238;stroke-linecap:round;stroke-linejoin:round;stroke-miterlimit:10;" d="
				M189.581,179.262c0,0,0.189-1.701,1.323-1.512c1.134,0.189,7.369,6.235,6.424,3.968c-0.945-2.267-4.724-9.825-7.558-12.093
				c-2.834-2.267-3.401-1.512-3.401,0.189S189.581,179.262,189.581,179.262z"/>
			<path style="fill:#FFFFFF;stroke:#263238;stroke-linecap:round;stroke-linejoin:round;stroke-miterlimit:10;" d="
				M194.493,160.179l-6.424,9.825c0,0,2.834,16.249,0.756,16.249c-2.078,0-3.59-7.18-4.346-8.125
				c-0.756-0.945-17.95-20.028-17.95-20.028l5.857-16.627c0,0,4.346-1.512,7.369,3.401
				C182.778,149.787,194.493,160.179,194.493,160.179z"/>
			<polygon style="fill:#263238;stroke:#263238;stroke-linecap:round;stroke-linejoin:round;stroke-miterlimit:10;" points="
				180.366,158.023 188.923,168.047 193.079,162.18 179.877,154.6 			"/>
			<path style="fill:#FFFFFF;stroke:#263238;stroke-linecap:round;stroke-linejoin:round;stroke-miterlimit:10;" d="
				M167.285,155.644c0,0,14.927,17.005,16.061,18.328s3.59,3.212,2.645,4.346c-0.945,1.134-8.881,9.447-8.881,9.447
				s-8.314-6.046-12.281-13.415s-4.346-8.503-4.346-8.503S162.75,156.967,167.285,155.644z"/>
			<g>
				<path style="fill:#263238;stroke:#263238;stroke-linecap:round;stroke-linejoin:round;stroke-miterlimit:10;" d="
					M202.184,123.119c0,0,2.867,0,2.509-4.301c-0.358-4.301-4.301-8.244-4.839-7.348c-0.538,0.896,1.255,3.764-1.075,2.33
					c-2.33-1.434-3.584-5.018-6.093-4.66c-2.509,0.358-2.867,2.868-3.405,3.405c-0.538,0.538-10.395-1.971-17.563,0.179
					c-7.169,2.151-11.112,10.036-10.395,13.262c0.717,3.226,4.301,14.337,6.452,17.743c2.151,3.405,2.509,4.301,5.197,5.018
					c2.688,0.717,5.377,2.151,7.348-3.226c1.971-5.377,0.358-5.735,3.405-7.527c3.047-1.792,6.99-2.33,6.631-6.81
					c-0.359-4.48,0.538-5.018,1.971-5.556C193.761,125.09,201.288,124.732,202.184,123.119z"/>
				<g>
					<path style="fill:#FFFFFF;stroke:#263238;stroke-linecap:round;stroke-linejoin:round;stroke-miterlimit:10;" d="
						M202.184,123.119c0,0,5.197,13.262,4.301,14.517c-0.896,1.255-2.33,2.688-2.33,2.688s4.48,7.527,2.868,9.319
						c-1.613,1.792-3.405,2.868-3.405,2.868s-1.971,10.753-4.122,12.008s-3.047,2.688-7.886,0
						c-4.839-2.688-10.574-5.018-12.724-7.169c-2.151-2.151-3.226-7.886-3.226-7.886s-4.839-1.255-6.273-5.735
						c-1.434-4.48,0.896-7.886,3.047-7.348c2.151,0.538,3.405,3.405,4.122,4.839c0.717,1.434,2.867,1.792,3.226,0.717
						c0.358-1.075-2.33-4.301-1.075-6.093c1.254-1.792,6.093-2.151,7.169-4.122c1.075-1.971-2.33-2.867-2.33-2.867
						s2.33-0.896,1.613-1.613c-0.717-0.717-4.66-0.358-3.764-2.509c0.896-2.151,6.452-3.226,11.291-2.509
						C197.525,122.94,202.184,123.119,202.184,123.119z"/>
					<path style="fill:#263238;" d="M199.138,140.861c0,0.99-0.522,1.792-1.165,1.792c-0.643,0-1.165-0.802-1.165-1.792
						c0-0.99,0.522-1.792,1.165-1.792C198.616,139.069,199.138,139.872,199.138,140.861z"/>
					<path style="fill:none;stroke:#263238;stroke-linecap:round;stroke-linejoin:round;stroke-miterlimit:10;" d="M194.478,136.56
						c0,0,2.867-2.151,6.631,0"/>
					<path style="fill:none;stroke:#263238;stroke-linecap:round;stroke-linejoin:round;stroke-miterlimit:10;" d="M198.779,153.407
						c0,0-3.584-0.179-5.018-4.301"/>
				</g>
			</g>
			<g>
				<path style="fill:#92E3A9;stroke:#263238;stroke-linecap:round;stroke-linejoin:round;stroke-miterlimit:10;" d="M141.68,181.49
					c0,0-9.126,15.447-8.028,27.505c1.098,12.057,42.677,54.703,44.01,53.37c1.333-1.333,66.634-47.176,66.634-47.176
					s5.29-2.379,5.749-4.328c0.458-1.949,0-2.751,0-3.898c0-1.146,0.688-2.522,0.458-4.012c-0.229-1.49-1.146-1.834-1.949-2.751
					c-0.803-0.917-0.459-1.376-0.573-3.095c-0.115-1.72-1.261-1.72-2.866-2.637c-1.605-0.917-2.522-1.49-3.21-1.834
					c-0.688-0.344,0.459-0.459-1.605-0.115c-2.063,0.344-4.7,0.802-7.222,0.229c-2.522-0.573-3.21,2.064-3.439,3.439
					c-0.229,1.376-0.344,2.407-0.229,3.21c0.115,0.802,0.229,8.942-0.229,9.744c-0.459,0.803-7.108,7.452-19.03,12.266
					c-11.922,4.815-27.055,11.464-27.055,11.464s-6.764-11.349-8.827-16.049c-2.064-4.7-13.069-21.042-13.413-21.272"/>
				<path style="fill:#FFFFFF;stroke:#263238;stroke-linecap:round;stroke-linejoin:round;stroke-miterlimit:10;" d="
					M250.045,210.861c0.459-1.949,0-2.751,0-3.898c0-1.146,0.688-2.522,0.459-4.012c-0.229-1.49-1.146-1.834-1.949-2.751
					c-0.803-0.917-0.459-1.376-0.573-3.095c-0.115-1.72-1.261-1.72-2.866-2.637c-1.605-0.917-2.522-1.49-3.21-1.834
					c-0.688-0.344,0.459-0.459-1.605-0.115c-2.064,0.344-4.7,0.802-7.222,0.229c-2.522-0.573-3.21,2.064-3.439,3.439
					c-0.229,1.376-0.344,2.407-0.229,3.21c0.115,0.802,0.229,8.942-0.229,9.744c-0.459,0.802-7.108,7.452-19.03,12.266
					c-11.922,4.815-27.055,11.464-27.055,11.464s-1.702-2.856-3.659-6.296c-1.02,0.486-2.126,1.015-3.334,1.596
					c-10.236,4.925-14.533,14.891-15.634,17.912c8.86,9.535,16.63,16.845,17.194,16.281c1.333-1.333,66.634-47.176,66.634-47.176
					S249.587,212.81,250.045,210.861z"/>
			</g>
		</g>
		<g>
			<path style="fill:#FFFFFF;stroke:#263238;stroke-linecap:round;stroke-linejoin:round;stroke-miterlimit:10;" d="M238.543,190.41
				c0,0-2.665,0.196-2.963,1.189c-0.299,0.993,0.213,5.247,0.937,5.507c0.724,0.26,3.042,0.121,3.385-0.911
				c0.343-1.032,0.222-3.048,0.156-4.157C239.991,190.93,239.053,190.481,238.543,190.41z"/>
			<g>
				<path style="fill:#FFFFFF;stroke:#263238;stroke-linecap:round;stroke-linejoin:round;stroke-miterlimit:10;" d="
					M232.934,196.411c0,0-5.005-0.813-5.971-0.047s-0.775,2.272-0.857,2.58c-0.083,0.309-2.423,1.764-2.577,2.582
					c-0.153,0.818,0.233,2.211,0.05,2.526c-0.183,0.314-1.327,1.496-1.355,2.711c-0.028,1.216,0.703,3.296,0.703,3.296
					s-0.2,1.732-0.164,2.336c0.036,0.605,0.701,1.576,1.312,1.641c0.611,0.065,4.257,0.15,4.826-0.491
					c0.569-0.641,0.569-0.641,0.569-0.641s2.508-0.352,3.058-1.296c0.55-0.943,0.575-0.54,0.55-0.943
					c-0.024-0.403,1.464-0.897,1.819-1.727s0.295-1.838,0.295-1.838s2.139-1.443,2.079-2.451
					C237.211,203.64,234.976,198.413,232.934,196.411z"/>
				<path style="fill:none;stroke:#263238;stroke-linecap:round;stroke-linejoin:round;stroke-miterlimit:10;" d="M226.943,199.399
					c0,0,1.968-0.927,2.84,0.133c0.873,1.061,5.409,7.566,5.409,7.566"/>
				<path style="fill:none;stroke:#263238;stroke-linecap:round;stroke-linejoin:round;stroke-miterlimit:10;" d="M224.759,203.475
					c0,0,0.593-0.238,1.661,0.71c1.068,0.948,6.415,5.786,6.415,5.786"/>
				
					<line style="fill:none;stroke:#263238;stroke-linecap:round;stroke-linejoin:round;stroke-miterlimit:10;" x1="223.668" y1="208.901" x2="229.471" y2="212.904"/>
			</g>
		</g>
		<g>
			
				<line style="fill:none;stroke:#263238;stroke-linecap:round;stroke-linejoin:round;stroke-miterlimit:10;" x1="208.802" y1="189.591" x2="214.033" y2="194.24"/>
			
				<line style="fill:none;stroke:#263238;stroke-linecap:round;stroke-linejoin:round;stroke-miterlimit:10;" x1="234.374" y1="172.155" x2="234.374" y2="178.258"/>
			
				<line style="fill:none;stroke:#263238;stroke-linecap:round;stroke-linejoin:round;stroke-miterlimit:10;" x1="263.143" y1="184.36" x2="256.75" y2="190.462"/>
			
				<line style="fill:none;stroke:#263238;stroke-linecap:round;stroke-linejoin:round;stroke-miterlimit:10;" x1="222.169" y1="182.907" x2="224.785" y2="186.685"/>
			
				<line style="fill:none;stroke:#263238;stroke-linecap:round;stroke-linejoin:round;stroke-miterlimit:10;" x1="248.032" y1="181.745" x2="246.288" y2="184.941"/>
		</g>
	</g>
</g>
</svg>
