<svg xmlns="http://www.w3.org/2000/svg" xmlns:xlink="http://www.w3.org/1999/xlink" version="1.1" id="Capa_1" x="0px" y="0px" viewBox="0 0 2122 2122" style="enable-background:new 0 0 2122 2122;" xml:space="preserve">
<g>
	<rect x="0.004" y="1060.66" style="fill:#ffffff;" width="2121.316" height="1060.656"/>
	<rect x="0.004" style="fill:#ffffff;" width="1060.656" height="1060.66"/>
	<path style="fill:#36454f;" d="M92.27,530.328c0,241.938,196.125,438.066,438.062,438.066   c241.934,0,438.063-196.129,438.063-438.066c0-241.934-196.129-438.059-438.063-438.059C288.395,92.27,92.27,288.395,92.27,530.328   z"/>
	<rect x="1060.664" style="fill:#ffffff;" width="1060.656" height="1060.66"/>
	<path style="fill:#36454f;" d="M1140.742,521.152c0,241.941,196.133,438.066,438.066,438.066s438.063-196.125,438.063-438.066   c0-241.934-196.129-438.059-438.063-438.059S1140.742,279.219,1140.742,521.152z"/>
</g>
<g>
	<g>
		<path style="fill:#be745f;" d="M888.41,2011.254c15.02-15.422,20.719-34.215,12.742-41.98c-7.98-7.762-26.605-1.551-41.621,13.875    c-15.012,15.43-20.723,34.215-12.742,41.977C854.766,2032.887,873.398,2026.684,888.41,2011.254z"/>
		<path style="fill:#7ab792;" d="M683.379,1481.207h28.051v-7.758C690.406,1473.207,683.379,1481.207,683.379,1481.207z"/>
		<path style="fill:#7ab792;" d="M683.379,1481.207c7.477,19.551,28.051,18.863,28.051,18.863v-8.695    C711.43,1491.375,690.715,1493.633,683.379,1481.207z"/>
		<path style="fill:#E8E4F2;" d="M711.43,1491.375v-10.168h-28.051C690.715,1493.633,711.43,1491.375,711.43,1491.375z"/>
		<g>
			<path style="fill:#e09c83;" d="M715.074,1397.441c-1.086-2.813-2.359-5.355-3.734-7.66     c-21.512,17.758-51.605,38.07-67.539,39.766v43.902l-18.242-51.801c0,0-12.434-9.887-20.043-0.32     c9.879,107.113,111.5,121.281,111.5,121.281c0-1.508,0.699-79.113,0.699-79.113h10.918     C728.633,1463.496,723.73,1419.656,715.074,1397.441z M632.234,1470.273h-3.754c0,0-10.668-28.688-9.664-38.066l4.769-2.66     c0,0,4.016,0.688,6.77,7.648C630.355,1437.195,632.969,1464.25,632.234,1470.273z M704.352,1437.195     c2,6.961,5.074,10.297,5.074,10.297c-11.477,6.777-18.57-1.762-18.57-1.762c9.539,0.066,13.547,0,13.547,0L704.352,1437.195z      M704.957,1422.016l1.742,5.465h-26.168C680.531,1427.48,687.148,1419.945,704.957,1422.016z M711.43,1481.207v10.168v8.695     c0,0-20.574,0.688-28.051-18.863c0,0,7.027-8,28.051-7.758V1481.207z"/>
			<path style="fill:#e09c83;" d="M643.773,1540.98c-26.621,13.074-39.492,41.664-45.391,61.285     c14.367,7.27,29.031,16.605,43.035,28.566l16.516-73.652C653.254,1554.926,648.223,1548.324,643.773,1540.98z"/>
			<path style="fill:#e09c83;" d="M482.316,1619.754l-1.07,0.668l-70.766,44.453l-0.711,0.441l-188.887,118.637L91.668,2121.32     h117.766l105.141-231.367c0,0,24.93-5.855,56.918-16.914c41.941-14.504,96.016-37.938,122.031-68.855     c15.422-18.324,25.422-35.617,31.418-51.73C555.305,1670.875,482.316,1619.754,482.316,1619.754z M258.363,1815.578     c-15.016,15.418-33.648,21.625-41.621,13.867c-7.98-7.77-2.273-26.559,12.734-41.977c15.012-15.418,33.648-21.637,41.621-13.879     C279.074,1781.352,273.375,1800.152,258.363,1815.578z"/>
		</g>
		<path style="fill:#CE846C;" d="M229.477,1787.469c-15.008,15.418-20.715,34.207-12.734,41.977    c7.973,7.758,26.605,1.551,41.621-13.867c15.012-15.426,20.711-34.227,12.734-41.988    C263.125,1765.832,244.488,1772.051,229.477,1787.469z"/>
		<g>
			<path style="fill:#74e7a4;" d="M703.063,1719.594c-15.18-39.477-37.406-68.055-61.644-88.762     c-14.004-11.961-28.668-21.297-43.035-28.566c-17.902-9.059-35.32-14.961-50.398-18.773c-27.82-7.027-47.633-7.039-47.633-7.039     l-19.105,43.969l1.07-0.668c0,0,72.988,51.121,42.625,132.699c-0.387,1.109-61.856,177.211-204.402,237.863l-56.918,131.004     h457.977l1.043-159.723l0.785-119.41C723.426,1792.664,715.672,1752.387,703.063,1719.594z M694.352,1730.949     c-0.805,0.398-1.773,0.078-2.184-0.715c-31.656-62.102-76.965-94.039-115.336-110.559     c-38.359-16.496-69.754-17.504-73.301-17.559l-0.336-0.004c-0.895,0-1.621-0.727-1.621-1.625c0-0.895,0.727-1.621,1.621-1.617     c0.137,0,31.512,0.016,71.184,16.258c39.656,16.238,87.633,48.762,120.676,113.629     C695.465,1729.563,695.148,1730.535,694.352,1730.949z"/>
			<polygon style="fill:#74e7a4;" points="564.324,1378.059 564.324,1378.059 578.176,1356.91 578.176,1356.902 568.262,1351.563      567.301,1352.938 557.652,1366.805 562.23,1374.531    "/>
		</g>
		<g>
			<path style="fill:#d38972;" d="M960.391,1564.707c5.375-16.477,11.918-16.168,39.852-33.441     c37.613-23.242,23.285-44.504,23.285-44.504c-100.977-5.555-133.391,103.629-133.391,103.629l-86.313,248.996     c0.121,0.043,0.246,0.074,0.363,0.152c0.75,0.48,0.957,1.492,0.465,2.242l-0.035,0.059l-0.141,0.227     c-0.133,0.207-0.316,0.512-0.559,0.93c-0.484,0.828-1.188,2.07-2.02,3.715c-1.676,3.293-3.926,8.184-6.176,14.547     c-4.504,12.723-9.02,31.316-9.02,54.75c0,14.684,1.773,31.277,6.445,49.52c0.215,0.871-0.309,1.758-1.172,1.977     c-0.871,0.219-1.75-0.301-1.969-1.168c-4.742-18.516-6.547-35.383-6.547-50.328c0-34.699,9.711-59.023,15.063-69.789     l-95.461-126.625c12.609,32.793,20.363,73.07,20.363,122.594l-0.785,119.41c47.848,38.988,104.832,77.73,142.371,77.766     c79.059,0.066,82.199-296.984,82.32-321.031c-0.277,0-0.551-0.039-0.805-0.195c-0.742-0.426-0.996-1.34-0.633-2.098     c0.02-0.039,0.02-0.082,0.043-0.109c8.652-14.949,11.394-26.918,11.402-36.121c0-16.484-8.816-24.395-9.191-24.734l-0.004-0.008     l-1.207-1.027l0.996-1.23c8.629-10.531,10.836-23.469,10.836-33.855c0-7.727-1.211-13.949-1.828-16.609     c-6.598,1.211-13.926,5.926-21.18,12.766c-7.769,7.301-15.461,16.898-22.363,26.695c-13.805,19.605-24.473,39.98-26.773,44.473     c-0.297,0.574-0.445,0.863-0.453,0.895l-0.012,0.02c-0.402,0.805-1.371,1.129-2.172,0.723c-0.801-0.398-1.125-1.375-0.723-2.18     c0.008-0.012,5.82-11.648,14.797-26.367c8.984-14.73,21.109-32.563,33.883-45.09c8.52-8.328,17.316-14.402,26.023-15.402     l1.367-0.145l0.371,1.316c0.02,0.07,1.367,4.828,1.992,11.941c3.031,0.57,11.063,2.199,17.332,4.68     c2.625,1.055,4.949,2.219,6.586,3.711c0.922,0.859,1.684,1.887,1.898,3.184c0.148,0.961,0.762,3.051,1.637,5.637     c0.871,2.594,2.023,5.742,3.266,9.035c2.476,6.59,5.34,13.781,7.234,18.473c1.262,3.133,2.094,5.145,2.094,5.145l0.574,1.406     l-17.395,8.543c-10.481,6.438-16.207,13.832-19.379,20.469c-3.16,6.656-3.734,12.578-3.734,16.004     c0,1.734,0.144,2.828,0.176,3.023v0.027l0,0c0.148,0.887-0.449,1.719-1.328,1.867c-0.887,0.145-1.719-0.453-1.871-1.332     c-0.012-0.082-0.223-1.387-0.223-3.586c0-3.781,0.633-10.207,4.059-17.398c3.418-7.191,9.641-15.125,20.652-21.863l0.07-0.047     l14.824-7.277c-1.813-4.441-7.606-18.754-11.117-28.637c-1.398-3.973-2.438-7.133-2.738-8.973     c-0.035-0.238-0.207-0.625-0.688-1.109c-0.457-0.48-1.184-1.023-2.086-1.543c-1.82-1.055-4.352-2.059-7.016-2.918     c-4.711-1.531-9.855-2.641-12.605-3.18c0.055,1.164,0.09,2.379,0.09,3.625c-0.008,10.445-2.141,23.605-10.66,34.734     c2.664,2.844,9.223,11.387,9.223,26.121c0.004,9.641-2.859,21.879-11.301,36.754c23.383-2.238,59.227-13.332,66.199-23.781     c7.168-10.754,11.793-62.043,8.211-79.422C1020.106,1595.977,960.391,1564.707,960.391,1564.707z M901.152,1969.273     c7.977,7.766,2.277,26.559-12.742,41.98c-15.012,15.43-33.645,21.633-41.621,13.871c-7.98-7.762-2.27-26.547,12.742-41.977     C874.547,1967.723,893.172,1961.512,901.152,1969.273z"/>
			<path style="fill:#d38972;" d="M704.691,1543.219c0.246,0.008,0.5,0.023,0.746,0.039c0.316,0.008,0.629,0.02,0.934,0.031     c0.246,0.008,0.492,0.016,0.727,0.027c0.293,0.004,0.574,0.008,0.852,0.012c0.238,0.008,0.481,0.008,0.703,0.012     c0.262,0.008,0.512,0.008,0.754,0.008c0.238,0.012,0.473,0.012,0.703,0.012c0.234,0,0.461-0.012,0.688-0.012     c0.207,0,0.422-0.008,0.621-0.008c0.219-0.004,0.43-0.012,0.644-0.016c0.191,0,0.379-0.004,0.57-0.008     c0.195-0.012,0.379-0.02,0.566-0.027c0.168-0.012,0.336-0.02,0.496-0.027c0.176-0.004,0.34-0.031,0.496-0.039     c0.152-0.004,0.301-0.016,0.438-0.023c0.152-0.016,0.293-0.035,0.43-0.055c0.125-0.008,0.25-0.02,0.359-0.039     c0.129-0.008,0.238-0.027,0.351-0.043c0.102-0.02,0.199-0.031,0.293-0.051c0.098-0.02,0.184-0.039,0.262-0.059     c0.078-0.012,0.152-0.027,0.219-0.059c0.066-0.012,0.125-0.027,0.18-0.059c0.051-0.02,0.09-0.039,0.133-0.051     c0.031-0.027,0.07-0.051,0.09-0.074c0.008-0.012,0.039-0.02,0.043-0.027l0.027-0.074c0,0-101.621-14.168-111.5-121.281     c-0.723,0.895-1.398,1.969-2.023,3.238c-7.156,14.762,22.066,66.969,22.066,66.969l-62.172,34.293c0,0-0.012-0.031-0.016-0.082     l-15.387,57.746c15.078,3.813,32.496,9.715,50.398,18.773c5.898-19.621,18.769-48.211,45.391-61.285     c-7.324-12.098-13.07-26.207-13.07-26.207c12.09,9.414,32.223,20.141,32.223,20.141c0.695,0.285,1.379,0.559,2.086,0.824     c0.418,0.16,0.848,0.313,1.277,0.469c0.281,0.098,0.566,0.203,0.859,0.305c0.469,0.172,0.938,0.32,1.414,0.48     c0.25,0.086,0.5,0.176,0.758,0.246c0.469,0.156,0.949,0.297,1.426,0.441c0.266,0.082,0.523,0.168,0.785,0.242     c0.492,0.141,0.992,0.293,1.496,0.43c0.242,0.063,0.488,0.141,0.734,0.203c0.512,0.141,1.027,0.27,1.547,0.395     c0.23,0.063,0.473,0.129,0.699,0.191c0.523,0.121,1.043,0.246,1.559,0.371c0.234,0.059,0.473,0.113,0.707,0.164     c0.527,0.117,1.051,0.234,1.578,0.348c0.234,0.051,0.453,0.105,0.688,0.152c0.523,0.105,1.047,0.211,1.57,0.313     c0.227,0.043,0.457,0.094,0.695,0.137c0.516,0.098,1.035,0.195,1.551,0.289c0.234,0.043,0.473,0.09,0.707,0.125     c0.5,0.09,0.996,0.168,1.496,0.254c0.246,0.043,0.5,0.086,0.75,0.125c0.484,0.078,0.973,0.148,1.457,0.227     c0.246,0.039,0.5,0.074,0.75,0.113c0.481,0.07,0.965,0.133,1.449,0.199c0.238,0.027,0.484,0.066,0.727,0.102     c0.465,0.059,0.93,0.121,1.391,0.172c0.254,0.027,0.504,0.063,0.758,0.086c0.445,0.063,0.883,0.113,1.32,0.156     c0.266,0.023,0.523,0.055,0.777,0.082c0.426,0.043,0.848,0.078,1.269,0.129c0.258,0.016,0.516,0.051,0.773,0.066     c0.406,0.039,0.801,0.074,1.195,0.105c0.258,0.027,0.527,0.039,0.785,0.07c0.375,0.027,0.75,0.055,1.121,0.078     c0.266,0.023,0.527,0.039,0.789,0.059c0.355,0.02,0.695,0.043,1.043,0.063c0.266,0.016,0.535,0.035,0.797,0.047     C704.047,1543.188,704.371,1543.207,704.691,1543.219z"/>
			<path style="fill:#d38972;" d="M632.234,1470.273c0.734-6.023-1.879-33.078-1.879-33.078c-2.754-6.961-6.77-7.648-6.77-7.648     l-4.769,2.66c-1.004,9.379,9.664,38.066,9.664,38.066H632.234z"/>
		</g>
		<g>
			<path style="fill:#191919;" d="M410.48,1664.875c-0.789-40.227,44.352-96.582,44.352-96.582     c60.039-68.613,94.637-150.852,107.398-193.762l-4.578-7.727l9.648-13.867c4.262-35.473-24.289-43.273-38.582-43.926     c-24.629-1.113-38.512,15.68-38.512,15.68s-77.473,244.938-85.531,284.797c-6.938,34.301,2.363,51.648,5.094,55.828     L410.48,1664.875z"/>
			<path style="fill:#191919;" d="M704.402,1445.73c0,0-4.008,0.066-13.547,0c0,0,7.094,8.539,18.57,1.762     c0,0-3.074-3.336-5.074-10.297L704.402,1445.73z"/>
			<path style="fill:#191919;" d="M704.957,1422.016c-17.809-2.07-24.426,5.465-24.426,5.465h26.168L704.957,1422.016z"/>
			<path style="fill:#191919;" d="M371.492,1873.039l-50.953,117.277c142.547-60.652,204.016-236.754,204.402-237.863     c-5.996,16.113-15.996,33.406-31.418,51.73C467.508,1835.102,413.434,1858.535,371.492,1873.039z"/>
			<path style="fill:#191919;" d="M709.426,1348.871c-51.242-11.957-104.402-15.371-131.25,8.031v0.008l-13.852,21.148     c-14.23,43.648-1.332,144.77-0.953,147.688c0.004,0.051,0.016,0.082,0.016,0.082l62.172-34.293c0,0-29.223-52.207-22.066-66.969     c0.625-1.27,1.301-2.344,2.023-3.238c7.609-9.566,20.043,0.32,20.043,0.32l18.242,51.801v-43.902     c15.934-1.695,46.027-22.008,67.539-39.766c12.23-10.09,21.703-19.352,24.207-23.898     C742.465,1353.348,709.426,1348.871,709.426,1348.871z"/>
			<path style="fill:#191919;" d="M662.926,1534.914c0,0-20.133-10.727-32.223-20.141c0,0,5.746,14.109,13.07,26.207     c4.449,7.344,9.481,13.945,14.16,16.199l0,0L662.926,1534.914z"/>
			<path style="fill:#191919;" d="M1001.746,1661.852c0,0-0.832-2.012-2.094-5.145c-1.895-4.691-4.758-11.883-7.234-18.473     c-1.242-3.293-2.395-6.441-3.266-9.035c-0.875-2.586-1.488-4.676-1.637-5.637c-0.215-1.297-0.977-2.324-1.898-3.184     c-1.637-1.492-3.961-2.656-6.586-3.711c-6.27-2.48-14.301-4.109-17.332-4.68c-0.625-7.113-1.973-11.871-1.992-11.941     l-0.371-1.316l-1.367,0.145c-8.707,1-17.504,7.074-26.023,15.402c-12.773,12.527-24.898,30.359-33.883,45.09     c-8.977,14.719-14.789,26.355-14.797,26.367c-0.402,0.805-0.078,1.781,0.723,2.18c0.801,0.406,1.769,0.082,2.172-0.723     l0.012-0.02c0.008-0.031,0.156-0.32,0.453-0.895c2.301-4.492,12.969-24.867,26.773-44.473     c6.902-9.797,14.594-19.395,22.363-26.695c7.254-6.84,14.582-11.555,21.18-12.766c0.617,2.66,1.828,8.883,1.828,16.609     c0,10.387-2.207,23.324-10.836,33.855l-0.996,1.23l1.207,1.027l0.004,0.008c0.375,0.34,9.191,8.25,9.191,24.734     c-0.008,9.203-2.75,21.172-11.402,36.121c-0.023,0.027-0.023,0.07-0.043,0.109c-0.363,0.758-0.109,1.672,0.633,2.098     c0.254,0.156,0.527,0.195,0.805,0.195c0.563,0.004,1.106-0.262,1.41-0.785c0.191-0.332,0.344-0.652,0.531-0.984     c8.441-14.875,11.305-27.113,11.301-36.754c0-14.734-6.559-23.277-9.223-26.121c8.52-11.129,10.652-24.289,10.66-34.734     c0-1.246-0.035-2.461-0.09-3.625c2.75,0.539,7.894,1.648,12.605,3.18c2.664,0.859,5.195,1.863,7.016,2.918     c0.902,0.52,1.629,1.063,2.086,1.543c0.481,0.484,0.652,0.871,0.688,1.109c0.301,1.84,1.34,5,2.738,8.973     c3.512,9.883,9.305,24.195,11.117,28.637l-14.824,7.277l-0.07,0.047c-11.012,6.738-17.234,14.672-20.652,21.863     c-3.426,7.191-4.059,13.617-4.059,17.398c0,2.199,0.211,3.504,0.223,3.586c0.152,0.879,0.984,1.477,1.871,1.332     c0.879-0.148,1.477-0.98,1.328-1.867l0,0v-0.027c-0.031-0.195-0.176-1.289-0.176-3.023c0-3.426,0.574-9.348,3.734-16.004     c3.172-6.637,8.898-14.031,19.379-20.469l17.395-8.543L1001.746,1661.852z"/>
			<path style="fill:#191919;" d="M804.188,1839.539c-0.117-0.078-0.242-0.109-0.363-0.152c-0.688-0.234-1.461-0.016-1.883,0.621     c-0.027,0.039-1.422,2.18-3.418,6.211c-5.352,10.766-15.063,35.09-15.063,69.789c0,14.945,1.805,31.813,6.547,50.328     c0.219,0.867,1.098,1.387,1.969,1.168c0.863-0.219,1.387-1.105,1.172-1.977c-4.672-18.242-6.445-34.836-6.445-49.52     c0-23.434,4.516-42.027,9.02-54.75c2.25-6.363,4.5-11.254,6.176-14.547c0.832-1.645,1.535-2.887,2.02-3.715     c0.242-0.418,0.426-0.723,0.559-0.93l0.141-0.227l0.035-0.059C805.144,1841.031,804.938,1840.02,804.188,1839.539z"/>
			<path style="fill:#191919;" d="M574.379,1615.129c-39.672-16.242-71.047-16.258-71.184-16.258     c-0.895-0.004-1.621,0.723-1.621,1.617c0,0.898,0.727,1.625,1.621,1.625l0.336,0.004c3.547,0.055,34.941,1.063,73.301,17.559     c38.371,16.52,83.68,48.457,115.336,110.559c0.41,0.793,1.379,1.113,2.184,0.715c0.797-0.414,1.113-1.387,0.703-2.191     C662.012,1663.891,614.035,1631.367,574.379,1615.129z"/>
		</g>
	</g>
	<g>
		<polygon style="fill:#E2F1FB;" points="1279.555,1521.27 1296.523,1485.094 1299.266,1479.25 1330.793,1499.309 1279.555,1603.25       "/>
		<path style="fill:#5bce8b;" d="M1330.793,1499.309l4.188-8.484l234.555,149.766c-6.543,11.813-12.188,24.625-16.703,38.496    c-0.008,0-0.027,0.016-0.027,0.016l-0.129,0.457c-1.43,4.41-2.73,8.961-3.914,13.594l-32.16,111.605l-237.047-189.043v-12.465    L1330.793,1499.309z"/>
		<polygon style="fill:#E2F1FB;" points="1309.582,1836.367 1342.027,1850.379 1289.84,1967.016 1261.531,1952.426     1272.426,1926.117 1307.973,1840.258   "/>
		<path style="fill:#d38972;" d="M1659.934,1525.59c-8.223-10.582-21.277-20.754-41.867-25.398    c10.719-16.57,15.438-35.309,15.438-35.309c-12.328,22.199-36.039,32.742-36.039,32.742c-14.051,0.574-24.574,0.789-27.98,0.359    c-1.262-0.156-2.434-0.379-3.559-0.637c-0.297-0.074-0.578-0.152-0.871-0.219c-0.859-0.234-1.672-0.48-2.449-0.75    c-0.227-0.09-0.461-0.156-0.684-0.246c-0.949-0.375-1.852-0.773-2.684-1.219c-0.098-0.047-0.18-0.102-0.273-0.16    c-0.727-0.395-1.398-0.824-2.039-1.262c-0.191-0.145-0.395-0.285-0.582-0.434c-0.543-0.41-1.055-0.824-1.531-1.258    c-0.129-0.125-0.277-0.238-0.398-0.367c-0.527-0.5-1.023-1.016-1.461-1.543c0.008,0,0.008,0,0.02,0    c18.289-2.055,90.445-16.238,97.09-111.395c0.004,0.012,0.012,0.016,0.02,0.016c19.52,13.84,1.324,52.344,1.324,52.344    c13.605,15.406,69.887,48.395,69.887,48.395c-1.375-3.773-2.402-8.672-3.191-14.336l0.121-0.031l8.355,39.164    C1697.449,1506.355,1675.828,1514.945,1659.934,1525.59z"/>
		<path style="fill:#E8E4F2;" d="M1552.805,1445.387v-19.738h31.66C1577.645,1444.656,1552.805,1445.387,1552.805,1445.387z"/>
		<path style="fill:#d38972;" d="M1638.344,1383.926l4.637,2.586c3.527,11.098-6.547,34.137-6.547,34.137l-6.484,2.797    c-0.711-5.84,1.82-32.102,1.82-32.102C1634.453,1384.582,1638.344,1383.926,1638.344,1383.926z"/>
		<path style="fill:#E2F1FB;" d="M1621.301,1577.707c-1.094,0.844-2.188,1.668-3.277,2.527c0,0,1.016-3.965,3.766-10.059    c5.082-11.262,16.156-29.863,38.145-44.586c15.895-10.645,37.516-19.234,66.645-21.543c3.371-0.27,6.801-0.477,10.375-0.566    l4.164,10.996C1707.164,1524.715,1660.859,1543.711,1621.301,1577.707z"/>
		<path style="fill:#74e7a4;" d="M1284.199,1979.625l166.848,87.781c114.223,41.699,133.414-25.289,133.418-25.316l13,79.23h432.191    l-240.531-617.84c0,0-19.719,2.465-48.008,10.996c-33.953,10.238-80.258,29.234-119.816,63.23    c-19.734,16.969-37.781,37.656-51.766,62.883c-6.543,11.813-12.188,24.625-16.703,38.496c-0.008,0-0.027,0.016-0.027,0.016    l-0.129,0.457c-1.43,4.41-2.73,8.961-3.914,13.594l-32.16,111.605l-29.086,100.977l-142.98-60.953l-2.508,5.598l-52.188,116.637    L1284.199,1979.625z M1584.465,2042.078L1651,1835.652l39.844-114.578l-47.113,368.121c-57.676,2.543-18.574,4.555-52.172-3.871    L1584.465,2042.078z"/>
		<path style="fill:#E2F1FB;" d="M1261.531,1754.996h-190.41v-258.41h9.957c-0.637,12.195,0.461,25.5,3.309,29.867    c12.918,19.777,27.824-4.527,27.824-4.527c19.375,25.371,31.34,1.383,31.34,1.383c17.5,21.223,29.641-1.383,29.641-1.383    s14.203,23.527,28.039-3.223l1.027-22.117h59.273V1754.996z"/>
		<g>
			<path style="fill:#e09c83;" d="M1279.555,1521.27l16.969-36.176c-8.891-4.785-19.867-10.426-28.871-14.207v-0.156     c0,0-0.695-0.234-1.926-0.633c-0.004,0-0.004,0-0.016-0.016c-9.09-2.992-48.309-15.734-70.016-19.645     c-64.73-11.652-95.473,6.926-95.473,6.926s-11.758,6.582-16.605,22.133c-0.418,1.336-0.773,2.875-1.094,4.527     c-0.723,3.688-1.203,8.047-1.445,12.563c-0.637,12.195,0.461,25.5,3.309,29.867c12.918,19.777,27.824-4.527,27.824-4.527     c19.375,25.371,31.34,1.383,31.34,1.383c17.5,21.223,29.641-1.383,29.641-1.383s14.203,23.527,28.039-3.223l1.027-22.117     l0.582-12.469h64.145c7.027,0.539,12.57,6.344,12.57,13.504V1521.27z M1113.902,1519.34c0,0.91-0.73,1.641-1.641,1.641     c-0.906,0-1.637-0.73-1.637-1.641v-57.039c0-0.91,0.73-1.645,1.637-1.645c0.91,0,1.641,0.734,1.641,1.645V1519.34z      M1145.863,1519.34c0,0.91-0.73,1.641-1.637,1.641c-0.91,0-1.645-0.73-1.645-1.641v-57.039c0-0.91,0.734-1.645,1.645-1.645     c0.906,0,1.637,0.734,1.637,1.645V1519.34z M1177.82,1519.34c0,0.91-0.73,1.641-1.633,1.641c-0.906,0-1.641-0.73-1.641-1.641     v-57.039c0-0.91,0.734-1.645,1.641-1.645c0.902,0,1.633,0.734,1.633,1.645V1519.34z"/>
			<path style="fill:#e09c83;" d="M1024.281,1829.727c0-1.469,0.125-2.781,0.301-4.035c0.387,0.063,0.797-0.004,1.152-0.242     c1.027-0.703,3.117-1.453,5.945-2.09c0.77-0.176,1.574-0.348,2.449-0.492c4.09-0.75,9.297-1.336,15.234-1.773     c2.684-0.195,5.543-0.363,8.492-0.508c10.129-0.492,21.656-0.688,33.328-0.688c27.742,0,56.285,1.066,68.809,1.594     c4.176,0.176,6.563,0.301,6.57,0.301l0.832,0.035l0.527-0.645c7.113-8.777,15.004-12.813,21.883-14.563     c3.59-0.918,6.906-1.215,9.676-1.23c0.551,0,1.086,0.016,1.59,0.035c3.41,0.141,5.723,0.691,6.25,0.828l0.113,0.027     c0.867,0.25,1.781-0.254,2.027-1.125c0.031-0.102,0.02-0.215,0.027-0.32c35.508,2.574,54.855,13.934,58.73,15.867     c1.738,0.867,19.262,9.48,39.754,19.555l-35.547,85.859l-41.418-30.219c1.891,0.113,2.93,0.176,2.93,0.176     c0.902,0.055,1.684-0.637,1.734-1.539c0.055-0.902-0.633-1.68-1.539-1.734c-0.004,0-0.117-0.012-0.293-0.02     c-0.926-0.055-4.27-0.258-9.355-0.586c-6.031-0.398-14.473-0.969-24.102-1.672c-19.25-1.406-43.277-3.359-62.309-5.527     c-12.672-1.434-23.184-2.992-28.379-4.484c-1.371-0.379-2.371-0.789-2.785-1.051c-4.258-2.621-6-6.855-6.016-10.953     c-0.004-2.504,0.684-4.902,1.828-6.676s2.648-2.875,4.395-3.137c2.348-0.359,6.84-0.656,12.402-0.875     c5.586-0.227,12.258-0.391,19.125-0.504c13.723-0.219,28.184-0.258,36.066-0.258c3.734,0,5.984,0.008,5.992,0.008h0.762     l0.496-0.582c18.145-21.516,41.777-23.824,44.508-24.016l0.254-0.016c0.043,0,0.07-0.02,0.117-0.027     c0.848-0.102,1.488-0.809,1.445-1.68c-0.035-0.902-0.801-1.609-1.703-1.57c-0.117,0.016-6.805,0.297-16.02,3.594     c-9.051,3.23-20.559,9.406-30.574,21.02c-0.945-0.004-2.762-0.004-5.277-0.004c-11.844,0-38.469,0.078-55.316,0.754     c-5.621,0.227-10.129,0.512-12.766,0.906c-2.863,0.43-5.164,2.246-6.676,4.625c-0.355,0.559-0.672,1.16-0.949,1.777     c-21.758-4.367-41.234-8.191-52.844-10.246C1023.539,1847.598,1024.281,1829.727,1024.281,1829.727z"/>
			<path style="fill:#e09c83;" d="M1178.32,1807.832c-4.191,2.449-8.422,5.883-12.398,10.645c-5.398-0.254-37.969-1.734-70.66-1.852     c-1.363,0-2.723,0-4.078,0c-22.703,0-44.852,0.684-57.645,3.008c-3.383,0.621-6.074,1.332-8.109,2.277     c3.52-11.066,14.168-11.867,14.168-11.867l145.473-5.383C1182.863,1805.465,1180.598,1806.504,1178.32,1807.832z"/>
			<polygon style="fill:#e09c83;" points="1603.504,1516.758 1597.465,1497.625 1603.504,1516.758    "/>
			<path style="fill:#e09c83;" d="M1618.066,1500.191c20.59,4.645,33.645,14.816,41.867,25.398     c-21.988,14.723-33.063,33.324-38.145,44.586l-1.324,0.199l-16.961-53.617     C1609.246,1512.254,1614.074,1506.379,1618.066,1500.191z"/>
			<path style="fill:#e09c83;" d="M1549.75,1349.363c-8.406,21.566-13.148,64.109-13.148,64.109h10.598     c0,0,0.316,59.32,0.316,60.781c0,0.922-0.109,9.07,5.457,15.637c18.289-2.055,90.445-16.238,97.09-111.395     c-19.516-13.813-27.668,12.98-27.668,12.98l-6.914-12.965c0,0,11.957-26.676-5.781-35.875     C1583.281,1328.953,1549.75,1349.363,1549.75,1349.363z M1631.77,1391.344c2.684-6.762,6.574-7.418,6.574-7.418l4.637,2.586     c3.527,11.098-6.547,34.137-6.547,34.137l-6.484,2.797C1629.238,1417.605,1631.77,1391.344,1631.77,1391.344z M1583.281,1378.512     h-25.398l3.383-10.598C1579.625,1368.734,1583.281,1378.512,1583.281,1378.512z M1560.68,1387.895l-2.348-2.543h10.305     c0,0-0.266,11.898-4.164,12.238C1560.57,1397.926,1560.68,1387.895,1560.68,1387.895z M1552.805,1425.648h31.66     c-6.82,19.008-31.66,19.738-31.66,19.738V1425.648z"/>
		</g>
		<g>
			<path style="fill:#191919;" d="M1690.844,1721.074l-47.113,368.121c-57.676,2.543-18.574,4.555-52.172-3.871l-7.094-43.246     L1651,1835.652L1690.844,1721.074z"/>
			<path style="fill:#191919;" d="M1603.504,1516.758l-6.039-19.133c0,0,23.711-10.543,36.039-32.742     c0,0-4.719,18.738-15.438,35.309C1614.074,1506.379,1609.246,1512.254,1603.504,1516.758z"/>
			<path style="fill:#191919;" d="M1568.637,1385.352c0,0-0.266,11.898-4.164,12.238c-3.902,0.336-3.793-9.695-3.793-9.695     l-2.348-2.543H1568.637z"/>
			<path style="fill:#191919;" d="M1099.953,1860.07c1.512-2.379,3.813-4.195,6.676-4.625c2.637-0.395,7.145-0.68,12.766-0.906     c16.848-0.676,43.473-0.754,55.316-0.754c2.516,0,4.332,0,5.277,0.004c10.016-11.613,21.523-17.789,30.574-21.02     c9.215-3.297,15.902-3.578,16.02-3.594c0.902-0.039,1.668,0.668,1.703,1.57c0.043,0.871-0.598,1.578-1.445,1.68     c-0.047,0.008-0.074,0.027-0.117,0.027l-0.254,0.016c-2.73,0.191-26.363,2.5-44.508,24.016l-0.496,0.582h-0.762     c-0.008,0-2.258-0.008-5.992-0.008c-7.883,0-22.344,0.039-36.066,0.258c-6.867,0.113-13.539,0.277-19.125,0.504     c-5.563,0.219-10.055,0.516-12.402,0.875c-1.746,0.262-3.25,1.363-4.395,3.137s-1.832,4.172-1.828,6.676     c0.016,4.098,1.758,8.332,6.016,10.953c0.414,0.262,1.414,0.672,2.785,1.051c5.195,1.492,15.707,3.051,28.379,4.484     c19.031,2.168,43.059,4.121,62.309,5.527c9.629,0.703,18.07,1.273,24.102,1.672c5.086,0.328,8.43,0.531,9.355,0.586     c0.176,0.008,0.289,0.02,0.293,0.02c0.906,0.055,1.594,0.832,1.539,1.734c-0.051,0.902-0.832,1.594-1.734,1.539     c0,0-1.039-0.063-2.93-0.176c-8.148-0.512-32.184-2.055-57.102-4.156c-15.344-1.285-31.023-2.781-43.566-4.359     c-6.27-0.793-11.754-1.609-16.043-2.438c-2.145-0.422-3.988-0.848-5.5-1.277c-1.52-0.434-2.684-0.848-3.609-1.406     c-5.324-3.277-7.59-8.73-7.578-13.754c0.008-2.363,0.484-4.648,1.395-6.66C1099.281,1861.23,1099.598,1860.629,1099.953,1860.07z     "/>
			<path style="fill:#191919;" d="M1023.914,1822.719c0.445-0.293,0.965-0.555,1.516-0.809c2.035-0.945,4.727-1.656,8.109-2.277     c12.793-2.324,34.941-3.008,57.645-3.008c1.355,0,2.715,0,4.078,0c32.691,0.117,65.262,1.598,70.66,1.852     c3.977-4.762,8.207-8.195,12.398-10.645c2.277-1.328,4.543-2.367,6.75-3.172c5.398-1.969,10.438-2.559,14.41-2.543     c5.297,0,8.75,0.977,8.863,1.008c0.762,0.223,1.203,0.945,1.145,1.711c-0.008,0.105,0.004,0.219-0.027,0.32     c-0.246,0.871-1.16,1.375-2.027,1.125l-0.113-0.027c-0.527-0.137-2.84-0.688-6.25-0.828c-0.504-0.02-1.039-0.035-1.59-0.035     c-2.77,0.016-6.086,0.313-9.676,1.23c-6.879,1.75-14.77,5.785-21.883,14.563l-0.527,0.645l-0.832-0.035     c-0.008,0-2.395-0.125-6.57-0.301c-12.523-0.527-41.066-1.594-68.809-1.594c-11.672,0-23.199,0.195-33.328,0.688     c-2.949,0.145-5.809,0.313-8.492,0.508c-5.938,0.438-11.145,1.023-15.234,1.773c-0.875,0.145-1.68,0.316-2.449,0.492     c-2.828,0.637-4.918,1.387-5.945,2.09c-0.355,0.238-0.766,0.305-1.152,0.242c-0.441-0.066-0.855-0.297-1.129-0.699     C1022.957,1824.238,1023.156,1823.219,1023.914,1822.719z"/>
			<path style="fill:#191919;" d="M1053.734,1764.512v-266.891c0-7.508,6.09-13.598,13.598-13.598h15.191     c-0.723,3.688-1.203,8.047-1.445,12.563h-9.957v258.41h190.41v-258.41h-59.273l0.582-12.469h64.145     c7.027,0.539,12.57,6.344,12.57,13.504v23.648v81.98v12.465v148.797c0,7.52-6.09,13.609-13.598,13.609h-198.625     C1059.824,1778.121,1053.734,1772.031,1053.734,1764.512z"/>
			<path style="fill:#191919;" d="M1112.262,1520.98c-0.906,0-1.637-0.73-1.637-1.641v-57.039c0-0.91,0.73-1.645,1.637-1.645     c0.91,0,1.641,0.734,1.641,1.645v57.039C1113.902,1520.25,1113.172,1520.98,1112.262,1520.98z"/>
			<path style="fill:#191919;" d="M1144.227,1520.98c-0.91,0-1.645-0.73-1.645-1.641v-57.039c0-0.91,0.734-1.645,1.645-1.645     c0.906,0,1.637,0.734,1.637,1.645v57.039C1145.863,1520.25,1145.133,1520.98,1144.227,1520.98z"/>
			<path style="fill:#191919;" d="M1176.188,1520.98c-0.906,0-1.641-0.73-1.641-1.641v-57.039c0-0.91,0.734-1.645,1.641-1.645     c0.902,0,1.633,0.734,1.633,1.645v57.039C1177.82,1520.25,1177.09,1520.98,1176.188,1520.98z"/>
		</g>
		<g>
			<path style="fill:#825050;" d="M1583.281,1378.512h-25.398l3.383-10.598C1579.625,1368.734,1583.281,1378.512,1583.281,1378.512z     "/>
			<path style="fill:#825050;" d="M1583.281,1229.566c0,0,33.672-8.156,19.168,26.301c0,0,15.16-26.168,34.324-27.137     c19.164-0.977,17.977,23.5,7.691,38.918c0,0,9.66-9.977,22.352-4.539c12.699,5.445-11.902,21.094-1.934,38.32     c9.98,17.234,30.043,2.324,43.645,17.824c12.016,13.684,3.625,102.785,9.574,145.66c0.789,5.664,1.816,10.563,3.191,14.336     c0,0-56.281-32.988-69.887-48.395c0,0,18.195-38.504-1.324-52.344c-0.008,0-0.016-0.004-0.02-0.016     c-19.516-13.813-27.668,12.98-27.668,12.98l-6.914-12.965c0,0,11.957-26.676-5.781-35.875     c-26.418-13.684-59.949,6.727-59.949,6.727S1529.91,1260.398,1583.281,1229.566z"/>
		</g>
	</g>
	<path style="fill:#E2F1FB;" d="M1071.121,1286.301c0-61.465-74.91-111.293-167.313-111.293S736.5,1224.836,736.5,1286.301   c0,53.711,57.184,98.531,133.262,108.992c-3.969,21.176-11.668,46.117-26.582,65.363c0,0,53.281-27.371,82.508-64.031   C1007.746,1389.488,1071.121,1342.832,1071.121,1286.301z"/>
	<path style="fill:#E2F1FB;" d="M1125.137,1279.867c0-56.738,69.137-102.723,154.418-102.723   c85.285,0,154.422,45.984,154.422,102.723c0,49.563-52.781,90.926-122.996,100.582c3.668,19.547,10.77,42.57,24.531,60.328   c0,0-49.172-25.258-76.152-59.094C1183.633,1375.098,1125.137,1332.035,1125.137,1279.867z"/>
</g>
<g>
	<path style="fill:#191919;" d="M908.512,334.32c-16.98,6.625-37.371,15.07-55.695,22.797c-24.883,10.496-45.91,19.66-49.41,21.191   c-2.121-0.621-4.188-1.188-6.18-1.637c-6.637-1.523-12.574-2.176-17.875-2.176c-14.828-0.016-24.629,5.148-30.621,10.355   c-6.004,5.215-8.238,10.41-8.312,10.57c-0.375,0.879,0.039,1.895,0.91,2.273c0.879,0.371,1.891-0.039,2.266-0.91v-0.008   l0.016-0.023c0.059-0.129,0.332-0.695,0.805-1.5c1.07-1.828,3.281-5.043,7.102-8.227c5.5-4.578,14.25-9.066,27.836-9.078   c3.477,0,7.289,0.32,11.43,0.992c3.801,0.621,7.867,1.535,12.262,2.848l0.613,0.18l0.582-0.25c0.004,0,1.996-0.883,5.527-2.41   c12.359-5.367,43.441-18.789,72.84-30.863c14.707-6.031,29-11.727,40.297-15.914c5.652-2.09,10.555-3.797,14.379-4.98   c1.902-0.59,3.539-1.051,4.848-1.348c1.289-0.309,2.289-0.445,2.746-0.438h0.063c0.508,0.348,1.164,0.438,1.75,0.141   c0.031-0.012,0.043-0.043,0.078-0.063c0.789-0.457,1.102-1.434,0.688-2.262c-0.352-0.688-0.957-0.996-1.375-1.113   c-0.434-0.137-0.813-0.16-1.203-0.16c-0.145,0-0.332,0.031-0.481,0.043c-1.016,0.059-2.18,0.262-3.68,0.633   C934.305,324.574,922.609,328.82,908.512,334.32z"/>
	<path style="fill:#191919;" d="M228.203,581.762c-3.777-6.609-7.66-13.301-11.672-20.055c0,0-11.922,7.059-2.293,33.895   C218.801,591.035,223.465,586.41,228.203,581.762z"/>
	<path style="fill:#191919;" d="M302.539,729.426c0,0-0.629-1.477-1.793-4.16c-1.516,0.77-2.949,1.52-4.301,2.223   C299.5,730.25,301.648,731.102,302.539,729.426z"/>
	<g>
		<path style="fill:#d38972;" d="M806.41,299.855c-10.508,3.824-64.383,84.988-64.402,85.02c6.332-4.289,15.57-9.184,29.34-14.578    l37.973-13.27c-0.957-12.652,4.734-22.156,4.734-22.156C831.102,308.418,816.918,296.035,806.41,299.855z"/>
		<path style="fill:#d38972;" d="M584.019,280.969c-9.469,9.441-1.238,34.707-1.238,34.707c-49.457,6.992-66.871,37.75-66.871,37.75    v-0.008c-1.262,5.355-2.531,10.539-3.789,15.41l-0.219-0.066l-11.996,56.141c19.035,6.387,40.719,15.215,62.625,27.289    c5.785-15.473,20.113-38.352,54.93-46.207c-11.297-17.469-16.269-37.223-16.269-37.223c12.992,23.395,37.984,34.516,37.984,34.516    c14.816,0.609,25.906,0.832,29.492,0.379c1.332-0.16,2.562-0.402,3.746-0.676c0.313-0.07,0.613-0.156,0.922-0.234    c0.898-0.23,1.762-0.496,2.582-0.789c0.238-0.086,0.492-0.16,0.715-0.246c1.004-0.402,1.953-0.828,2.836-1.293    c0.102-0.051,0.183-0.113,0.285-0.168c0.766-0.418,1.469-0.867,2.144-1.328c0.207-0.156,0.41-0.305,0.621-0.453    c0.57-0.426,1.109-0.879,1.617-1.34c0.137-0.121,0.285-0.242,0.418-0.375c0.551-0.523,1.066-1.063,1.539-1.617    c-0.008,0-0.02-0.008-0.023-0.008C667.012,392.988,592.43,378.309,584.019,280.969z"/>
		<path style="fill:#d38972;" d="M604.934,325.094c0.75-6.156-1.918-33.836-1.918-33.836c-2.816-7.129-6.934-7.832-6.934-7.832    l-4.875,2.738c-3.723,11.691,6.898,35.98,6.898,35.98L604.934,325.094z"/>
	</g>
	<path style="fill:#191919;" d="M433.453,653.231c-0.234,0.223-0.473,0.434-0.711,0.652c0.133-0.109,0.285-0.207,0.418-0.32   L433.453,653.231z"/>
	<path style="fill:#191919;" d="M511.109,848.414c0,0-151.937,4.477-246.66,4.672l-12.23,31.41l265.051-23.188   c0,0,88.332,43.117,148.125,39.5l0,0l4.758-29.004l0.32-1.961C577.637,882.316,511.109,848.414,511.109,848.414z"/>
	<path style="fill:#191919;" d="M314.754,726.992c-0.41,0.141-0.824,0.106-1.199-0.039l-4.273,10.984l43.746,4.586l68.902-76.496   C353.727,713.25,314.895,726.938,314.754,726.992z"/>
	<path style="fill:#191919;" d="M601.191,368.762c0,0,4.973,19.754,16.269,37.223c4.211,6.516,9.301,12.715,15.344,17.457   l6.371-20.164C639.176,403.277,614.184,392.156,601.191,368.762z"/>
	<path style="fill:#191919;" d="M441.375,442.914c3.332-0.246,6.703-0.363,10.078-0.363c41.43-0.016,85.449,17.547,119.051,35.168   c16.797,8.805,31,17.621,40.988,24.23c5.004,3.297,8.945,6.047,11.637,7.973c1.344,0.961,2.379,1.715,3.078,2.23   c0.691,0.512,1.043,0.777,1.043,0.777c0.758,0.582,1.844,0.43,2.422-0.328c0.578-0.762,0.426-1.844-0.328-2.426l0,0   c-0.055-0.039-23.367-17.77-57.231-35.52c-33.879-17.742-78.262-35.547-120.66-35.566c-3.457,0-6.902,0.121-10.328,0.371   c-0.961,0.07-1.672,0.898-1.598,1.848C439.594,442.266,440.422,442.98,441.375,442.914z"/>
	<path style="fill:#191919;" d="M681.289,295.328l1.34-0.309v-11.594c0-0.953-0.785-1.727-1.738-1.727   c-0.953,0-1.723,0.773-1.723,1.727h-0.008v0.648v8.09c-0.66,0.078-1.535,0.145-2.57,0.145c-3.004,0-7.269-0.586-11.457-3.02   c-0.367-0.215-0.742-0.426-1.113-0.668c-0.797-0.531-1.867-0.32-2.398,0.484c-0.527,0.789-0.316,1.863,0.477,2.391   c5.297,3.523,10.773,4.273,14.492,4.273C679.375,295.77,681.191,295.352,681.289,295.328z"/>
	<path style="fill:#191919;" d="M684.945,345.973c-2.996-1.098-11.113-4.758-13.961-12.988c8.98-0.879,13.176,3.504,15.109,7.852   V329.48c0,0-9.383-0.465-16.086-3.367C669.543,339.336,681.238,344.633,684.945,345.973z"/>
	<path style="fill:#191919;" d="M685.957,346.313c-0.059-0.012-0.156-0.051-0.254-0.082   C685.82,346.273,685.898,346.301,685.957,346.313z"/>
	<path style="fill:#191919;" d="M685.539,346.18c-0.145-0.043-0.309-0.102-0.496-0.176   C685.238,346.078,685.394,346.137,685.539,346.18z"/>
	<path style="fill:#4ecc82;" d="M670.984,332.984c2.848,8.23,10.965,11.891,13.961,12.988c0.031,0.012,0.063,0.023,0.098,0.031   c0.187,0.074,0.351,0.133,0.496,0.176c0.066,0.023,0.113,0.035,0.164,0.051c0.098,0.031,0.195,0.07,0.254,0.082   c0.082,0.027,0.137,0.043,0.137,0.043v-5.52C684.16,336.488,679.965,332.105,670.984,332.984z"/>
	<path style="fill:#dbcece;" d="M670.008,326.113L670.008,326.113c6.703,2.902,16.086,3.367,16.086,3.367v-6.094h-15.867   C670.086,324.344,670.031,325.23,670.008,326.113z"/>
	<path style="fill:#191919;" d="M702.922,748.805c0,0-0.508,0.348-1.465,0.996c-3.379,2.258-12.23,8.023-23.176,13.715   c-10.926,5.684-23.977,11.293-35.578,13.273c-0.949,0.16-1.574,1.059-1.418,2c0.164,0.941,1.063,1.578,1.996,1.414   c13.977-2.418,29.297-9.555,41.219-16.09c11.879-6.516,20.332-12.434,20.406-12.484v-0.004c0.785-0.543,0.973-1.625,0.43-2.402   c-0.027-0.043-0.066-0.059-0.09-0.082C704.676,748.445,703.672,748.269,702.922,748.805z"/>
	<path style="fill:#191919;" d="M697.91,791.769L697.91,791.769l-0.297,0.191c-2.973,1.922-28.461,17.711-54.793,20.32   c-0.949,0.09-1.648,0.953-1.551,1.887c0.094,0.961,0.945,1.652,1.899,1.559c29.246-2.957,56.523-21.004,56.641-21.066   c0.723-0.481,0.941-1.379,0.594-2.141c-0.031-0.078-0.051-0.18-0.102-0.262c-0.074-0.106-0.18-0.176-0.273-0.277   C699.453,791.441,698.59,791.324,697.91,791.769z"/>
	<path style="fill:#191919;" d="M691.438,826.215L691.438,826.215l-0.266,0.188c-1.375,0.957-7.891,5.379-16.863,9.785   c-8.965,4.422-20.391,8.805-31.469,9.777c-0.953,0.09-1.656,0.934-1.574,1.867c0.09,0.961,0.926,1.664,1.883,1.582   c12.543-1.121,25.066-6.223,34.492-11.027c8.645-4.406,14.621-8.523,15.609-9.215c0.094-0.07,0.195-0.148,0.207-0.148   c0.731-0.519,0.91-1.5,0.465-2.258c-0.031-0.059-0.039-0.105-0.066-0.152C693.301,825.844,692.223,825.668,691.438,826.215z"/>
	<g>
		<path style="fill:#4ecc82;" d="M673.508,563.277c-15.398-31.082-36.582-56.035-59.981-76.043    c-16.324-13.961-33.723-25.516-50.996-35.043c-21.906-12.074-43.59-20.902-62.625-27.289    c-36.18-12.129-62.738-15.457-62.738-15.457l-12.215,31.375c-49.605-29.141-208.422,120.887-208.422,120.887    c4.012,6.754,7.895,13.445,11.672,20.055c39.145,68.406,65.648,127.688,72.543,143.504c1.164,2.684,1.793,4.16,1.793,4.16    s3.684-1.352,9.941-3.918c-0.063-0.77,0.363-1.512,1.121-1.785c0,0,0.148-0.047,0.453-0.164c0.313-0.113,0.785-0.289,1.414-0.543    c1.258-0.492,3.137-1.246,5.621-2.324c4.98-2.152,12.387-5.547,22.059-10.555c19.352-10,47.762-26.398,83.961-51.949    c1.973-1.387,3.824-2.832,5.633-4.305c0.238-0.219,0.477-0.43,0.711-0.652l-0.293,0.332c6.156-5.043,11.43-10.547,15.949-16.383    c6.344-8.199,11.207-17.063,14.832-26.293c7.012-17.856,9.465-37.039,9.465-55.082c0-11.918-1.07-23.332-2.586-33.527    c-3.387-22.707-8.988-39.367-9.938-42.07c-0.094-0.258-0.137-0.379-0.137-0.379l0,0c-0.328-0.895,0.137-1.891,1.035-2.219    c0.895-0.324,1.891,0.141,2.215,1.035c0.039,0.109,12.871,35.434,12.871,77.16c0,3.672-0.133,7.406-0.352,11.168    c-0.719,12.43-2.707,25.172-6.66,37.547c-0.816,2.555-1.699,5.106-2.699,7.633c-7.207,18.387-19.18,35.559-38.051,48.867    c-2.43,1.711-4.816,3.375-7.176,5.008l-68.902,76.496l164.242,17.191c39.777-9.473,111.582-54.039,121.906-42.477    c14.352,16.059-10.879,30.828-10.879,30.828c35.473-7.168,67.984-35.566,67.984-35.566c0.332-5.164,0.988-9.391,1.848-12.883    C701.652,644.539,691.555,599.699,673.508,563.277z M629.672,512.602c-0.578,0.758-1.664,0.91-2.422,0.328    c0,0-0.352-0.266-1.043-0.777c-0.699-0.516-1.734-1.269-3.078-2.23c-2.691-1.926-6.633-4.676-11.637-7.973    c-9.988-6.609-24.191-15.426-40.988-24.23c-33.602-17.621-77.621-35.184-119.051-35.168c-3.375,0-6.746,0.117-10.078,0.363    c-0.953,0.066-1.781-0.648-1.848-1.605c-0.074-0.949,0.637-1.777,1.598-1.848c3.426-0.25,6.871-0.371,10.328-0.371    c42.398,0.02,86.781,17.824,120.66,35.566c33.863,17.75,57.176,35.48,57.231,35.52l0,0    C630.098,510.758,630.25,511.84,629.672,512.602z"/>
		<path style="fill:#4ecc82;" d="M517.269,861.309l-265.051,23.188l12.23-31.41l-80.809,207.574h455.535l26.219-159.852    C605.602,904.426,517.269,861.309,517.269,861.309z"/>
		<polygon style="fill:#EDD9B5;" points="309.277,737.938 309.281,737.938 313.555,726.953   "/>
	</g>
	<path style="fill:#191919;" d="M313.555,726.953L313.555,726.953c0.375,0.145,0.789,0.18,1.199,0.039   c0.141-0.055,38.973-13.742,107.176-60.965c2.359-1.633,4.746-3.297,7.176-5.008c18.871-13.309,30.844-30.48,38.051-48.867   c1-2.527,1.883-5.078,2.699-7.633c3.953-12.375,5.941-25.117,6.66-37.547c0.219-3.762,0.352-7.496,0.352-11.168   c0-41.727-12.832-77.051-12.871-77.16c-0.324-0.895-1.32-1.359-2.215-1.035c-0.898,0.328-1.363,1.324-1.035,2.219l0,0   c0,0,0.043,0.121,0.137,0.379c0.949,2.703,6.551,19.363,9.938,42.07c1.516,10.195,2.586,21.609,2.586,33.527   c0,18.043-2.453,37.227-9.465,55.082c-3.625,9.23-8.488,18.094-14.832,26.293c-4.52,5.836-9.793,11.34-15.949,16.383   c-0.133,0.113-0.285,0.211-0.418,0.32c-1.809,1.473-3.66,2.918-5.633,4.305c-36.199,25.551-64.609,41.949-83.961,51.949   c-9.672,5.008-17.078,8.402-22.059,10.555c-2.484,1.078-4.363,1.832-5.621,2.324c-0.629,0.254-1.102,0.43-1.414,0.543   c-0.305,0.117-0.453,0.164-0.453,0.164c-0.758,0.273-1.184,1.016-1.121,1.785c0.016,0.141,0.016,0.285,0.066,0.422   C312.723,726.43,313.102,726.777,313.555,726.953z"/>
	<path style="fill:#191919;" d="M744.48,613.102L744.48,613.102c0,0.012,33.656,86.793,48.957,122.629   c0.375,0.875,1.387,1.297,2.269,0.914c0.875-0.375,1.285-1.394,0.906-2.269c-7.621-17.852-19.848-48.496-30.172-74.66   c-5.16-13.086-9.844-25.051-13.238-33.75c-1.695-4.344-3.074-7.871-4.019-10.32c-0.957-2.438-1.481-3.793-1.481-3.797   c-0.316-0.817-1.191-1.227-2.023-1.023c-0.066,0.019-0.137,0.012-0.215,0.043c-0.34,0.125-0.59,0.371-0.777,0.656   C744.379,611.977,744.262,612.555,744.48,613.102z"/>
	<path style="fill:#CE846C;" d="M894.934,808.215c16.016-16.457,22.102-36.512,13.586-44.805c-8.508-8.27-28.391-1.656-44.41,14.805   c-16.02,16.465-22.102,36.516-13.598,44.801C859.023,831.301,878.906,824.664,894.934,808.215z"/>
	<path style="fill:#CE846C;" d="M132.781,771.152c-9.223,7.473-4.996,27.992,9.465,45.844   c14.445,17.856,33.641,26.258,42.879,18.781c9.223-7.465,4.996-27.984-9.461-45.836   C161.207,772.09,142.016,763.676,132.781,771.152z"/>
	<path style="fill:#191919;" d="M282.043,733.348c-0.055-0.004-49.379-8.41-90.223-8.414c-12.355,0-23.938,0.762-33.234,2.805   c-0.938,0.203-1.523,1.125-1.324,2.055c0.207,0.938,1.125,1.527,2.066,1.324c8.887-1.957,20.281-2.727,32.492-2.727   c20.195,0,42.629,2.09,59.996,4.188c8.68,1.043,16.098,2.09,21.34,2.871c2.621,0.398,4.703,0.719,6.121,0.961   c1.426,0.219,2.18,0.348,2.184,0.348c0.941,0.16,1.836-0.469,2-1.41c0-0.039-0.012-0.082-0.012-0.121   c0.039-0.34-0.039-0.66-0.184-0.949C283.02,733.813,282.602,733.445,282.043,733.348z"/>
	<g>
		<path style="fill:#e09c83;" d="M948.609,329.691c-0.563-1.438-1.195-2.68-1.844-3.848c-0.035,0.02-0.047,0.051-0.078,0.063    c-0.586,0.297-1.242,0.207-1.75-0.141h-0.063c-0.457-0.008-1.457,0.129-2.746,0.438c-1.309,0.297-2.945,0.758-4.848,1.348    c-3.824,1.184-8.727,2.891-14.379,4.98c-11.297,4.188-25.59,9.883-40.297,15.914c-29.398,12.074-60.48,25.496-72.84,30.863    c-3.531,1.527-5.523,2.41-5.527,2.41l-0.582,0.25l-0.613-0.18c-4.395-1.313-8.461-2.227-12.262-2.848    c-4.141-0.672-7.953-0.992-11.43-0.992c-13.586,0.012-22.336,4.5-27.836,9.078c-3.82,3.184-6.031,6.398-7.102,8.227    c-0.473,0.805-0.746,1.371-0.805,1.5l-0.016,0.023v0.008c-0.375,0.871-1.387,1.281-2.266,0.91    c-0.871-0.379-1.285-1.395-0.91-2.273c0.074-0.16,2.309-5.355,8.312-10.57c5.992-5.207,15.793-10.371,30.621-10.355    c5.301,0,11.238,0.652,17.875,2.176c1.992,0.449,4.059,1.016,6.18,1.637c3.5-1.531,24.527-10.695,49.41-21.191    c18.324-7.727,38.715-16.172,55.695-22.797c14.098-5.5,25.793-9.746,32.203-11.336c1.5-0.371,2.664-0.574,3.68-0.633    c-7.703-9.383-18.383-6.098-18.383-6.098L809.32,357.027l-37.973,13.27c-13.77,5.395-23.008,10.289-29.34,14.578    c-13.902,9.418-13.711,15.887-16.445,18.148c-22.211,18.402,0.523,129.223,20.117,207.801c0.832-0.203,1.707,0.207,2.023,1.023    c0,0.004,0.523,1.359,1.481,3.797c0.945,2.449,2.324,5.977,4.019,10.32c3.395,8.699,8.078,20.664,13.238,33.75    c10.324,26.164,22.551,56.809,30.172,74.66c0.379,0.875-0.031,1.894-0.906,2.269c-0.883,0.383-1.894-0.039-2.269-0.914    c-15.301-35.836-48.957-122.617-48.957-122.629l0,0c-0.219-0.547-0.102-1.125,0.207-1.578l-71.18-48.246    c18.047,36.422,28.144,81.262,24.621,136.34c-0.859,3.492-1.516,7.719-1.848,12.883c0,0-32.512,28.398-67.984,35.566    c0,0,25.23-14.77,10.879-30.828c-10.324-11.563-82.129,33.004-121.906,42.477l-164.242-17.191l-43.746-4.586h-0.004l-25.828-2.711    c0,0.039,0.012,0.082,0.012,0.121c-0.164,0.941-1.059,1.57-2,1.41c-0.004,0-0.758-0.129-2.184-0.348    c-1.418-0.242-3.5-0.563-6.121-0.961c-5.242-0.781-12.66-1.828-21.34-2.871c-17.367-2.098-39.801-4.188-59.996-4.188    c-12.211,0-23.605,0.77-32.492,2.727c-0.941,0.203-1.859-0.387-2.066-1.324c-0.199-0.93,0.387-1.852,1.324-2.055    c9.297-2.043,20.879-2.805,33.234-2.805c40.844,0.004,90.168,8.41,90.223,8.414c0.559,0.098,0.977,0.465,1.223,0.93    c2.234-1.152,6.875-3.531,13.18-6.789c1.352-0.703,2.785-1.453,4.301-2.223c-6.895-15.816-33.398-75.098-72.543-143.504    c-4.738,4.648-9.402,9.273-13.965,13.84c-40.668,40.695-73.34,76.934-82.496,88.766c-39.211,50.68-24.871,154.008,62.566,166.902    c9.648,1.422,36.23,1.902,70.141,1.816c94.723-0.195,246.66-4.672,246.66-4.672s66.527,33.902,159.363,21.43    c1.59-0.219,3.168-0.414,4.77-0.652c0,0,33.945-9.023,18.008-40.02c-0.988,0.691-6.965,4.809-15.609,9.215    c-9.426,4.805-21.949,9.906-34.492,11.027c-0.957,0.082-1.793-0.621-1.883-1.582c-0.082-0.934,0.621-1.777,1.574-1.867    c11.078-0.973,22.504-5.355,31.469-9.777c8.973-4.406,15.488-8.828,16.863-9.785l0.266-0.188l0,0    c0.785-0.547,1.863-0.371,2.418,0.398c0.027,0.047,0.035,0.094,0.066,0.152c4.883-3.121,19.645-14.695,6.48-34.246    c0.348,0.762,0.129,1.66-0.594,2.141c-0.117,0.063-27.395,18.109-56.641,21.066c-0.953,0.094-1.805-0.598-1.899-1.559    c-0.098-0.934,0.602-1.797,1.551-1.887c26.332-2.609,51.82-18.398,54.793-20.32l0.297-0.191c0.68-0.445,1.543-0.328,2.117,0.211    c-0.375-0.539-0.75-1.078-1.172-1.641c0,0,6.316-7.777,8.855-17.758c58.191,32.316,126.539,65.035,157.953,60.559    c67.684-9.633,48.742-102.855,48.742-102.855L813.953,461.402c0,0,84.098-73.977,121.594-101.832    c1.535-1.148,2.867-2.293,4.098-3.445c-0.148-0.152-0.254-0.316-0.332-0.516c-0.063-0.156-0.129-0.313-0.152-0.484l0,0    l-0.004-0.059l-0.043-0.258c-0.051-0.25-0.129-0.609-0.277-1.059c-0.289-0.891-0.82-2.094-1.754-3.293    c-1.906-2.367-5.355-4.883-12.664-4.91c-3.715,0-8.414,0.684-14.301,2.469c-6.242,1.871-14.637,5.941-23.82,11.156    c-9.176,5.215-19.191,11.563-28.832,17.992c-17.496,11.672-33.754,23.617-41.816,29.641c-0.82,0.617-1.594,1.191-2.238,1.676    c-1.984,1.496-3.078,2.336-3.078,2.336c-0.766,0.582-1.848,0.441-2.426-0.316c-0.586-0.762-0.441-1.852,0.32-2.43    c0.031-0.016,39.813-30.496,72.344-49.582c10.859-6.367,20.887-11.469,28.555-13.789c6.133-1.848,11.156-2.613,15.293-2.613    c8.117-0.027,12.902,3.031,15.379,6.234c1.508,1.93,2.211,3.824,2.535,5.059C953.234,341.047,948.609,329.691,948.609,329.691z     M185.125,835.777c-9.238,7.477-28.434-0.926-42.879-18.781c-14.461-17.852-18.688-38.371-9.465-45.844    c9.234-7.477,28.426,0.938,42.883,18.789C190.121,807.793,194.348,828.313,185.125,835.777z M704.906,751.625v0.004    c-0.074,0.051-8.527,5.969-20.406,12.484c-11.922,6.535-27.242,13.672-41.219,16.09c-0.934,0.164-1.832-0.473-1.996-1.414    c-0.156-0.941,0.469-1.84,1.418-2c11.602-1.981,24.652-7.59,35.578-13.273c10.945-5.691,19.797-11.457,23.176-13.715    c0.957-0.648,1.465-0.996,1.465-0.996c0.75-0.535,1.754-0.359,2.324,0.336c0.023,0.023,0.063,0.039,0.09,0.082    C705.879,750,705.691,751.082,704.906,751.625z M864.109,778.215c16.02-16.461,35.902-23.074,44.41-14.805    c8.516,8.293,2.43,28.348-13.586,44.805c-16.027,16.449-35.91,23.086-44.422,14.801    C842.008,814.731,848.09,794.68,864.109,778.215z"/>
		<path style="fill:#e09c83;" d="M639.176,403.277l-6.371,20.164c-6.043-4.742-11.133-10.941-15.344-17.457    c-34.816,7.855-49.144,30.734-54.93,46.207c17.273,9.527,34.672,21.082,50.996,35.043L639.176,403.277z"/>
		<path style="fill:#e09c83;" d="M686.07,395.129c5.867-6.918,5.75-15.516,5.75-16.484c0-1.547,0.34-64.059,0.34-64.059h11.168    c0,0-3.727-33.449-10.461-57.211c-13.195,0.285-49.156-8.887-49.156-8.887c7.879,40.137-34.168,55.773-34.168,55.773    c0.234-7.301-0.234-29.977-19.121-26.535c-2.73,0.5-4.809,1.652-6.402,3.242C592.43,378.309,667.012,392.988,686.07,395.129z     M686.094,329.48v11.355v5.52c0,0-0.055-0.016-0.137-0.043c-0.059-0.012-0.137-0.039-0.254-0.082    c-0.051-0.016-0.098-0.027-0.164-0.051c-0.145-0.043-0.301-0.102-0.496-0.176c-0.035-0.008-0.066-0.02-0.098-0.031    c-3.707-1.34-15.402-6.637-14.938-19.859c0.023-0.883,0.078-1.77,0.219-2.727h15.867V329.48z M682.629,283.426v11.594l-1.34,0.309    c-0.098,0.023-1.914,0.441-4.699,0.441c-3.719,0-9.195-0.75-14.492-4.273c-0.793-0.527-1.004-1.602-0.477-2.391    c0.531-0.805,1.602-1.016,2.398-0.484c0.371,0.242,0.746,0.453,1.113,0.668c4.188,2.434,8.453,3.02,11.457,3.02    c1.035,0,1.91-0.066,2.57-0.145v-8.09v-0.648h0.008c0-0.953,0.769-1.727,1.723-1.727    C681.844,281.699,682.629,282.473,682.629,283.426z M677.328,266.559l3.563,11.168h-26.766    C654.125,277.727,657.977,267.422,677.328,266.559z M604.934,325.094l-6.828-2.949c0,0-10.621-24.289-6.898-35.98l4.875-2.738    c0,0,4.117,0.703,6.934,7.832C603.016,291.258,605.684,318.938,604.934,325.094z"/>
	</g>
	<path style="fill:#191919;" d="M924.418,342.086c-4.137,0-9.16,0.766-15.293,2.613c-7.668,2.32-17.695,7.422-28.555,13.789   c-32.531,19.086-72.313,49.566-72.344,49.582c-0.762,0.578-0.906,1.668-0.32,2.43c0.578,0.758,1.66,0.898,2.426,0.316   c0,0,1.094-0.84,3.078-2.336c0.645-0.484,1.418-1.059,2.238-1.676c8.063-6.023,24.32-17.969,41.816-29.641   c9.641-6.43,19.656-12.777,28.832-17.992c9.184-5.215,17.578-9.285,23.82-11.156c5.887-1.785,10.586-2.469,14.301-2.469   c7.309,0.027,10.758,2.543,12.664,4.91c0.934,1.199,1.465,2.402,1.754,3.293c0.148,0.449,0.227,0.809,0.277,1.059l0.043,0.258   l0.004,0.059l0,0c0.023,0.172,0.09,0.328,0.152,0.484c0.078,0.199,0.184,0.363,0.332,0.516c0.356,0.375,0.848,0.605,1.399,0.555   c0.953-0.086,1.656-0.934,1.562-1.879l0,0c-0.012-0.078-0.062-0.609-0.273-1.422c-0.324-1.234-1.027-3.129-2.535-5.059   C937.32,345.117,932.535,342.059,924.418,342.086z"/>
	<g>
		<path style="fill:#825050;" d="M654.125,277.727h26.766l-3.563-11.168C657.977,267.422,654.125,277.727,654.125,277.727z"/>
		<path style="fill:#825050;" d="M746.922,189.711c-12.902-35.836-47.512-9.945-60.828-4.301    c-18.582,7.887-36.422,1.051-69.621-7.168c-49.453-12.23-68.805,7.891-85.293,22.223L515.91,353.418v0.008    c0,0,17.414-30.758,66.871-37.75c0,0-8.231-25.266,1.238-34.707c1.594-1.59,3.672-2.742,6.402-3.242    c18.887-3.441,19.355,19.234,19.121,26.535c0,0,42.047-15.637,34.168-55.773c0,0,35.961,9.172,49.156,8.887    C692.887,257.367,763.703,236.32,746.922,189.711z M542.113,209.148c5.106-8.746,11.168-14.742,17.895-18.516    c6.719-3.773,14.066-5.301,21.664-5.301c14.957,0.016,30.969,5.828,46.367,12.223c15.387,6.395,30.184,13.414,42.285,16.023    c3.328,0.719,6.461,1.043,9.41,1.043c14.117-0.004,24.324-7.395,31.227-15.188c6.883-7.773,10.32-15.867,10.672-16.73l0.024-0.074    c0.351-0.887,1.355-1.328,2.246-0.98c0.887,0.352,1.324,1.359,0.973,2.254c-0.047,0.102-3.359,8.523-10.633,17.023    c-7.242,8.492-18.606,17.156-34.508,17.156c-3.203,0-6.59-0.359-10.141-1.125c-12.746-2.766-27.586-9.855-42.887-16.215    c-15.281-6.363-30.984-11.961-45.035-11.945c-7.148,0-13.848,1.418-19.973,4.855c-6.129,3.438-11.73,8.918-16.602,17.246    c-0.484,0.82-1.547,1.102-2.363,0.617C541.906,211.027,541.625,209.973,542.113,209.148z M565.801,227.109    c0.934,0.211,1.516,1.141,1.309,2.074c-0.059,0.238-5.613,24.477-35.969,60.656c-0.609,0.734-1.699,0.828-2.434,0.215    c-0.73-0.613-0.824-1.703-0.215-2.43c29.063-34.648,34.938-57.961,35.23-59.16l0.008-0.043l0,0    C563.945,227.484,564.871,226.898,565.801,227.109z M528.164,254.418c6.047-19.039,17.945-38.891,17.973-38.953    c0.488-0.82,1.551-1.086,2.371-0.598c0.816,0.488,1.09,1.551,0.602,2.371c0,0-0.18,0.297-0.516,0.867    c-0.332,0.57-0.813,1.414-1.414,2.48c-1.191,2.137-2.848,5.176-4.691,8.805c-3.672,7.25-8.098,16.828-11.023,26.07    c-0.289,0.91-1.258,1.414-2.176,1.125C528.383,256.301,527.883,255.328,528.164,254.418z M596.34,241.809    c-3.129,10.852-9.422,23.82-22.195,31.797c-12.269,7.648-23.359,14.438-32.078,22.563c-8.723,8.125-15.094,17.516-18.176,30.656    c-0.219,0.934-1.148,1.508-2.078,1.293c-0.93-0.215-1.508-1.145-1.285-2.074c3.211-13.848,10.09-23.961,19.184-32.41    c9.082-8.453,20.356-15.316,32.606-22.957c11-6.863,16.93-17.914,20.102-27.852c3.172-9.926,3.551-18.641,3.59-20.473v-0.359    c0-0.945,0.781-1.723,1.73-1.723c0.961,0,1.734,0.777,1.734,1.723C599.473,222.102,599.473,230.949,596.34,241.809z     M743.566,200.266c-0.023,0.051-3.109,6.438-8.543,14.445c-5.449,8.012-13.242,17.645-22.84,24.176    c-6.387,4.348-13.633,7.324-21.496,7.324c-0.637,0-1.285-0.02-1.934-0.059c-6.461-0.414-13.949-3.039-22.211-6.668    c-8.25-3.629-17.254-8.297-26.543-12.898c-18.559-9.211-38.336-18.098-55.02-18.063c-8.637,0.004-16.391,2.297-23.043,8.051    c-0.727,0.629-1.805,0.547-2.441-0.176c-0.621-0.719-0.543-1.813,0.176-2.441c7.34-6.359,16.063-8.906,25.309-8.898    c13.41,0.012,28.012,5.203,42.359,11.664c14.34,6.465,28.442,14.254,40.602,19.598c8.102,3.574,15.348,6.031,21.023,6.379    c0.578,0.031,1.152,0.055,1.723,0.055c6.531,0,12.719-2.324,18.418-5.98c5.703-3.652,10.879-8.633,15.293-13.801    c8.832-10.313,14.613-21.336,15.816-23.734c0.16-0.32,0.242-0.477,0.242-0.477c0.414-0.863,1.441-1.219,2.301-0.805    C743.613,198.363,743.984,199.395,743.566,200.266z"/>
	</g>
	<path style="fill:#191919;" d="M709.105,236.773c-5.699,3.656-11.887,5.98-18.418,5.98c-0.57,0-1.144-0.023-1.723-0.055   c-5.676-0.348-12.922-2.805-21.023-6.379c-12.16-5.344-26.262-13.133-40.602-19.598c-14.348-6.461-28.949-11.652-42.359-11.664   c-9.246-0.008-17.969,2.539-25.309,8.898c-0.719,0.629-0.797,1.723-0.176,2.441c0.637,0.723,1.715,0.805,2.441,0.176   c6.652-5.754,14.406-8.047,23.043-8.051c16.684-0.035,36.461,8.852,55.02,18.063c9.289,4.602,18.293,9.27,26.543,12.898   c8.262,3.629,15.75,6.254,22.211,6.668c0.648,0.039,1.297,0.059,1.934,0.059c7.863,0,15.109-2.977,21.496-7.324   c9.598-6.531,17.391-16.164,22.84-24.176c5.434-8.008,8.52-14.395,8.543-14.445c0.418-0.871,0.047-1.902-0.809-2.309   c-0.859-0.414-1.887-0.059-2.301,0.805c0,0-0.082,0.156-0.242,0.477c-1.203,2.398-6.984,13.422-15.816,23.734   C719.984,228.141,714.809,233.121,709.105,236.773z"/>
	<path style="fill:#191919;" d="M542.734,211.516c0.816,0.484,1.879,0.203,2.363-0.617c4.871-8.328,10.473-13.809,16.602-17.246   c6.125-3.438,12.824-4.855,19.973-4.855c14.051-0.016,29.754,5.582,45.035,11.945c15.301,6.359,30.141,13.449,42.887,16.215   c3.551,0.766,6.938,1.125,10.141,1.125c15.902,0,27.266-8.664,34.508-17.156c7.273-8.5,10.586-16.922,10.633-17.023   c0.352-0.895-0.086-1.902-0.973-2.254c-0.891-0.348-1.895,0.094-2.246,0.98l-0.024,0.074c-0.351,0.863-3.789,8.957-10.672,16.73   c-6.902,7.793-17.109,15.184-31.227,15.188c-2.949,0-6.082-0.324-9.41-1.043c-12.102-2.609-26.898-9.629-42.285-16.023   c-15.398-6.395-31.41-12.207-46.367-12.223c-7.598,0-14.945,1.527-21.664,5.301c-6.727,3.773-12.789,9.77-17.895,18.516   C541.625,209.973,541.906,211.027,542.734,211.516z"/>
	<path style="fill:#191919;" d="M521.813,328.117c0.93,0.215,1.859-0.359,2.078-1.293c3.082-13.141,9.453-22.531,18.176-30.656   c8.719-8.125,19.809-14.914,32.078-22.563c12.774-7.977,19.066-20.945,22.195-31.797c3.133-10.859,3.133-19.707,3.133-19.816   c0-0.945-0.773-1.723-1.734-1.723c-0.949,0-1.73,0.777-1.73,1.723v0.359c-0.039,1.832-0.418,10.547-3.59,20.473   c-3.172,9.938-9.102,20.988-20.102,27.852c-12.25,7.641-23.523,14.504-32.606,22.957c-9.094,8.449-15.973,18.563-19.184,32.41   C520.305,326.973,520.883,327.902,521.813,328.117z"/>
	<path style="fill:#191919;" d="M531.141,289.84c30.356-36.18,35.91-60.418,35.969-60.656c0.207-0.934-0.375-1.863-1.309-2.074   c-0.93-0.211-1.855,0.375-2.07,1.313l0,0l-0.008,0.043c-0.293,1.199-6.168,24.512-35.23,59.16c-0.609,0.727-0.516,1.816,0.215,2.43   C529.441,290.668,530.531,290.574,531.141,289.84z"/>
	<path style="fill:#191919;" d="M529.289,256.586c0.918,0.289,1.887-0.215,2.176-1.125c2.926-9.242,7.352-18.82,11.023-26.07   c1.844-3.629,3.5-6.668,4.691-8.805c0.602-1.066,1.082-1.91,1.414-2.48c0.336-0.57,0.516-0.867,0.516-0.867   c0.488-0.82,0.215-1.883-0.602-2.371c-0.82-0.488-1.883-0.223-2.371,0.598c-0.027,0.063-11.926,19.914-17.973,38.953   C527.883,255.328,528.383,256.301,529.289,256.586z"/>
</g>
<g>
	<path style="fill:#be745f;" d="M1261.172,897.398c-9.16,8.918-2.605,30.492,14.625,48.203   c17.238,17.707,38.637,24.84,47.793,15.926c9.152-8.914,2.605-30.492-14.633-48.199   C1291.719,895.621,1270.332,888.488,1261.172,897.398z"/>
	<path style="fill:#7ab792;" d="M1492.371,316.816v8.895h32.211C1524.582,325.711,1516.508,316.527,1492.371,316.816z"/>
	<path style="fill:#7ab792;" d="M1492.371,337.383v9.984c0,0,23.621,0.789,32.211-21.656   C1516.152,339.984,1492.371,337.383,1492.371,337.383z"/>
	<path style="fill:#E8E4F2;" d="M1492.371,337.383c0,0,23.781,2.602,32.211-11.672h-32.211V337.383z"/>
	<g>
		<path style="fill:#74e7a4;" d="M1734.719,435.074c0,0-22.75,0.004-54.691,8.082c-17.309,4.375-37.313,11.141-57.855,21.547    c-7.223,3.656-14.508,7.746-21.766,12.355l-5.105,32.68c18.547-13.438,37.172-23.199,54.43-30.262    c45.547-18.645,81.566-18.664,81.719-18.672l0.008,0.008c1.023,0,1.855,0.828,1.855,1.855c0,1.027-0.832,1.859-1.855,1.859    l-0.383,0.004c-0.266,0.008-0.66,0.016-1.184,0.035c-1.047,0.035-2.594,0.102-4.602,0.25c-4.016,0.285-9.852,0.863-17.094,2.012    c-14.484,2.301-34.602,6.898-57.055,16.094c-17.949,7.359-37.391,17.648-56.66,32.039l-34.148,218.625l92.57-122.797    c0,0,84.727-107.711,127.914-44.981c1.16,1.684,2.258,3.391,3.348,5.106c0.004,0.012,0.012,0.019,0.023,0.031    c91.578,124.617,22.66,261.211,22.66,261.211l-326.656,152.645l0.504,75.859h525.828L1734.719,435.074z"/>
		<polygon style="fill:#74e7a4;" points="1573.555,617.555 1567.691,662.363 1587.023,538.625   "/>
	</g>
	<g>
		<path style="fill:#d38972;" d="M1391.168,746.41c0.484,0.363,0.801,0.93,0.762,1.578c0,0.012-0.293,4.492-0.801,12.535    c-0.504,8.043-1.227,19.637-2.094,33.828c-1.734,28.391-4.047,67.191-6.363,108.832c-0.059,1.023-0.934,1.813-1.965,1.754    c-1.02-0.059-1.805-0.938-1.754-1.961c4.637-83.301,9.258-155.223,9.258-155.227l0,0c0.07-1.023,0.949-1.805,1.973-1.742    c0.051,0.004,0.078,0.031,0.125,0.031l15.363-117.367l23.422-137.285c-12.23-2.055-26.734-4.887-41.832-8.691    c-0.477-0.121-0.883-0.285-1.34-0.422l-185.051-15.184c0,0-4.629,20.906,18.508,26.738c40.133,10.113,76.105,13.367,76.105,13.367    s-24.672,10.219-4.879,26.305c0,0-24.957,4.797-5.406,31.617c0,0-18.523,18.168,7.184,36.676    c5.453,3.93,15.555,7.601,27.551,10.902c-54.5,101.66-133.695,287.57-30.629,357.613c24.273,16.5,77.91-11.852,132.582-50.879    c-36.324-70.508,0.816-182.566,40.84-267.945L1391.168,746.41z M1323.59,961.527c-9.156,8.914-30.555,1.781-47.793-15.926    c-17.23-17.711-23.785-39.285-14.625-48.203c9.16-8.91,30.547-1.777,47.785,15.93    C1326.195,931.035,1332.742,952.613,1323.59,961.527z M1358.195,569.867c-1.934,2.391-4.844,4.703-8.844,6.957    c1.078,2.238,2.777,6.484,2.797,11.34c0.012,3.32-0.855,6.969-3.422,10.144c-2.551,3.18-6.699,5.777-12.906,7.348l-0.465,0.117    l-38.32-10.41c-0.988-0.27-1.574-1.289-1.305-2.285c0.266-0.988,1.289-1.574,2.281-1.305l37.344,10.145    c5.383-1.438,8.594-3.606,10.473-5.941c1.938-2.406,2.594-5.098,2.602-7.813c0.02-4.484-1.938-8.816-2.77-10.434l-48.516-10.106    c-1.004-0.207-1.652-1.191-1.445-2.199c0.215-1.008,1.199-1.652,2.207-1.445l48.672,10.141c4.25-2.269,7.051-4.523,8.719-6.594    c1.742-2.172,2.324-4.09,2.336-5.906c0-1.641-0.516-3.25-1.379-4.805c-0.855-1.547-2.063-3.016-3.324-4.277    c-2.395-2.395-4.961-4.055-5.715-4.512l-37.734-7.906c-1.004-0.215-1.648-1.199-1.438-2.207c0.215-1.008,1.195-1.648,2.199-1.441    l37.57,7.875c6.973-2.102,11.336-4.738,13.891-7.414c2.602-2.75,3.457-5.508,3.477-8.309c0.012-3.547-1.539-7.188-3.273-10.023    c-1.418-2.336-2.879-4.055-3.57-4.824l-48.652-4.73c-1.023-0.102-1.77-1.008-1.672-2.035c0.098-1.02,1.008-1.773,2.039-1.668    l50.023,4.863l0.473,0.48c0.059,0.063,2.09,2.125,4.152,5.359c2.051,3.238,4.184,7.664,4.203,12.578    c0.016,3.621-1.262,7.504-4.512,10.879c-2.691,2.816-6.691,5.301-12.344,7.352c2.254,1.723,5.211,4.359,7.238,7.766    c1.211,2.047,2.066,4.41,2.07,7C1361.367,564.313,1360.387,567.164,1358.195,569.867z M1361.602,550.734    c0.375-0.961,1.449-1.43,2.41-1.059c13.91,5.43,23.078,12.387,28.75,20.098c5.676,7.703,7.781,16.113,7.777,24.164    c-0.012,11.34-4.082,22.023-8.109,29.906c-0.496,0.981-0.996,1.906-1.484,2.793c-3.48,6.269-6.566,10.188-6.613,10.246l0,0    c-0.637,0.805-1.805,0.941-2.613,0.309c-0.805-0.641-0.945-1.809-0.309-2.617l0.16-0.203c0.109-0.144,0.273-0.359,0.477-0.644    c0.422-0.57,1.023-1.418,1.75-2.5c0.906-1.363,2.023-3.137,3.195-5.18c0.699-1.211,1.41-2.488,2.125-3.898    c3.879-7.566,7.707-17.777,7.699-28.211c-0.004-7.426-1.895-14.938-7.051-21.961c-5.164-7.016-13.676-13.582-27.109-18.836    C1361.703,552.766,1361.227,551.691,1361.602,550.734z"/>
		<path style="fill:#d38972;" d="M1669.57,403.902l-60.281,16.301l-1.672,10.703c6.902,11.664,11.527,23.746,14.555,33.797    c20.543-10.406,40.547-17.172,57.855-21.547L1669.57,403.902z"/>
		<path style="fill:#d38972;" d="M1485.961,396.211l0.023,0.082c0.012,0.012,0.039,0.027,0.055,0.035    c0.023,0.031,0.059,0.055,0.105,0.082c0.039,0.02,0.09,0.047,0.148,0.063c0.063,0.027,0.129,0.055,0.215,0.078    c0.07,0.016,0.148,0.039,0.234,0.059c0.094,0.023,0.203,0.047,0.316,0.066c0.102,0.02,0.207,0.039,0.324,0.055    c0.129,0.023,0.266,0.039,0.41,0.055c0.125,0.02,0.262,0.035,0.398,0.047c0.168,0.02,0.332,0.039,0.508,0.051    c0.156,0.012,0.316,0.027,0.488,0.039c0.188,0.012,0.379,0.027,0.582,0.039c0.188,0.008,0.371,0.02,0.57,0.027    c0.211,0.012,0.43,0.02,0.652,0.031c0.211,0.008,0.43,0.012,0.652,0.02c0.242,0.004,0.484,0.012,0.738,0.016    c0.234,0.004,0.473,0.008,0.715,0.008c0.258,0,0.523,0.008,0.785,0.008s0.531-0.008,0.809-0.008c0.281,0,0.57,0,0.867-0.004    c0.262-0.008,0.535-0.012,0.809-0.02c0.32-0.004,0.645-0.012,0.969-0.02c0.277-0.008,0.566-0.02,0.848-0.027    c0.348-0.012,0.699-0.023,1.059-0.039c0.289-0.012,0.586-0.023,0.875-0.039c0.367-0.02,0.738-0.035,1.113-0.059    c0.301-0.012,0.617-0.031,0.934-0.051c0.387-0.023,0.777-0.047,1.176-0.07c0.305-0.027,0.625-0.047,0.934-0.066    c0.414-0.031,0.828-0.063,1.254-0.094c0.313-0.027,0.625-0.051,0.934-0.078c0.449-0.039,0.895-0.074,1.348-0.117    c0.301-0.027,0.613-0.055,0.918-0.09c0.473-0.043,0.945-0.09,1.43-0.141c0.301-0.031,0.613-0.066,0.914-0.102    c0.492-0.051,0.984-0.105,1.488-0.16c0.297-0.039,0.602-0.078,0.906-0.117c0.52-0.059,1.035-0.121,1.563-0.191    c0.289-0.039,0.574-0.078,0.867-0.117c0.543-0.074,1.082-0.152,1.633-0.227c0.297-0.047,0.594-0.094,0.895-0.137    c0.543-0.078,1.09-0.16,1.637-0.25c0.301-0.047,0.602-0.098,0.895-0.148c0.559-0.094,1.125-0.188,1.691-0.285    c0.277-0.047,0.555-0.102,0.832-0.152c0.582-0.105,1.168-0.207,1.758-0.324c0.273-0.055,0.551-0.109,0.824-0.16    c0.594-0.117,1.184-0.234,1.777-0.363c0.27-0.055,0.531-0.113,0.801-0.176c0.598-0.125,1.203-0.254,1.801-0.391    c0.273-0.063,0.547-0.133,0.82-0.195c0.594-0.141,1.188-0.277,1.777-0.426c0.277-0.07,0.551-0.145,0.828-0.215    c0.586-0.152,1.168-0.297,1.758-0.457c0.285-0.078,0.563-0.16,0.844-0.238c0.574-0.156,1.148-0.316,1.715-0.484    c0.301-0.086,0.594-0.184,0.898-0.277c0.547-0.164,1.098-0.328,1.641-0.5c0.293-0.098,0.578-0.195,0.871-0.293    c0.543-0.18,1.086-0.355,1.621-0.543c0.332-0.117,0.66-0.238,0.992-0.359c0.484-0.176,0.984-0.352,1.461-0.531    c0.809-0.309,1.602-0.625,2.391-0.953c0,0,23.125-12.316,37.004-23.113c0,0-6.598,16.195-15.012,30.078    c3.801,1.867,7.379,3.984,10.707,6.344c4.324-19.922,5.617-44.008,5.578-65.879    C1548.34,387.523,1485.961,396.211,1485.961,396.211z"/>
		<path style="fill:#d38972;" d="M1585.898,313.16c-0.133-3.551-0.293-6.969-0.465-10.191l-1.996-1.922    c-0.289,5.293-0.406,9.922-0.141,12.113H1585.898z"/>
		<path style="fill:#d38972;" d="M1441.484,418.762c0,0-28.207-2.617-41.344,39.773l34.078,2.797L1441.484,418.762z"/>
	</g>
	<path style="fill:#be745f;" d="M1491.477,950.394c9.152-8.914,2.605-30.484-14.633-48.199   c-17.23-17.707-38.629-24.836-47.785-15.926c-9.16,8.914-2.605,30.492,14.629,48.199   C1460.922,952.18,1482.316,959.309,1491.477,950.394z"/>
	<g>
		<path style="fill:#e09c83;" d="M1570.047,394.34c-5.105,8.434-10.879,16.012-16.258,18.602l-5.734-25.566l15.457,68.91    c0.363-1.66,0.762-3.395,1.23-5.199c1.746-6.645,4.301-14.074,8-21l-3.75,1.016c5.324-7.598,9.109-18.23,11.762-30.418    C1577.426,398.324,1573.848,396.207,1570.047,394.34z"/>
		<path style="fill:#e09c83;" d="M1485.961,396.211c0,0,62.379-8.688,100.371-61.406c-0.012-7.57-0.18-14.871-0.434-21.645h-2.602    c-0.266-2.191-0.148-6.82,0.141-12.113l-5.172-4.973c-3.961,13.457-8.246,20.734-8.246,20.734v-28.668    c-4.625-18.586-44.691-42.984-44.691-42.984c-11.422-7.563-22.918-16.223-32.848-24.414c-1.578,2.648-3.035,5.566-4.297,8.797    c-9.941,25.5-15.566,75.84-15.566,75.84h12.539C1485.156,305.379,1485.961,394.492,1485.961,396.211z M1499.797,257.75    c20.453-2.387,28.055,6.273,28.055,6.273h-30.047L1499.797,257.75z M1499.5,273.031h11.688c0,0-0.297,13.5-4.715,13.887    c-4.418,0.383-4.297-10.992-4.297-10.992L1499.5,273.031z M1492.371,337.383v-11.672v-8.895    c24.137-0.289,32.211,8.895,32.211,8.895c-8.59,22.445-32.211,21.656-32.211,21.656V337.383z"/>
		<path style="fill:#e09c83;" d="M1600.406,477.059c7.258-4.609,14.543-8.699,21.766-12.355    c-3.027-10.051-7.652-22.133-14.555-33.797L1600.406,477.059z"/>
		<path style="fill:#e09c83;" d="M1784.164,570.914c-1.09-1.715-2.188-3.422-3.348-5.106    c-43.188-62.73-127.914,44.981-127.914,44.981l-92.57,122.797l-0.516,3.297c-0.02,2.836-0.637,47.602-19.844,155.391    c-0.18,1.012-1.145,1.688-2.156,1.508c-1.016-0.183-1.688-1.148-1.508-2.16c17.324-97.234,19.484-143,19.75-152.824    c0.035-1.406,0.035-2.059,0.035-2.059v-0.148l11.598-74.227l5.863-44.809l13.469-78.93l22.348-130.992    c0,0-38.172-3.602-46.398,64.262l-1.855-0.152l-126.898-10.41l-34.078-2.797l-31.387-2.578c0,0-4.367,20.008,17.168,26.316    c0.457,0.137,0.863,0.301,1.34,0.422c15.098,3.805,29.602,6.637,41.832,8.691c20.277,3.41,34.281,4.68,34.281,4.68    s-24.672,10.219-4.887,26.301c0,0-24.953,4.801-5.398,31.621c0,0-18.523,18.168,7.184,36.676    c5.445,3.926,15.555,7.598,27.547,10.898c-8.047,15.016-16.633,31.875-25.094,49.922c-40.023,85.379-77.164,197.438-40.84,267.945    c7.977,15.488,19.477,28.992,35.301,39.746c5.977,4.059,13.758,5.367,22.867,4.504c80.719-7.652,267.848-188.484,267.848-188.484    C1811.953,714.523,1823.391,633.055,1784.164,570.914z M1491.477,950.394c-9.16,8.914-30.555,1.785-47.789-15.926    c-17.234-17.707-23.789-39.285-14.629-48.199c9.156-8.91,30.555-1.781,47.785,15.926    C1494.082,919.91,1500.629,941.481,1491.477,950.394z"/>
	</g>
	<g>
		<path style="fill:#191919;" d="M1499.797,257.75l-1.992,6.273h30.047C1527.852,264.023,1520.25,255.363,1499.797,257.75z"/>
		<path style="fill:#191919;" d="M1784.188,570.945c-0.012-0.012-0.02-0.02-0.023-0.031    c39.227,62.141,27.789,143.609-36.262,204.281c0,0-187.129,180.832-267.848,188.484l0.137,21.121l326.656-152.645    C1806.848,832.156,1875.766,695.563,1784.188,570.945z"/>
		<path style="fill:#191919;" d="M1525.328,245.156c0,0,40.066,24.398,44.691,42.984v28.668c0,0,4.285-7.277,8.246-20.734    l5.172,4.973l1.996,1.922c0.172,3.223,0.332,6.641,0.465,10.191c0.254,6.773,0.422,14.074,0.434,21.645    c0.039,21.871-1.254,45.957-5.578,65.879c-2.652,12.188-6.438,22.82-11.762,30.418l3.75-1.016c-3.699,6.926-6.254,14.355-8,21    c-0.469,1.805-0.867,3.539-1.23,5.199c-1.91,8.781-2.375,15.215-2.395,15.457l1.855,0.152    c8.227-67.863,46.398-64.262,46.398-64.262l-22.348,130.992l-19.332,123.738l-11.598,74.227v0.148c0,0,0,0.652-0.035,2.059    c-0.266,9.824-2.426,55.59-19.75,152.824c-0.18,1.012,0.492,1.977,1.508,2.16c1.012,0.18,1.977-0.496,2.156-1.508    c19.207-107.789,19.824-152.555,19.844-155.391l0.516-3.297l34.148-218.625c19.27-14.391,38.711-24.68,56.66-32.039    c22.453-9.195,42.57-13.793,57.055-16.094c7.242-1.148,13.078-1.727,17.094-2.012c2.008-0.148,3.555-0.215,4.602-0.25    c0.523-0.02,0.918-0.027,1.184-0.035l0.383-0.004c1.023,0,1.855-0.832,1.855-1.859c0-1.027-0.832-1.855-1.855-1.855l-0.008-0.008    c-0.152,0.008-36.172,0.027-81.719,18.672c-17.258,7.063-35.883,16.824-54.43,30.262l5.105-32.68l7.211-46.152l1.672-10.703    l60.281-16.301l38.23-10.336c0,0,50.559-204.781-20.387-244.727c0,0-114.824-48.328-223.094,37.648    c-1.754,1.395-1.055,4.262,0.359,6.824c2.875,5.215,13.758,15.848,27.801,27.43    C1502.41,228.934,1513.906,237.594,1525.328,245.156z M1631.457,142.406c0.852-0.566,2.008-0.336,2.582,0.516    c0,0.004,0.43,0.648,1.23,1.84c0.805,1.191,1.98,2.926,3.469,5.102c2.977,4.352,7.203,10.453,12.184,17.457    c9.957,14.004,22.957,31.629,35.047,46.043c8.051,9.602,15.734,17.785,21.703,22.441l0.68,0.535l0.031,0.867    c0,0.012,0.609,17.82,0.609,41.418c-0.008,29.508-0.941,68-5.262,92.305c-0.184,1.008-1.148,1.684-2.16,1.508    c-1.012-0.184-1.691-1.148-1.504-2.16c4.242-23.781,5.211-62.254,5.203-91.652c0-11.77-0.152-22.094-0.305-29.473    c-0.109-5.516-0.223-9.375-0.27-10.98c-6.242-5.035-13.715-13.059-21.574-22.422c-8.137-9.695-16.641-20.785-24.367-31.266    c-15.453-20.957-27.805-39.484-27.813-39.496l0,0C1630.371,144.133,1630.598,142.977,1631.457,142.406z M1584.09,142.367    c0.871-0.539,2.023-0.258,2.559,0.621c0,0,0.48,0.789,1.41,2.266c0.934,1.469,2.301,3.613,4.051,6.285    c3.504,5.355,8.547,12.84,14.688,21.355c12.277,17.027,28.957,38.184,46.449,54.617c11.648,10.965,23.676,19.801,34.813,23.949    l1.156,0.434l0.059,1.23c0,0.02,0.809,18.621,0.809,41.746c0,13.211-0.262,27.898-1.102,41.453    c-0.844,13.563-2.234,25.965-4.57,34.758c-0.262,0.992-1.281,1.582-2.273,1.316c-0.996-0.262-1.586-1.277-1.32-2.273    c2.215-8.316,3.629-20.594,4.453-34.027c0.828-13.441,1.09-28.066,1.09-41.227c0-17.281-0.453-32.039-0.684-38.332    c-0.027-0.871-0.051-1.547-0.074-2.074c-11.547-4.609-23.426-13.457-34.906-24.242c-11.852-11.141-23.258-24.32-33.207-36.949    c-19.902-25.258-33.992-48.309-34.016-48.352C1582.934,144.051,1583.211,142.902,1584.09,142.367z M1541.117,154.051    c0.813-0.629,1.984-0.48,2.613,0.336c0.004,0.004,1.023,1.328,2.926,3.711c1.906,2.383,4.688,5.816,8.188,10.008    c6.996,8.383,16.852,19.801,28.289,31.914c22.852,24.223,52.133,51.242,77.102,62.301l1.078,0.48l0.027,1.176    c0,0.012,0.289,12.109,0.289,28.977c0,15.461-0.242,34.934-1.18,52.809c-0.934,17.895-2.52,34.098-5.359,43.387    c-0.301,0.984-1.344,1.535-2.328,1.234c-0.984-0.305-1.535-1.344-1.227-2.328c2.645-8.563,4.285-24.738,5.203-42.484    c0.926-17.77,1.168-37.195,1.168-52.617c0-8.414-0.066-15.637-0.145-20.754c-0.047-3.281-0.09-5.68-0.117-6.992    c-25.668-11.805-54.5-38.598-77.215-62.633c-23.012-24.371-39.625-45.883-39.648-45.914l0,0    C1540.156,155.852,1540.305,154.684,1541.117,154.051z M1509.961,168.777c0.773-0.676,1.949-0.602,2.629,0.172    c0,0.004,0.699,0.797,2.016,2.266c1.309,1.473,3.223,3.613,5.656,6.285c4.852,5.34,11.742,12.813,19.875,21.324    c16.266,17.035,37.512,38.238,57.352,54.883c13.219,11.098,25.848,20.16,35.758,24.57l1.105,0.492l-0.008,1.207    c0,0.035-0.051,44.109-3.961,79.074c-1.305,11.668-3.023,22.313-5.367,30.086c-0.297,0.988-1.336,1.547-2.32,1.246    c-0.984-0.297-1.539-1.336-1.242-2.316c3.906-12.922,6.207-35.352,7.488-56.344c1.281-21.008,1.594-40.656,1.664-48.34    c0.008-0.953,0.012-1.68,0.016-2.246c-10.313-4.836-22.625-13.762-35.527-24.578c-13.348-11.199-27.266-24.387-39.902-37    c-25.262-25.219-45.383-48.137-45.395-48.156v0.004C1509.113,170.633,1509.191,169.457,1509.961,168.777z M1484.578,183.582    c0.688-0.762,1.863-0.824,2.625-0.133c0.004,0.004,1.48,1.34,4.125,3.719c2.637,2.383,6.438,5.809,11.066,9.977    c9.266,8.336,21.871,19.652,35.219,31.566c26.691,23.824,56.406,50.078,68.277,59.617l0.645,0.523l0.051,0.828    c0,0.023,0.641,11.793,0.641,28.121c0,13.473-0.434,30.043-2.055,45.703c-1.629,15.664-4.387,30.391-9.227,40.391    c-0.449,0.926-1.563,1.313-2.488,0.859c-0.926-0.449-1.313-1.559-0.859-2.484c4.492-9.211,7.289-23.695,8.871-39.148    c1.602-15.465,2.043-31.93,2.043-45.32c0-12.172-0.367-21.805-0.547-25.848c-0.023-0.527-0.043-0.926-0.059-1.254    c-12.41-10.047-41.496-35.758-67.77-59.215c-26.699-23.832-50.414-45.262-50.43-45.273    C1483.945,185.52,1483.887,184.344,1484.578,183.582z"/>
		<path style="fill:#191919;" d="M1570.047,394.34c8.414-13.883,15.012-30.078,15.012-30.078    c-13.879,10.797-37.004,23.113-37.004,23.113l5.734,25.566C1559.168,410.352,1564.941,402.773,1570.047,394.34z"/>
		<path style="fill:#191919;" d="M1390.309,746.039c-0.047,0-0.074-0.027-0.125-0.031c-1.023-0.063-1.902,0.719-1.973,1.742l0,0    c0,0.004-4.621,71.926-9.258,155.227c-0.051,1.023,0.734,1.902,1.754,1.961c1.031,0.059,1.906-0.731,1.965-1.754    c2.316-41.641,4.629-80.441,6.363-108.832c0.867-14.191,1.59-25.785,2.094-33.828c0.508-8.043,0.801-12.523,0.801-12.535    c0.039-0.648-0.277-1.215-0.762-1.578C1390.922,746.223,1390.637,746.086,1390.309,746.039z"/>
		<path style="fill:#191919;" d="M1364.012,549.676c-0.961-0.371-2.035,0.098-2.41,1.059c-0.375,0.957,0.102,2.031,1.055,2.406    c13.434,5.254,21.945,11.82,27.109,18.836c5.156,7.023,7.047,14.535,7.051,21.961c0.008,10.434-3.82,20.644-7.699,28.211    c-0.715,1.41-1.426,2.688-2.125,3.898c-1.172,2.043-2.289,3.816-3.195,5.18c-0.727,1.082-1.328,1.93-1.75,2.5    c-0.203,0.285-0.367,0.5-0.477,0.644l-0.16,0.203c-0.637,0.809-0.496,1.977,0.309,2.617c0.809,0.633,1.977,0.496,2.613-0.309l0,0    c0.047-0.059,3.133-3.977,6.613-10.246c0.488-0.887,0.988-1.813,1.484-2.793c4.027-7.883,8.098-18.566,8.109-29.906    c0.004-8.051-2.102-16.461-7.777-24.164C1387.09,562.063,1377.922,555.106,1364.012,549.676z"/>
		<path style="fill:#191919;" d="M1352.047,546.856c5.652-2.051,9.652-4.535,12.344-7.352c3.25-3.375,4.527-7.258,4.512-10.879    c-0.02-4.914-2.152-9.34-4.203-12.578c-2.063-3.234-4.094-5.297-4.152-5.359l-0.473-0.48l-50.023-4.863    c-1.031-0.105-1.941,0.648-2.039,1.668c-0.098,1.027,0.648,1.934,1.672,2.035l48.652,4.73c0.691,0.77,2.152,2.488,3.57,4.824    c1.734,2.836,3.285,6.477,3.273,10.023c-0.02,2.801-0.875,5.559-3.477,8.309c-2.555,2.676-6.918,5.313-13.891,7.414l-37.57-7.875    c-1.004-0.207-1.984,0.433-2.199,1.441c-0.211,1.008,0.434,1.992,1.438,2.207l37.734,7.906c0.754,0.457,3.32,2.117,5.715,4.512    c1.262,1.262,2.469,2.73,3.324,4.277c0.863,1.555,1.379,3.164,1.379,4.805c-0.012,1.816-0.594,3.734-2.336,5.906    c-1.668,2.07-4.469,4.324-8.719,6.594l-48.672-10.141c-1.008-0.207-1.992,0.438-2.207,1.445c-0.207,1.008,0.441,1.992,1.445,2.199    l48.516,10.106c0.832,1.617,2.789,5.949,2.77,10.434c-0.008,2.715-0.664,5.406-2.602,7.813c-1.879,2.336-5.09,4.504-10.473,5.941    l-37.344-10.145c-0.992-0.269-2.016,0.316-2.281,1.305c-0.27,0.996,0.316,2.016,1.305,2.285l38.32,10.41l0.465-0.117    c6.207-1.57,10.355-4.168,12.906-7.348c2.566-3.176,3.434-6.824,3.422-10.144c-0.02-4.856-1.719-9.102-2.797-11.34    c4-2.254,6.91-4.566,8.844-6.957c2.191-2.703,3.172-5.555,3.16-8.246c-0.004-2.59-0.859-4.953-2.07-7    C1357.258,551.215,1354.301,548.578,1352.047,546.856z"/>
		<path style="fill:#191919;" d="M1506.473,286.918c4.418-0.387,4.715-13.887,4.715-13.887H1499.5l2.676,2.895    C1502.176,275.926,1502.055,287.301,1506.473,286.918z"/>
	</g>
	<polygon style="fill:#4A3F73;" points="1484.707,186.211 1484.707,186.211 1484.707,186.211  "/>
	<path style="fill:#4A3F73;" d="M1535.137,231.484c26.273,23.457,55.359,49.168,67.77,59.215c0.016,0.328,0.035,0.727,0.059,1.254   c0.18,4.043,0.547,13.676,0.547,25.848c0,13.391-0.441,29.855-2.043,45.32c-1.582,15.453-4.379,29.938-8.871,39.148   c-0.453,0.926-0.066,2.035,0.859,2.484c0.926,0.453,2.039,0.066,2.488-0.859c4.84-10,7.598-24.727,9.227-40.391   c1.621-15.66,2.055-32.23,2.055-45.703c0-16.328-0.641-28.098-0.641-28.121l-0.051-0.828l-0.645-0.523   c-11.871-9.539-41.586-35.793-68.277-59.617c-13.348-11.914-25.953-23.23-35.219-31.566c-4.629-4.168-8.43-7.594-11.066-9.977   c-2.645-2.379-4.121-3.715-4.125-3.719c-0.762-0.691-1.938-0.629-2.625,0.133c-0.691,0.762-0.633,1.938,0.129,2.629   C1484.723,186.223,1508.438,207.652,1535.137,231.484z"/>
	<path style="fill:#4A3F73;" d="M1509.797,171.402c0.012,0.02,20.133,22.938,45.395,48.156c12.637,12.613,26.555,25.801,39.902,37   c12.902,10.816,25.215,19.742,35.527,24.578c-0.004,0.566-0.008,1.293-0.016,2.246c-0.07,7.684-0.383,27.332-1.664,48.34   c-1.281,20.992-3.582,43.422-7.488,56.344c-0.297,0.98,0.258,2.02,1.242,2.316c0.984,0.301,2.023-0.258,2.32-1.246   c2.344-7.773,4.063-18.418,5.367-30.086c3.91-34.965,3.961-79.039,3.961-79.074l0.008-1.207l-1.105-0.492   c-9.91-4.41-22.539-13.473-35.758-24.57c-19.84-16.645-41.086-37.848-57.352-54.883c-8.133-8.512-15.023-15.984-19.875-21.324   c-2.434-2.672-4.348-4.813-5.656-6.285c-1.316-1.469-2.016-2.262-2.016-2.266c-0.68-0.773-1.855-0.848-2.629-0.172   c-0.77,0.68-0.848,1.855-0.164,2.629V171.402z"/>
	<path style="fill:#4A3F73;" d="M1540.781,156.66c0.023,0.031,16.637,21.543,39.648,45.914   c22.715,24.035,51.547,50.828,77.215,62.633c0.027,1.313,0.07,3.711,0.117,6.992c0.078,5.117,0.145,12.34,0.145,20.754   c0,15.422-0.242,34.848-1.168,52.617c-0.918,17.746-2.559,33.922-5.203,42.484c-0.309,0.984,0.242,2.023,1.227,2.328   c0.984,0.301,2.027-0.25,2.328-1.234c2.84-9.289,4.426-25.492,5.359-43.387c0.938-17.875,1.18-37.348,1.18-52.809   c0-16.867-0.289-28.965-0.289-28.977l-0.027-1.176l-1.078-0.48c-24.969-11.059-54.25-38.078-77.102-62.301   c-11.438-12.113-21.293-23.531-28.289-31.914c-3.5-4.191-6.281-7.625-8.188-10.008c-1.902-2.383-2.922-3.707-2.926-3.711   c-0.629-0.816-1.801-0.965-2.613-0.336C1540.305,154.684,1540.156,155.852,1540.781,156.66L1540.781,156.66z"/>
	<path style="fill:#4A3F73;" d="M1617.488,193.273c9.949,12.629,21.355,25.809,33.207,36.949   c11.48,10.785,23.359,19.633,34.906,24.242c0.023,0.527,0.047,1.203,0.074,2.074c0.23,6.293,0.684,21.051,0.684,38.332   c0,13.16-0.262,27.785-1.09,41.227c-0.824,13.434-2.238,25.711-4.453,34.027c-0.266,0.996,0.324,2.012,1.32,2.273   c0.992,0.266,2.012-0.324,2.273-1.316c2.336-8.793,3.727-21.195,4.57-34.758c0.84-13.555,1.102-28.242,1.102-41.453   c0-23.125-0.809-41.727-0.809-41.746l-0.059-1.23l-1.156-0.434c-11.137-4.148-23.164-12.984-34.813-23.949   c-17.492-16.434-34.172-37.59-46.449-54.617c-6.141-8.516-11.184-16-14.688-21.355c-1.75-2.672-3.117-4.816-4.051-6.285   c-0.93-1.477-1.41-2.266-1.41-2.266c-0.535-0.879-1.688-1.16-2.559-0.621c-0.879,0.535-1.156,1.684-0.617,2.555   C1583.496,144.965,1597.586,168.016,1617.488,193.273z"/>
	<path style="fill:#4A3F73;" d="M1630.941,144.988c0.008,0.012,12.359,18.539,27.813,39.496c7.727,10.48,16.23,21.57,24.367,31.266   c7.859,9.363,15.332,17.387,21.574,22.422c0.047,1.605,0.16,5.465,0.27,10.98c0.152,7.379,0.305,17.703,0.305,29.473   c0.008,29.398-0.961,67.871-5.203,91.652c-0.188,1.012,0.492,1.977,1.504,2.16c1.012,0.176,1.977-0.5,2.16-1.508   c4.32-24.305,5.254-62.797,5.262-92.305c0-23.598-0.609-41.406-0.609-41.418l-0.031-0.867l-0.68-0.535   c-5.969-4.656-13.652-12.84-21.703-22.441c-12.09-14.414-25.09-32.039-35.047-46.043c-4.98-7.004-9.207-13.105-12.184-17.457   c-1.488-2.176-2.664-3.91-3.469-5.102c-0.801-1.191-1.23-1.836-1.23-1.84c-0.574-0.852-1.73-1.082-2.582-0.516   C1630.598,142.977,1630.371,144.133,1630.941,144.988L1630.941,144.988z"/>
</g>
</svg>