<svg xmlns="http://www.w3.org/2000/svg" xmlns:xlink="http://www.w3.org/1999/xlink" version="1.1" x="0px" y="0px" viewBox="0 0 500 500" style="enable-background:new 0 0 500 500;" xml:space="preserve">
<g id="BACKGROUND">
	<rect style="fill:#ffffff;" width="500" height="500"/>
</g>
<g id="OBJECTS">
	<g>
		
			<ellipse transform="matrix(0.1615 -0.9869 0.9869 0.1615 -46.603 290.1515)" style="fill:#565663;" cx="147.442" cy="172.5" rx="74" ry="74"/>
		<g>
			<g>
				<path style="fill:#FFD2D2;" d="M194.636,229.499c-34.5-62.5-25.469-105.832-26.469-130.832c0-4,1.218-15.846-4.782-14.346      c-4,1-5.218,9.346-5.718,11.846c-2.5,7.5-2.069,14.25-5,29C147.442,108,146,60.5,139,60c-6,0-1.703,35.125-3.661,52.999      C126,84.75,122.352,45.502,112,50.333c-5,2.333,4.456,31.087,9.166,66.833c-11.166-15.747-24.833-59.833-32.5-57      c-6.925,2.559,15.334,51.5,21,71c-8.999-5.5-31.837-40.945-35.5-38.167C69.333,96.666,90,131.333,97,143.333      c7.5,12.5,15.166,28.334,20.666,42.334c9.5,21.5,13.1,29.664,16.6,59.663c0,0,13.393,3.139,31.063-1.012      S194.636,229.499,194.636,229.499z"/>
			</g>
			<path style="fill:#FFF0F0;" d="M168,94.25c0,0-2.167,2.25-4.5-0.5c0.025-1.235-0.125-8.5,3-8.75S168,94.25,168,94.25z"/>
			<path style="fill:#FFF0F0;" d="M139,60c0,0-2.375,1.25-1.375,7.875c0,0,1.875,1.5,4,0C141.625,67.875,142,60.25,139,60z"/>
			<path style="fill:#FFF0F0;" d="M88.781,60.12c0,0-1.968,1.825,0.724,7.961c0,0,2.201,0.96,3.862-1.042     C93.366,67.04,91.742,59.58,88.781,60.12z"/>
			<path style="fill:#FFF0F0;" d="M73.966,92.913c0,0-1.287,1.651,1.551,6.041c0,0,1.814,0.465,2.843-1.284     C78.36,97.669,76.179,92.127,73.966,92.913z"/>
			<path style="fill:#FFF0F0;" d="M112.63,49.857c0,0-2.596,2.094,0.448,8.959c0,0,2.727,1.041,4.946-1.245     C118.024,57.571,116.408,49.194,112.63,49.857z"/>
			<g>
				<g>
					<path style="fill:#EA9D9D;" d="M100.482,90.04c0.218-0.108,0.437-0.229,0.685-0.248c0.798-0.063,0.804-1.313,0-1.25       c-0.482,0.038-0.885,0.206-1.315,0.419C99.128,89.318,99.762,90.396,100.482,90.04L100.482,90.04z"/>
				</g>
			</g>
			<g>
				<g>
					<path style="fill:#EA9D9D;" d="M100.332,92.269c0.889-0.189,1.744-0.529,2.483-1.063c0.647-0.467,0.024-1.552-0.631-1.079       c-0.663,0.478-1.388,0.767-2.184,0.937C99.212,91.232,99.546,92.437,100.332,92.269L100.332,92.269z"/>
				</g>
			</g>
			<g>
				<g>
					<path style="fill:#EA9D9D;" d="M120.999,83.436c0.948-0.175,1.906-0.212,2.833-0.5c0.768-0.238,0.44-1.445-0.332-1.205       c-0.926,0.287-1.886,0.325-2.833,0.5C119.875,82.377,120.212,83.581,120.999,83.436L120.999,83.436z"/>
				</g>
			</g>
			<g>
				<g>
					<path style="fill:#EA9D9D;" d="M120.499,86.436c1.286-0.183,2.569-0.362,3.833-0.667c0.784-0.189,0.451-1.395-0.332-1.205       c-1.264,0.305-2.547,0.484-3.833,0.667C119.372,85.344,119.711,86.548,120.499,86.436L120.499,86.436z"/>
				</g>
			</g>
			<g>
				<g>
					<path style="fill:#EA9D9D;" d="M140.333,92.291c1.108-0.148,2.217-0.166,3.333-0.166c0.806,0,0.806-1.25,0-1.25       c-1.116,0.001-2.225,0.018-3.333,0.166C139.547,91.147,139.537,92.398,140.333,92.291L140.333,92.291z"/>
				</g>
			</g>
			<g>
				<g>
					<path style="fill:#EA9D9D;" d="M141.666,89.769c0.389-0.114,0.764-0.143,1.167-0.144c0.806-0.002,0.806-1.252,0-1.25       c-0.51,0.002-1.009,0.045-1.499,0.189C140.562,88.79,140.891,89.997,141.666,89.769L141.666,89.769z"/>
				</g>
			</g>
			<g>
				<g>
					<path style="fill:#EA9D9D;" d="M85.149,113.373c0.521-0.362,0.979-0.805,1.5-1.167c0.657-0.457,0.033-1.541-0.631-1.079       c-0.521,0.362-0.979,0.805-1.5,1.167C83.861,112.751,84.485,113.835,85.149,113.373L85.149,113.373z"/>
				</g>
			</g>
			<g>
				<g>
					<path style="fill:#EA9D9D;" d="M86.149,115.873c0.929-0.568,1.778-1.252,2.626-1.931c0.63-0.503-0.261-1.382-0.884-0.884       c-0.767,0.613-1.535,1.223-2.374,1.736C84.832,115.214,85.46,116.295,86.149,115.873L86.149,115.873z"/>
				</g>
			</g>
			<g>
				<g>
					<path style="fill:#EA9D9D;" d="M163.166,110.791c0.85,0.009,1.67,0.146,2.501,0.311c0.787,0.157,1.122-1.048,0.332-1.205       c-0.938-0.187-1.874-0.345-2.833-0.356C162.36,109.533,162.361,110.783,163.166,110.791L163.166,110.791z"/>
				</g>
			</g>
			<g>
				<g>
					<path style="fill:#EA9D9D;" d="M164,107.436c0.594,0.176,1.218,0.188,1.833,0.189c0.806,0.001,0.806-1.249,0-1.25       c-0.507-0.001-1.01,0.001-1.501-0.144C163.558,106.002,163.229,107.209,164,107.436L164,107.436z"/>
				</g>
			</g>
			<g>
				<g>
					<path style="fill:#EA9D9D;" d="M108.999,138.102c1.295-0.206,2.49-0.751,3.442-1.661c0.584-0.558-0.301-1.44-0.884-0.884       c-0.804,0.767-1.805,1.166-2.891,1.339C107.873,137.024,108.211,138.229,108.999,138.102L108.999,138.102z"/>
				</g>
			</g>
			<g>
				<g>
					<path style="fill:#EA9D9D;" d="M121.166,124.436c1.137-0.174,2.228-0.522,3.149-1.23c0.63-0.483,0.009-1.57-0.631-1.079       c-0.848,0.65-1.806,0.944-2.851,1.104C120.039,123.353,120.378,124.557,121.166,124.436L121.166,124.436z"/>
				</g>
			</g>
			<g>
				<g>
					<path style="fill:#EA9D9D;" d="M134.001,120.103c1.4,0.198,2.691,0.281,3.981-0.396c0.714-0.375,0.082-1.454-0.631-1.079       c-0.965,0.507-1.974,0.418-3.019,0.271C133.544,118.786,133.205,119.99,134.001,120.103L134.001,120.103z"/>
				</g>
			</g>
			<g>
				<g>
					<path style="fill:#EA9D9D;" d="M153.001,132.936c0.594,0.176,1.218,0.188,1.833,0.189c0.806,0.001,0.806-1.249,0-1.25       c-0.507-0.001-1.01,0.001-1.501-0.144C152.558,131.502,152.229,132.708,153.001,132.936L153.001,132.936z"/>
				</g>
			</g>
			<path style="fill:#4ecc82;" d="M179.875,188.879c-19.798-3.613-39.39,2.787-57.26,10.919c-2.932,1.334-0.388,5.642,2.523,4.317     c16.514-7.514,35.082-13.759,53.407-10.415C181.698,194.276,183.044,189.458,179.875,188.879z"/>
		</g>
		<g>
			<g>
				<path style="fill:#F0F0FF;" d="M174.333,120.338c15.333-4,14-29.333,17.333-41.333c5.334-19.334,20-25.334,39.334-20.667      c35.334,8,41.334,60.667,2,68.667C220.333,129.671,187,123.671,174.333,120.338"/>
			</g>
			<rect x="189.079" y="81.419" style="fill:none;" width="68.999" height="40"/>
			<text transform="matrix(1 0 0 1 203.9619 106.2695)" style="fill:#5353AA; font-family:'HVDPoster'; font-size:35px;">HI!</text>
		</g>
		<g>
			<g>
				<path style="fill:#6868c1;" d="M65.794,78.668c-1.022,3.185-1.476,6.339-1,9.665c0.228,1.59,2.637,0.911,2.411-0.665      c-0.409-2.852,0.128-5.622,1-8.335C68.7,77.793,66.286,77.139,65.794,78.668L65.794,78.668z"/>
			</g>
		</g>
		<g>
			<g>
				<path style="fill:#6868c1;" d="M59.794,75.668c-2.318,5.989-2.545,12.067-0.5,18.165c0.51,1.52,2.925,0.868,2.411-0.665      c-1.917-5.716-1.67-11.231,0.5-16.835C62.788,74.827,60.37,74.181,59.794,75.668L59.794,75.668z"/>
			</g>
		</g>
		<g>
			<g>
				<path style="fill:#6868c1;" d="M146.616,55.384c2.082,1.677,3.904,3.454,5.305,5.747c0.838,1.373,3.001,0.118,2.158-1.262      c-1.51-2.474-3.447-4.442-5.695-6.253C147.141,52.615,145.36,54.373,146.616,55.384L146.616,55.384z"/>
			</g>
		</g>
		<g>
			<g>
				<path style="fill:#6868c1;" d="M150.869,49.579c4.857,2.535,8.469,6.636,10.425,11.753c0.57,1.49,2.988,0.844,2.411-0.665      c-2.187-5.717-6.121-10.4-11.575-13.247C150.704,46.676,149.439,48.833,150.869,49.579L150.869,49.579z"/>
			</g>
		</g>
	</g>
	<g>
		
			<ellipse transform="matrix(0.1609 -0.987 0.987 0.1609 133.5849 502.1295)" style="fill:#4ecc82;" cx="362.108" cy="172.5" rx="74" ry="74"/>
		<g>
			<g>
				<path style="fill:#FFD2D2;" d="M325.214,236.659c-0.393-50.575,25.701-94.088,33.516-109.998      c1.351-2.491,6.108-9.458,1.865-10.549c-2.829-0.727-6.405,4.06-7.561,5.448c-4.09,3.828-6.1,8.178-12.903,16.376      c2.54-12.457,17.676-42.53,13.483-45.204c-3.736-2.025-12.916,21.304-20.169,31.777c3.718-20.749,14.694-46.427,6.615-46.912      c-3.902-0.234-7.718,20.868-16.85,44.723c-1.64-13.577,4.728-45.651-1.003-46.474c-5.177-0.743-7.833,37.254-10.885,51.313      c-3.75-6.464-6.01-36.25-9.229-35.756c-4.248,0.652-3.077,29.221-2.768,39.059C299.777,140.78,301.3,153.423,300,164      c-1.34,16.599-3.666,14.667-7.126,34.667c0,0,5.626,14.083,14.351,23.466C316.75,232.5,325.214,236.659,325.214,236.659z"/>
			</g>
			<g>
				<g>
					<path style="fill:#EA9D9D;" d="M319.469,98.624c0.131,0.005,0.296-0.009,0.42,0.044c0.313,0.133,0.667,0.097,0.855-0.224       c0.155-0.266,0.089-0.722-0.225-0.855c-0.349-0.148-0.673-0.2-1.051-0.215C318.662,97.342,318.665,98.592,319.469,98.624       L319.469,98.624z"/>
				</g>
			</g>
			<g>
				<g>
					<path style="fill:#EA9D9D;" d="M318.571,99.951c0.639,0.184,1.295,0.267,1.957,0.188c0.79-0.095,0.799-1.346,0-1.25       c-0.561,0.067-1.083,0.013-1.625-0.143C318.127,98.523,317.798,99.729,318.571,99.951L318.571,99.951z"/>
				</g>
			</g>
			<g>
				<g>
					<path style="fill:#EA9D9D;" d="M334.427,101.426c0.649,0.211,1.259,0.51,1.933,0.644c0.787,0.157,1.122-1.047,0.332-1.205       c-0.674-0.135-1.283-0.433-1.933-0.644C333.99,99.971,333.663,101.178,334.427,101.426L334.427,101.426z"/>
				</g>
			</g>
			<g>
				<g>
					<path style="fill:#EA9D9D;" d="M333.102,103.126c0.862,0.32,1.722,0.642,2.611,0.877c0.78,0.207,1.11-0.999,0.332-1.205       c-0.89-0.236-1.749-0.558-2.611-0.877C332.678,101.64,332.353,102.848,333.102,103.126L333.102,103.126z"/>
				</g>
			</g>
			<g>
				<g>
					<path style="fill:#EA9D9D;" d="M343.591,113.51c0.689,0.262,1.336,0.607,1.982,0.957c0.709,0.384,1.34-0.695,0.631-1.079       c-0.743-0.402-1.49-0.783-2.281-1.083C343.168,112.018,342.845,113.227,343.591,113.51L343.591,113.51z"/>
				</g>
			</g>
			<g>
				<g>
					<path style="fill:#EA9D9D;" d="M345.161,112.346c0.269,0.059,0.496,0.154,0.737,0.284c0.709,0.383,1.34-0.696,0.631-1.079       c-0.33-0.178-0.669-0.33-1.036-0.41C344.708,110.968,344.374,112.173,345.161,112.346L345.161,112.346z"/>
				</g>
			</g>
			<g>
				<g>
					<path style="fill:#EA9D9D;" d="M302.042,107.982c0.447-0.052,0.883-0.168,1.328-0.22c0.791-0.093,0.8-1.344,0-1.25       c-0.446,0.053-0.883,0.169-1.328,0.22C301.251,106.825,301.242,108.076,302.042,107.982L302.042,107.982z"/>
				</g>
			</g>
			<g>
				<g>
					<path style="fill:#EA9D9D;" d="M301.821,109.877c0.788-0.044,1.566-0.181,2.342-0.32c0.793-0.142,0.456-1.347-0.332-1.205       c-0.667,0.12-1.332,0.237-2.01,0.275C301.02,108.673,301.016,109.923,301.821,109.877L301.821,109.877z"/>
				</g>
			</g>
			<g>
				<g>
					<path style="fill:#EA9D9D;" d="M351.419,132.677c0.514,0.288,0.971,0.635,1.422,1.011c0.615,0.511,1.505-0.368,0.885-0.884       c-0.532-0.442-1.071-0.867-1.676-1.206C351.347,131.202,350.716,132.282,351.419,132.677L351.419,132.677z"/>
				</g>
			</g>
			<g>
				<g>
					<path style="fill:#EA9D9D;" d="M353.039,130.84c0.327,0.317,0.712,0.548,1.109,0.764c0.708,0.386,1.339-0.694,0.631-1.079       c-0.304-0.166-0.606-0.327-0.855-0.569C353.345,129.395,352.46,130.278,353.039,130.84L353.039,130.84z"/>
				</g>
			</g>
			<g style="opacity:0.6;">
				<g>
					<path style="fill:#EA9D9D;" d="M335.352,133.729c-5.457,8.783-16.525,4.525-24.903,7.005c-0.771,0.228-0.442,1.435,0.332,1.205       c8.881-2.628,19.85,1.759,25.651-7.579C336.859,133.673,335.777,133.045,335.352,133.729L335.352,133.729z"/>
				</g>
			</g>
			<g style="opacity:0.6;">
				<g>
					<path style="fill:#EA9D9D;" d="M328.032,146.421c-3.387,4.477-4.929,9.837-3.91,15.4c0.145,0.792,1.35,0.456,1.205-0.332       c-0.958-5.235,0.616-10.248,3.785-14.437C329.599,146.409,328.513,145.787,328.032,146.421L328.032,146.421z"/>
				</g>
			</g>
		</g>
		<g>
			<g>
				<path style="fill:#FFD2D2;" d="M395.114,238.744c-1.114-48.994-19.809-68.607-27.623-84.517      c-1.351-2.491-6.108-9.458-1.865-10.549c2.829-0.728,6.405,4.06,7.56,5.448c4.09,3.828,6.1,8.178,12.903,16.376      c-2.54-12.457-17.676-42.53-13.483-45.204c3.736-2.025,12.916,21.304,20.169,31.777c-3.718-20.749-14.694-46.427-6.615-46.912      c3.902-0.234,7.718,20.868,16.85,44.723c1.64-13.577-4.728-45.651,1.003-46.474c5.177-0.743,7.833,37.254,10.885,51.313      c3.75-6.464,6.01-36.25,9.23-35.756c4.248,0.652,3.077,29.221,2.768,39.058c-0.452,10.318,0.117,22.768,1.417,33.344      c0.371,4.595,0.679,8.401,1.098,11.924c-2.41,6.705-8.621,14.398-10.051,16.091C408.25,232.75,395.114,238.744,395.114,238.744z      "/>
			</g>
			<g>
				<g>
					<path style="fill:#EA9D9D;" d="M406.752,124.939c-0.379,0.015-0.702,0.066-1.051,0.215c-0.314,0.133-0.38,0.589-0.225,0.855       c0.188,0.321,0.542,0.357,0.855,0.224c0.124-0.053,0.289-0.039,0.42-0.044C407.556,126.158,407.559,124.907,406.752,124.939       L406.752,124.939z"/>
				</g>
			</g>
			<g>
				<g>
					<path style="fill:#EA9D9D;" d="M407.317,126.312c-0.542,0.156-1.064,0.21-1.625,0.143c-0.799-0.096-0.79,1.155,0,1.25       c0.662,0.08,1.318-0.004,1.957-0.188C408.423,127.294,408.094,126.088,407.317,126.312L407.317,126.312z"/>
				</g>
			</g>
			<g>
				<g>
					<path style="fill:#EA9D9D;" d="M391.462,127.786c-0.649,0.211-1.259,0.509-1.933,0.644c-0.79,0.158-0.455,1.362,0.332,1.205       c0.674-0.134,1.283-0.433,1.933-0.644C392.558,128.743,392.23,127.536,391.462,127.786L391.462,127.786z"/>
				</g>
			</g>
			<g>
				<g>
					<path style="fill:#EA9D9D;" d="M392.786,129.486c-0.862,0.32-1.722,0.642-2.611,0.878c-0.778,0.206-0.448,1.412,0.332,1.205       c0.89-0.235,1.749-0.558,2.611-0.877C393.867,130.414,393.543,129.205,392.786,129.486L392.786,129.486z"/>
				</g>
			</g>
			<g>
				<g>
					<path style="fill:#EA9D9D;" d="M382.298,139.87c-0.791,0.3-1.538,0.681-2.281,1.083c-0.709,0.384-0.078,1.463,0.631,1.079       c0.646-0.35,1.294-0.696,1.982-0.958C383.376,140.792,383.053,139.583,382.298,139.87L382.298,139.87z"/>
				</g>
			</g>
			<g>
				<g>
					<path style="fill:#EA9D9D;" d="M380.727,138.706c-0.367,0.081-0.706,0.232-1.036,0.41c-0.709,0.383-0.078,1.462,0.631,1.079       c0.241-0.13,0.469-0.225,0.737-0.284C381.847,139.738,381.513,138.533,380.727,138.706L380.727,138.706z"/>
				</g>
			</g>
			<g>
				<g>
					<path style="fill:#EA9D9D;" d="M424.179,134.298c-0.445-0.052-0.882-0.167-1.328-0.22c-0.8-0.094-0.791,1.157,0,1.25       c0.445,0.052,0.882,0.168,1.328,0.22C424.978,135.641,424.97,134.39,424.179,134.298L424.179,134.298z"/>
				</g>
			</g>
			<g>
				<g>
					<path style="fill:#EA9D9D;" d="M424.399,136.193c-0.678-0.038-1.343-0.156-2.01-0.275c-0.788-0.142-1.125,1.063-0.332,1.205       c0.775,0.139,1.554,0.276,2.342,0.32C425.205,137.488,425.201,136.238,424.399,136.193L424.399,136.193z"/>
				</g>
			</g>
			<g>
				<g>
					<path style="fill:#EA9D9D;" d="M374.171,159.163c-0.605,0.339-1.144,0.764-1.676,1.206c-0.62,0.516,0.27,1.395,0.885,0.884       c0.451-0.376,0.908-0.722,1.422-1.011C375.505,159.848,374.874,158.768,374.171,159.163L374.171,159.163z"/>
				</g>
			</g>
			<g>
				<g>
					<path style="fill:#EA9D9D;" d="M372.297,157.522c-0.249,0.242-0.552,0.403-0.856,0.569c-0.708,0.385-0.077,1.465,0.631,1.079       c0.397-0.216,0.782-0.447,1.109-0.764C373.761,157.843,372.876,156.96,372.297,157.522L372.297,157.522z"/>
				</g>
			</g>
			<g style="opacity:0.6;">
				<g>
					<path style="fill:#EA9D9D;" d="M389.253,164.991c8.462,7.047,17.401-0.363,26.737-0.649c0.804-0.024,0.807-1.275,0-1.25       c-8.73,0.267-17.934,7.61-25.853,1.015C389.522,163.596,388.634,164.475,389.253,164.991L389.253,164.991z"/>
				</g>
			</g>
			<g style="opacity:0.6;">
				<g>
					<path style="fill:#EA9D9D;" d="M400.211,173.433c3.195,4.087,4.786,9.079,3.926,14.248c-0.132,0.788,1.073,1.126,1.205,0.332       c0.942-5.661-0.747-10.987-4.246-15.463C400.6,171.915,399.721,172.806,400.211,173.433L400.211,173.433z"/>
				</g>
			</g>
		</g>
		<g>
			<g>
				<path style="fill:#6868c1;" d="M311.634,75.134c2.948-3.07,6.596-4.906,10.698-5.928c1.563-0.39,0.9-2.801-0.664-2.411      c-4.496,1.121-8.573,3.209-11.802,6.572C308.75,74.528,310.516,76.298,311.634,75.134L311.634,75.134z"/>
			</g>
		</g>
		<g>
			<g>
				<path style="fill:#6868c1;" d="M298.384,73.134C306.53,65.308,317.841,60.27,329.25,61c1.61,0.103,1.601-2.397,0-2.5      c-12.047-0.771-24.04,4.61-32.634,12.866C295.451,72.485,297.222,74.251,298.384,73.134L298.384,73.134z"/>
			</g>
		</g>
		<g>
			<g>
				<path style="fill:#6868c1;" d="M404.119,95.829c4.277,1.805,8.303,4.276,10.802,8.302c0.848,1.366,3.011,0.112,2.158-1.262      c-2.725-4.39-7.013-7.221-11.698-9.198C403.914,93.052,402.639,95.205,404.119,95.829L404.119,95.829z"/>
			</g>
		</g>
		<g>
			<g>
				<path style="fill:#6868c1;" d="M404.619,85.079c9.009,4.102,18.123,10.059,21.676,19.753c0.55,1.501,2.967,0.853,2.41-0.665      c-3.791-10.346-13.151-16.843-22.824-21.247C404.426,82.258,403.153,84.412,404.619,85.079L404.619,85.079z"/>
			</g>
		</g>
	</g>
	<g>
		<g>
			<g>
				<path style="fill:#FFD2D2;" d="M402.773,310.552c2.326-4.778,4.279-9.975,6.297-14.929c1.669-4.341,3.361-15.252,6.301-14.93      c2.251,0.337-0.554,11.291-0.665,14.69c6.846-10.069,10.228-22.389,12.55-20.519c1.578,2.939-1.764,10.691-5.576,20.434      c4.211-4.515,11.541-20.416,14.113-19.217c1.963,1.884-6.24,15.777-8.611,21.346c2.643-2.04,10.018-15.136,13.143-14.665      c2.451,0.369-8.143,14.529-12.125,21.375c2.425-1.282,4.162-3.289,6.5-4.625c3.5-2,3.662,2.903-3,9.125      c-8.379,7.825-5.204,5.3-10.403,11.898C416.627,317.662,407.09,314.04,402.773,310.552"/>
			</g>
			<g>
				<path style="fill:#FFD2D2;" d="M311.435,324.102c-3.453-4.039-6.651-8.576-9.851-12.863c-2.708-3.781-7.092-13.915-9.856-12.863      c-2.094,0.893,3.378,10.788,4.341,14.05c-9.159-8.022-15.533-19.094-17.31-16.699c-0.788,3.24,4.397,9.903,10.539,18.372      c-5.212-3.31-16.308-16.854-18.495-15.046c-1.426,2.316,10.01,13.698,13.706,18.491c-3.071-1.31-13.505-12.128-16.41-10.886      c-2.279,0.975,11.537,12.013,17.114,17.636c-2.67-0.631-4.857-2.136-7.455-2.84c-3.891-1.056-2.814,3.732,5.2,8.076      c10.078,5.464,6.37,3.819,13.062,8.897C299.816,334.47,308.136,328.565,311.435,324.102"/>
			</g>
			<circle style="fill:#565663;" cx="363.641" cy="381.513" r="74"/>
			<g>
				<defs fill="#000000">
					<path id="SVGID_1_" d="M336.397,450.336c17.5-8.5,31.302-17.323,41.802-33.823c6.5-11-3-20-8.5-29c-6-10-48-68.5-51.5-71       c-16.65,10.31-20,13-33.584,30.373c4.5,6,39.584,44.127,41.084,50.627c2,8-20.127,15.272-27.127,19.272       c0,0,5.178,11.41,14.674,18.909C325.449,447.013,336.397,450.336,336.397,450.336z" fill="#000000"/>
				</defs>
				<clipPath id="SVGID_00000049186390247743323590000001295638156797997490_" fill="#000000">
					<use xlink:href="#SVGID_1_" style="overflow:visible;" fill="#000000"/>
				</clipPath>
				<g style="clip-path:url(#SVGID_00000049186390247743323590000001295638156797997490_);">
					<path style="fill:#4ecc82;" d="M336.397,450.336c17.5-8.5,31.302-17.323,41.802-33.823c6.5-11-3-20-8.5-29       c-6-10-48-68.5-51.5-71c-16.65,10.31-20,13-33.584,30.373c4.5,6,39.584,44.127,41.084,50.627c2,8-20.127,15.272-27.127,19.272       c0,0,5.178,11.41,14.674,18.909C325.449,447.013,336.397,450.336,336.397,450.336z"/>
				</g>
				<g style="clip-path:url(#SVGID_00000049186390247743323590000001295638156797997490_);">
					<g>
						<path style="fill:#FFAEAE;" d="M298.404,363.014c-2.297-6.187,7.995-6.099,11.81-7.738c3.711-1.596,4.788-6.327,6.561-9.527        c2.226-4.017,8.576-2.888,12.367-3.873c3.898-1.013,5.209-4.581,5.641-8.195c0.19-1.599-2.313-1.58-2.5,0        c-0.804,6.732-5.99,5.983-11.238,6.792c-4.696,0.724-6.617,4.066-8.457,8.081c-2.646,5.773-7.689,5.3-13.012,7.104        c-3.847,1.304-4.934,4.385-3.582,8.021C296.55,365.176,298.967,364.528,298.404,363.014L298.404,363.014z"/>
					</g>
				</g>
				<g style="clip-path:url(#SVGID_00000049186390247743323590000001295638156797997490_);">
					<g>
						<path style="fill:#FFAEAE;" d="M302.738,374.345c1.877-5.958,6.09-5.803,11.256-7.047c3.865-0.931,6.081-3.272,7.823-6.721        c1.599-3.164,3.533-5.603,7.134-6.538c2.753-0.715,5.582-0.411,8.344-1.261c3.648-1.121,5.082-4.96,7.455-7.549        c1.086-1.186-0.677-2.959-1.768-1.768c-1.57,1.713-2.683,3.667-4.152,5.448c-2.154,2.611-6.227,2.08-9.21,2.521        c-4.886,0.722-7.786,3.59-9.962,7.884c-2.959,5.84-7.798,5.415-13.227,7.049c-3.461,1.042-5.088,4.089-6.104,7.316        C299.842,375.223,302.256,375.877,302.738,374.345L302.738,374.345z"/>
					</g>
				</g>
				<g style="clip-path:url(#SVGID_00000049186390247743323590000001295638156797997490_);">
					<g>
						<path style="fill:#FFAEAE;" d="M309.071,382.678c1.142-7.021,8.265-6.173,13.782-6.832c4.73-0.564,7.842-3.156,10.238-7.133        c1.828-3.036,3.26-5.047,6.785-5.968c2.205-0.576,4.542-0.684,6.793-1.032c3.803-0.588,6.82-2.35,7.401-6.368        c0.228-1.576-2.181-2.255-2.411-0.664c-0.804,5.559-8.193,4.77-12.448,5.654c-4.669,0.971-6.591,4.313-8.903,8.151        c-5.48,9.099-21.605,0.971-23.648,13.527C306.404,383.59,308.813,384.267,309.071,382.678L309.071,382.678z"/>
					</g>
				</g>
				<g style="clip-path:url(#SVGID_00000049186390247743323590000001295638156797997490_);">
					<g>
						<path style="fill:#FFAEAE;" d="M315.611,393.644c6.496-10.665,17.264-4.06,26.107-9.525c4.95-3.061,7.399-9.353,13.814-9.855        c4.596-0.36,6.4,2.527,10.217-1.366c1.129-1.151-0.639-2.921-1.768-1.768c-2.871,2.929-4.338,0.95-7.185,0.732        c-2.263-0.175-4.012,0.193-6.066,1.075c-5.205,2.233-7.543,8.442-13.059,10.364c-4.623,1.611-10.22,0.318-15.055,1.508        c-4.134,1.017-7.025,4.065-9.164,7.574C312.612,393.763,314.775,395.018,315.611,393.644L315.611,393.644z"/>
					</g>
				</g>
				<g style="clip-path:url(#SVGID_00000049186390247743323590000001295638156797997490_);">
					<g>
						<path style="fill:#FFAEAE;" d="M318.83,403.092c3.213-2.32,6.599-3.965,10.57-4.489c4.334-0.571,7.582,1.931,11.094,3.934        c3.444,1.966,7.558,1.811,10.676-0.714c1.799-1.456,3.332-3.173,5.004-4.768c3.76-3.585,8.076-2.856,12.285-0.745        c2.257,1.132,4.406,1.858,6.946,1.65c3.143-0.256,6.591-3.337,9.829-1.868c1.457,0.661,2.728-1.493,1.262-2.158        c-1.87-0.849-3.32-0.865-5.311-0.403c-1.648,0.382-3.241,1.179-4.853,1.694c-2.789,0.891-5.266-0.399-7.699-1.62        c-4.412-2.213-9.382-2.464-13.344,0.928c-2.249,1.924-4.084,4.29-6.559,5.945c-4.422,2.959-9.084-1.68-12.935-3.453        c-6.038-2.781-13.295,0.347-18.228,3.909C316.274,401.868,317.52,404.038,318.83,403.092L318.83,403.092z"/>
					</g>
				</g>
				<g style="clip-path:url(#SVGID_00000049186390247743323590000001295638156797997490_);">
					<g>
						<path style="fill:#FFAEAE;" d="M317.865,407.218c5.055-1.338,10.694-0.033,14.283,3.933c2.031,2.244,3.133,4.631,5.858,6.182        c4.95,2.816,10.609-2.789,14.813-4.54c6.946-2.893,8.57,7.415,12.776,10.557c1.565,1.169,4.121,1.205,5.927,0.838        c1.154-0.234,2.273-0.555,3.404-0.881c2.934-0.845,3.463,1.385,4.068,3.706c0.406,1.56,2.817,0.898,2.41-0.664        c-1.377-5.281-3.715-6.449-8.762-4.984c-5.124,1.487-7.398-1.474-9.532-5.605c-1.409-2.729-3.128-4.624-6.021-5.692        c-7.423-2.744-13.504,10.338-20.306,3.139c-2.83-2.995-4.058-5.458-7.94-7.442c-3.645-1.862-7.77-1.979-11.644-0.954        C315.643,405.22,316.305,407.631,317.865,407.218L317.865,407.218z"/>
					</g>
				</g>
				<g style="clip-path:url(#SVGID_00000049186390247743323590000001295638156797997490_);">
					<g>
						<path style="fill:#FFAEAE;" d="M304.865,411.93c3.846-0.164,7.494,0.254,10.9,2.173c4.002,2.254,3.234,7.953,5.354,11.541        c2.875,4.867,7.499,4.133,12.36,3.715c8.898-0.764,7.193,7.841,11.317,12.865c3.384,4.122,10.009,3.217,14.032,0.868        c1.391-0.811,0.133-2.973-1.262-2.158c-4.295,2.507-9.464,2.266-12.252-2.232c-1.306-2.107-1.123-4.81-2.131-7.032        c-1.975-4.357-6.517-5.084-10.885-4.709c-4.57,0.393-8.154,0.515-10.074-4.771c-0.852-2.345-0.494-5.344-2.144-7.393        c-3.711-4.613-9.583-5.607-15.218-5.366C303.26,409.498,303.253,411.999,304.865,411.93L304.865,411.93z"/>
					</g>
				</g>
			</g>
			<g>
				<path style="fill:#FFABAB;" d="M325.428,325.342c-3.766-4.944-6.45-8.273-7.229-8.829c-16.65,10.31-20,13-33.584,30.373      c0.978,1.303,3.398,4.123,6.604,7.803C300.447,342.379,312.349,333.108,325.428,325.342z"/>
			</g>
			<g>
				<path style="fill:#5cffa4;" d="M399.699,302.513c-12.5,22-31,41.5-39,65c-5.5,16-5,28,12.5,34c11.5,4.5,24.5,5.5,36.5,5.5      c6,0,16.124,0.183,25-5.25c2.941-9,3.394-17.077,2.941-24.25c-0.501-7.963-1.441-12.75-4.441-21.5      c-9.5,2.5-20.426,6.5-30.426,7.5c12.926-18.25,17.676-28.25,27.426-45C424.199,314.513,406.699,304.513,399.699,302.513"/>
			</g>
			<g>
				<path style="fill:#4ecc82;" d="M396.304,317.899c3.388,1.789,6.599,0.809,10.191,0.292c3.841-0.553,6.972,2.118,6.15,6.15      c-0.974,4.784,5.335,7.108,9.082,6.959c0.419-0.017,0.827-0.056,1.235-0.097c2.217-3.927,4.532-8.046,7.236-12.691      c-6-4-23.5-14-30.5-16c-2.208,3.887-4.605,7.694-7.098,11.461C393.42,315.608,394.65,317.025,396.304,317.899z"/>
			</g>
			<path style="fill:#565663;" d="M392.199,327.429c-1.612,0-1.612,2.5,0,2.5S393.811,327.429,392.199,327.429z"/>
			<path style="fill:#565663;" d="M409.199,336.763c-1.612,0-1.612,2.5,0,2.5S410.811,336.763,409.199,336.763z"/>
			<path style="fill:#565663;" d="M384.199,350.763c-1.612,0-1.612,2.5,0,2.5S385.811,350.763,384.199,350.763z"/>
			<path style="fill:#565663;" d="M393.866,364.429c-1.612,0-1.612,2.5,0,2.5S395.478,364.429,393.866,364.429z"/>
			<path style="fill:#565663;" d="M375.199,381.096c-1.612,0-1.612,2.5,0,2.5S376.811,381.096,375.199,381.096z"/>
			<path style="fill:#565663;" d="M399.866,391.096c-1.612,0-1.612,2.5,0,2.5S401.478,391.096,399.866,391.096z"/>
			<path style="fill:#565663;" d="M421.199,370.096c-1.612,0-1.612,2.5,0,2.5S422.811,370.096,421.199,370.096z"/>
			<path style="fill:#565663;" d="M426.866,390.763c-1.612,0-1.612,2.5,0,2.5S428.478,390.763,426.866,390.763z"/>
			<path style="fill:#565663;" d="M393.866,339.721c-0.806,0-0.806,1.25,0,1.25S394.672,339.721,393.866,339.721z"/>
			<path style="fill:#565663;" d="M400.199,349.721c-0.807,0-0.807,1.25,0,1.25C401.006,350.971,401.006,349.721,400.199,349.721z"/>
			<path style="fill:#565663;" d="M375.866,364.721c-0.806,0-0.806,1.25,0,1.25C376.672,365.971,376.672,364.721,375.866,364.721z"/>
			<path style="fill:#565663;" d="M392.199,380.054c-0.807,0-0.807,1.25,0,1.25C393.006,381.304,393.006,380.054,392.199,380.054z"/>
			<path style="fill:#565663;" d="M409.866,371.721c-0.806,0-0.806,1.25,0,1.25S410.672,371.721,409.866,371.721z"/>
			<path style="fill:#565663;" d="M412.533,396.388c-0.807,0-0.807,1.25,0,1.25C413.339,397.638,413.339,396.388,412.533,396.388z"/>
			<path style="fill:#565663;" d="M433.199,380.721c-0.807,0-0.807,1.25,0,1.25C434.006,381.971,434.006,380.721,433.199,380.721z"/>
			<path style="fill:#565663;" d="M429.866,363.721c-0.806,0-0.806,1.25,0,1.25S430.672,363.721,429.866,363.721z"/>
			<path style="fill:#565663;" d="M381.866,394.388c-0.806,0-0.806,1.25,0,1.25C382.672,395.638,382.672,394.388,381.866,394.388z"/>
			<path style="fill:#565663;" d="M406.533,324.721c-0.807,0-0.807,1.25,0,1.25C407.339,325.971,407.339,324.721,406.533,324.721z"/>
			<path style="fill:#565663;" d="M364.199,378.721c-0.807,0-0.807,1.25,0,1.25C365.006,379.971,365.006,378.721,364.199,378.721z"/>
			<path style="fill:#565663;" d="M377.866,342.721c-0.806,0-0.806,1.25,0,1.25C378.672,343.971,378.672,342.721,377.866,342.721z"/>
			<path style="fill:#565663;" d="M369.533,360.388c-0.807,0-0.807,1.25,0,1.25C370.339,361.638,370.339,360.388,369.533,360.388z"/>
			<path style="fill:#565663;" d="M412.866,384.721c-0.806,0-0.806,1.25,0,1.25S413.672,384.721,412.866,384.721z"/>
			<path style="fill:#565663;" d="M426.199,400.054c-0.807,0-0.807,1.25,0,1.25C427.006,401.304,427.006,400.054,426.199,400.054z"/>
			<path style="fill:#565663;" d="M400.866,401.721c-0.806,0-0.806,1.25,0,1.25S401.672,401.721,400.866,401.721z"/>
		</g>
		<g>
			<g>
				<path style="fill:#E1E1FF;" d="M354.079,352.549c-1.538-2.042-3.148-4.023-4.862-5.92c-1.083-1.198-2.846,0.575-1.768,1.768      c1.571,1.738,3.061,3.543,4.472,5.414C352.878,355.081,355.051,353.838,354.079,352.549L354.079,352.549z"/>
			</g>
		</g>
		<g>
			<g>
				<path style="fill:#E1E1FF;" d="M357.75,350.513c-0.165-3.111-0.336-6.222-0.5-9.333c-0.084-1.603-2.585-1.612-2.5,0      c0.164,3.111,0.335,6.222,0.5,9.333C355.335,352.116,357.835,352.124,357.75,350.513L357.75,350.513z"/>
			</g>
		</g>
		<g>
			<g>
				<path style="fill:#E1E1FF;" d="M362.245,351.644c0.746-1.279,1.64-2.464,2.5-3.667c0.397-0.555,0.099-1.39-0.448-1.71      c-0.629-0.368-1.315-0.104-1.71,0.448c-0.861,1.202-1.755,2.388-2.5,3.667C359.273,351.777,361.435,353.035,362.245,351.644      L362.245,351.644z"/>
			</g>
		</g>
	</g>
	<g>
		
			<ellipse transform="matrix(0.1608 -0.987 0.987 0.1608 -248.1511 461.7096)" style="fill:#4ecc82;" cx="147.442" cy="376.785" rx="73.999" ry="74"/>
		<g>
			<path style="fill:#FFD2D2;" d="M180.123,331.659c-3.654-3.207-8.124-1.963-10.778,1.412c-1.509,1.919-2.406,8.322-3.132,10.773     c0.518-9.664,1.779-22.639-7.338-23.485c-3.457-0.322-6.47,1.623-7.552,4.321c-2.051,5.117-3,7-4.626,18.833     c0.306-19.076-1.629-37.353-2.041-56.501c-0.333-15.5-5.333-26.672-9.333-12.337c-1.667,6.667-3.667,61.67-5,68.337     c-10.666-38-16.962-57.666-19.295-64c-1.667-4.333-7.371-6.334-9.038,0.666c-0.667,2.667,14.438,74.564,18.771,90.231     c-1.704,2.053-1.704,2.053-4.438,4.769c-3.411,3.388-6.666,7.334-6.666,12c0.333,4.667,16.934,45.84,14.934,60.507     c0,0,11.744,4.16,26.41,3.599c3.311-0.19,14,0,28.761-7.413c-2-24,2.895-49.025,3.561-73.025     C183.48,366.085,184.614,335.601,180.123,331.659z"/>
			<path style="fill:#E2B0B0;" d="M160.526,347.514c0,0-7.288-11.876-43.613,26.385c0,0,7.027-6.489,15.428-13.079     c0.596,2.087,1.815,3.842,3.331,5.386c0.565,0.575,1.449-0.309,0.884-0.885c-1.437-1.462-2.576-3.092-3.089-5.099     c-0.021-0.082-0.058-0.146-0.099-0.203c10.196-7.9,22.04-15.574,25.788-12.005c7,6.666-14.5,21.832-26.333,31.666l-1.333,1.833     c0,0,4.686-2.881,10.382-7.073c0.029,0.093,0.079,0.183,0.176,0.266c7.374,6.207,7.284,16.496,6.317,25.308     c-0.088,0.801,1.163,0.792,1.25,0c1.002-9.136,0.932-19.781-6.683-26.192c-0.042-0.035-0.086-0.049-0.129-0.071     C153.248,365.942,166.335,354.14,160.526,347.514z"/>
			<path style="fill:#E2B0B0;" d="M166.359,341.189c0,0-0.019,0.478-0.066,1.324c-0.369,6.607-2.466,35.657-10.74,34.771     c0,0-4.855-0.013-4.876-9.892l-1.177,1.023c0,0,0.156,10.765,5.823,10.598c5.484-0.161,10.971-5.893,11.163-36.22     C166.199,344.048,166.365,342.256,166.359,341.189z"/>
			<polygon style="fill:#E2B0B0;" points="146.697,343.514 146.093,350.249 146.905,349.472 147.064,340.929    "/>
			<path style="fill:#E2B0B0;" d="M164.861,364.904c0,0-0.11,1.452-0.109,1.971c0.004,2.241,0.333,6.739,3.57,7.472     c5.159,1.168,12.79-10.33,14.645-31.998c0,0-0.479,33.166-14.479,32.998c0,0-4.688,0.228-4.688-6.897"/>
			<path style="fill:#E2B0B0;" d="M160.864,341.763c-2.92-0.001-5.835-0.024-8.709-0.603c-0.787-0.158-1.122,1.046-0.332,1.205     c2.985,0.601,6.007,0.646,9.041,0.647C161.67,343.013,161.67,341.763,160.864,341.763z"/>
			<path style="fill:#E2B0B0;" d="M157.78,339.035c-0.788-0.121-1.588-0.129-2.375-0.25c-0.788-0.121-1.127,1.083-0.332,1.205     c0.788,0.121,1.588,0.129,2.375,0.25C158.236,340.361,158.575,339.157,157.78,339.035z"/>
			<path style="fill:#E2B0B0;" d="M160.78,325.785c-1.598-0.511-3.239-0.749-4.916-0.647c-0.801,0.049-0.806,1.299,0,1.25     c1.574-0.096,3.084,0.124,4.584,0.603C161.218,327.236,161.545,326.029,160.78,325.785z"/>
			<path style="fill:#E2B0B0;" d="M159.489,322.763c-0.79-0.106-1.579-0.125-2.375-0.125c-0.806,0-0.806,1.25,0,1.25     c0.796,0,1.585,0.019,2.375,0.125c0.338,0.046,0.625-0.318,0.625-0.625C160.114,323.013,159.826,322.808,159.489,322.763z"/>
			<path style="fill:#E2B0B0;" d="M177.78,335.16c-1.245-0.24-2.505-0.386-3.75-0.625c-0.787-0.152-1.123,1.053-0.332,1.205     c1.245,0.24,2.505,0.386,3.75,0.625C178.235,336.518,178.571,335.313,177.78,335.16z"/>
			<path style="fill:#E2B0B0;" d="M177.28,332.535c-0.536-0.121-1.086-0.15-1.625-0.25c-0.788-0.146-1.124,1.059-0.332,1.205     c0.539,0.1,1.09,0.129,1.625,0.25C177.732,333.918,178.066,332.713,177.28,332.535z"/>
			<path style="fill:#E2B0B0;" d="M175.405,352.285c-1.061-0.271-2.099-0.618-3.125-1c-0.757-0.281-1.081,0.927-0.332,1.205     c1.026,0.382,2.064,0.729,3.125,1C175.854,353.69,176.186,352.485,175.405,352.285z"/>
			<path style="fill:#E2B0B0;" d="M176.655,349.66c-1.384-0.252-2.765-0.514-4.125-0.875c-0.78-0.208-1.11,0.998-0.332,1.205     c1.36,0.362,2.741,0.623,4.125,0.875C177.11,351.009,177.447,349.804,176.655,349.66z"/>
			<path style="fill:#E2B0B0;" d="M137.653,361.072c-0.509-0.765-1.003-1.532-1.375-2.375c-0.325-0.736-1.401-0.1-1.079,0.631     c0.372,0.843,0.866,1.61,1.375,2.375C137.019,362.37,138.102,361.745,137.653,361.072z"/>
			<path style="fill:#E2B0B0;" d="M114.429,384.598c-0.738-0.363-1.495-0.675-2.274-0.938c-0.766-0.259-1.092,0.948-0.332,1.205     c0.678,0.229,1.333,0.495,1.975,0.813C114.519,386.033,115.152,384.955,114.429,384.598z"/>
			<path style="fill:#E2B0B0;" d="M115.429,381.848c-0.574-0.274-1.183-0.457-1.774-0.688c-0.752-0.293-1.075,0.916-0.332,1.205     c0.49,0.191,1,0.335,1.475,0.563C115.521,383.273,116.156,382.195,115.429,381.848z"/>
			<path style="fill:#E2B0B0;" d="M115.073,309.66l-3.375,0.75c-0.787,0.175-0.453,1.38,0.332,1.205l3.375-0.75     C116.192,310.69,115.858,309.485,115.073,309.66z"/>
			<path style="fill:#E2B0B0;" d="M116.048,311.598c-0.849,0.36-1.716,0.679-2.6,0.938c-0.772,0.226-0.443,1.432,0.332,1.205     c0.99-0.289,1.951-0.66,2.899-1.063C117.419,312.363,116.781,311.287,116.048,311.598z"/>
			<path style="fill:#E2B0B0;" d="M141.989,304.763c-1.418,0.009-2.833,0.116-4.25,0.125c-0.806,0.005-0.806,1.255,0,1.25     c1.417-0.009,2.832-0.116,4.25-0.125C142.794,306.008,142.795,304.758,141.989,304.763z"/>
			<path style="fill:#E2B0B0;" d="M140.864,302.388c-1.041,0.129-2.084,0.246-3.125,0.375c-0.789,0.098-0.799,1.349,0,1.25     c1.041-0.129,2.084-0.246,3.125-0.375C141.653,303.54,141.663,302.289,140.864,302.388z"/>
			<path style="fill:#E2B0B0;" d="M139.823,339.91c-1.679,0.274-3.321,0.726-5,1c-0.794,0.13-0.456,1.334,0.332,1.205     c1.679-0.274,3.321-0.726,5-1C140.949,340.985,140.611,339.781,139.823,339.91z"/>
			<path style="fill:#E2B0B0;" d="M123.323,343.535c-1.45,0.494-2.862,1.095-4.375,1.375c-0.792,0.146-0.456,1.351,0.332,1.205     c1.513-0.28,2.925-0.881,4.375-1.375C124.414,344.482,124.088,343.274,123.323,343.535z"/>
			<path style="fill:#FFE9E9;" d="M159.498,347.942c-0.536-2.056-3.567-1.7-6.353-0.802c-1.955,0.486-3.886,1.237-5.411,2.555     c-0.198,0.172-0.249,0.542-0.098,0.758c0.198,0.281,0.415,0.539,0.641,0.789c1.361,2.682,3.01,3.035,5.807,1.674     C155.78,352.09,160.201,350.641,159.498,347.942z"/>
			<g>
				<path style="fill:#FFE9E9;" d="M166.92,365.673c1.667-0.25,4.334-0.333,5.917,0.5c1.167,0.5,0.917,0.917,0.5,2.083      c-0.167,0.834-0.5,1.5-0.833,2.167c-0.667,1.583-1.917,4.25-4,4.083c-2.75-0.166-2.667-3.416-2.417-5.333      C166.17,368.506,166.753,366.256,166.92,365.673"/>
			</g>
			<g>
				<path style="fill:#FFE9E9;" d="M159.57,369.722c-1.482-0.803-3.961-1.788-5.733-1.543c-1.268,0.072-1.174,0.55-1.179,1.789      c-0.127,0.841-0.041,1.58,0.046,2.321c0.088,1.715,0.356,4.647,2.372,5.2c2.643,0.779,3.67-2.306,4.087-4.193      C159.311,372.641,159.528,370.326,159.57,369.722"/>
			</g>
		</g>
		<g>
			<g>
				<path style="fill:#6868c1;" d="M94.872,286.347c-0.515-2.527,0-5.043,1.04-7.37c0.652-1.459-1.502-2.732-2.158-1.262      c-1.334,2.983-1.953,6.058-1.293,9.296C92.783,288.59,95.192,287.92,94.872,286.347L94.872,286.347z"/>
			</g>
		</g>
		<g>
			<g>
				<path style="fill:#6868c1;" d="M89.705,289.014c-2.013-5.911-0.725-11.296,2.707-16.37c0.906-1.34-1.261-2.589-2.158-1.262      c-3.776,5.583-5.165,11.816-2.96,18.296C87.811,291.195,90.226,290.544,89.705,289.014L89.705,289.014z"/>
			</g>
		</g>
	</g>
</g>
</svg>